  0
SECTION
  2
HEADER
  9
$ANGBASE
  50
0.0
  9
$ANGDIR
  70
1
  9
$MEASUREMENT
  70
0
  0
ENDSEC
  0
SECTION
  2
TABLES
  0
TABLE
  2
LTYPE
  70
4
  0
LTYPE
  5
40F
  2
CONTINUOUS
  70
0
  3
Solid line
  72
65
  73
0
  40
0.0
  0
LTYPE
  5
410
  2
DASHDOT
 70
0
  3
Dash Dot ____ _ ____ _
 72
65
 73
4
 40
2.0
 49
1.25
 49
-0.25
 49
0.25
 49
-0.25
  0
LTYPE
  5
411
  2
DASHED
 70
0
  3
Dashed __ __ __ __ __
 72
65
 73
2
 40
0.75
 49
0.5
 49
-0.25
  0
LTYPE
  5
43B
  2
DOTTED
 70
0
  3
Dotted .  .  .  .
 72
65
 73
2
 40
0.2
 49
0.0
 49
-0.2
  0
ENDTAB
  0
TABLE
  2
STYLE
  70
4
  0
STYLE
  2
KICAD
  70
0
  40
0
  41
1
  42
1
  50
0
  71
0
  3
isocp.shx
  0
STYLE
  2
KICADB
  70
0
  40
0
  41
1
  42
1
  50
0
  71
0
  3
isocp.shx
  0
STYLE
  2
KICADI
  70
0
  40
0
  41
1
  42
1
  50
15
  71
0
  3
isocp.shx
  0
STYLE
  2
KICADBI
  70
0
  40
0
  41
1
  42
1
  50
15
  71
0
  3
isocp.shx
  0
ENDTAB
  0
TABLE
  2
LAYER
  70
1
  0
LAYER
  2
BLACK
  70
0
  62
7
  6
CONTINUOUS
  0
ENDTAB
  0
ENDSEC
  0
SECTION
  2
ENTITIES
0
LINE
8
BLACK
6
CONTINUOUS
10
5.8830632677165351
20
-2.7221471653543308
11
5.8904076377952759
21
-2.7245335039370078
0
LINE
8
BLACK
6
CONTINUOUS
10
5.8904076377952759
20
-2.7245335039370078
11
5.8972883070866144
21
-2.72803937007874
0
LINE
8
BLACK
6
CONTINUOUS
10
5.8972883070866144
20
-2.72803937007874
11
5.9035358267716536
21
-2.7325784645669291
0
LINE
8
BLACK
6
CONTINUOUS
10
5.9035358267716536
20
-2.7325784645669291
11
5.9089963385826767
21
-2.7380389763779527
0
LINE
8
BLACK
6
CONTINUOUS
10
5.9089963385826767
20
-2.7380389763779527
11
5.9135354330708658
21
-2.7442864960629922
0
LINE
8
BLACK
6
CONTINUOUS
10
5.9135354330708658
20
-2.7442864960629922
11
5.917041299212598
21
-2.7511671653543308
0
LINE
8
BLACK
6
CONTINUOUS
10
5.917041299212598
20
-2.7511671653543308
11
5.919427637795275
21
-2.7585115354330707
0
LINE
8
BLACK
6
CONTINUOUS
10
5.919427637795275
20
-2.7585115354330707
11
5.9206357086614174
21
-2.7661388188976379
0
LINE
8
BLACK
6
CONTINUOUS
10
5.9206357086614174
20
-2.7661388188976379
11
5.9206357086614174
21
-2.7738611811023621
0
LINE
8
BLACK
6
CONTINUOUS
10
5.9206357086614174
20
-2.7738611811023621
11
5.9201200393700786
21
-2.7771166929133857
0
LINE
8
BLACK
6
CONTINUOUS
10
5.9201200393700786
20
-2.7771166929133857
11
6.0250933858267715
21
-2.8499646062992126
0
LINE
8
BLACK
6
CONTINUOUS
10
6.0250933858267715
20
-2.8499646062992126
11
6.0403738582677162
21
-2.856299212598425
0
LINE
8
BLACK
6
CONTINUOUS
10
6.0403738582677162
20
-2.856299212598425
11
6.1004979921259839
21
-2.856299212598425
0
LINE
8
BLACK
6
CONTINUOUS
10
6.1004979921259839
20
-2.856299212598425
11
6.2234550393700783
21
-2.8535101968503938
0
LINE
8
BLACK
6
CONTINUOUS
10
6.2234550393700783
20
-2.8535101968503938
11
6.2254401968503936
21
-2.8474005905511812
0
LINE
8
BLACK
6
CONTINUOUS
10
6.2254401968503936
20
-2.8474005905511812
11
6.2296472440944877
21
-2.8391437795275589
0
LINE
8
BLACK
6
CONTINUOUS
10
6.2296472440944877
20
-2.8391437795275589
11
6.2350941338582677
21
-2.8316467716535434
0
LINE
8
BLACK
6
CONTINUOUS
10
6.2350941338582677
20
-2.8316467716535434
11
6.2416467716535431
21
-2.8250941338582676
0
LINE
8
BLACK
6
CONTINUOUS
10
6.2416467716535431
20
-2.8250941338582676
11
6.2491437795275591
21
-2.819647244094488
0
LINE
8
BLACK
6
CONTINUOUS
10
6.2491437795275591
20
-2.819647244094488
11
6.2574005905511809
21
-2.8154401968503935
0
LINE
8
BLACK
6
CONTINUOUS
10
6.2574005905511809
20
-2.8154401968503935
11
6.266213858267716
21
-2.8125765748031495
0
LINE
8
BLACK
6
CONTINUOUS
10
6.266213858267716
20
-2.8125765748031495
11
6.2753665748031491
21
-2.8111269291338581
0
LINE
8
BLACK
6
CONTINUOUS
10
6.2753665748031491
20
-2.8111269291338581
11
6.2846334251968505
21
-2.8111269291338581
0
LINE
8
BLACK
6
CONTINUOUS
10
6.2846334251968505
20
-2.8111269291338581
11
6.2937861417322836
21
-2.8125765748031495
0
LINE
8
BLACK
6
CONTINUOUS
10
6.2937861417322836
20
-2.8125765748031495
11
6.3025994094488187
21
-2.8154401968503935
0
LINE
8
BLACK
6
CONTINUOUS
10
6.3025994094488187
20
-2.8154401968503935
11
6.3108562204724405
21
-2.819647244094488
0
LINE
8
BLACK
6
CONTINUOUS
10
6.3108562204724405
20
-2.819647244094488
11
6.3183532283464565
21
-2.8250941338582676
0
LINE
8
BLACK
6
CONTINUOUS
10
6.3183532283464565
20
-2.8250941338582676
11
6.3249058661417319
21
-2.8316467716535434
0
LINE
8
BLACK
6
CONTINUOUS
10
6.3249058661417319
20
-2.8316467716535434
11
6.3303527559055119
21
-2.8391437795275589
0
LINE
8
BLACK
6
CONTINUOUS
10
6.3303527559055119
20
-2.8391437795275589
11
6.334559803149606
21
-2.8474005905511812
0
LINE
8
BLACK
6
CONTINUOUS
10
6.334559803149606
20
-2.8474005905511812
11
6.3374234251968504
21
-2.8562138582677163
0
LINE
8
BLACK
6
CONTINUOUS
10
6.3374234251968504
20
-2.8562138582677163
11
6.3388730708661418
21
-2.8653665748031494
0
LINE
8
BLACK
6
CONTINUOUS
10
6.3388730708661418
20
-2.8653665748031494
11
6.3388730708661418
21
-2.8746334251968504
0
LINE
8
BLACK
6
CONTINUOUS
10
6.3388730708661418
20
-2.8746334251968504
11
6.3374234251968504
21
-2.8837861417322834
0
LINE
8
BLACK
6
CONTINUOUS
10
6.3374234251968504
20
-2.8837861417322834
11
6.334559803149606
21
-2.892599409448819
0
LINE
8
BLACK
6
CONTINUOUS
10
6.334559803149606
20
-2.892599409448819
11
6.3303527559055119
21
-2.9008562204724408
0
LINE
8
BLACK
6
CONTINUOUS
10
6.3303527559055119
20
-2.9008562204724408
11
6.3249058661417319
21
-2.9083532283464568
0
LINE
8
BLACK
6
CONTINUOUS
10
6.3249058661417319
20
-2.9083532283464568
11
6.3183532283464565
21
-2.9149058661417322
0
LINE
8
BLACK
6
CONTINUOUS
10
6.3183532283464565
20
-2.9149058661417322
11
6.3108562204724405
21
-2.9203527559055118
0
LINE
8
BLACK
6
CONTINUOUS
10
6.3108562204724405
20
-2.9203527559055118
11
6.3025994094488187
21
-2.9245598031496063
0
LINE
8
BLACK
6
CONTINUOUS
10
6.3025994094488187
20
-2.9245598031496063
11
6.2937861417322836
21
-2.9274234251968503
0
LINE
8
BLACK
6
CONTINUOUS
10
6.2937861417322836
20
-2.9274234251968503
11
6.2846334251968505
21
-2.9288730708661417
0
LINE
8
BLACK
6
CONTINUOUS
10
6.2846334251968505
20
-2.9288730708661417
11
6.2753665748031491
21
-2.9288730708661417
0
LINE
8
BLACK
6
CONTINUOUS
10
6.2753665748031491
20
-2.9288730708661417
11
6.266213858267716
21
-2.9274234251968503
0
LINE
8
BLACK
6
CONTINUOUS
10
6.266213858267716
20
-2.9274234251968503
11
6.2574005905511809
21
-2.9245598031496063
0
LINE
8
BLACK
6
CONTINUOUS
10
6.2574005905511809
20
-2.9245598031496063
11
6.2491437795275591
21
-2.9203527559055118
0
LINE
8
BLACK
6
CONTINUOUS
10
6.2491437795275591
20
-2.9203527559055118
11
6.2416467716535431
21
-2.9149058661417322
0
LINE
8
BLACK
6
CONTINUOUS
10
6.2416467716535431
20
-2.9149058661417322
11
6.2350941338582677
21
-2.9083532283464568
0
LINE
8
BLACK
6
CONTINUOUS
10
6.2350941338582677
20
-2.9083532283464568
11
6.2296472440944877
21
-2.9008562204724408
0
LINE
8
BLACK
6
CONTINUOUS
10
6.2296472440944877
20
-2.9008562204724408
11
6.2255640551181104
21
-2.8928425196850394
0
LINE
8
BLACK
6
CONTINUOUS
10
6.2255640551181104
20
-2.8928425196850394
11
6.1011668503937004
21
-2.8956642125984251
0
LINE
8
BLACK
6
CONTINUOUS
10
6.1011668503937004
20
-2.8956642125984251
11
6.1009436614173227
21
-2.8956546456692913
0
LINE
8
BLACK
6
CONTINUOUS
10
6.1009436614173227
20
-2.8956546456692913
11
6.100720472440945
21
-2.8956692913385824
0
LINE
8
BLACK
6
CONTINUOUS
10
6.100720472440945
20
-2.8956692913385824
11
6.037074803149606
21
-2.8956692913385824
0
LINE
8
BLACK
6
CONTINUOUS
10
6.037074803149606
20
-2.8956692913385824
11
6.0350131102362203
21
-2.8955341338582676
0
LINE
8
BLACK
6
CONTINUOUS
10
6.0350131102362203
20
-2.8955341338582676
11
6.0347996062992122
21
-2.8955373622047245
0
LINE
8
BLACK
6
CONTINUOUS
10
6.0347996062992122
20
-2.8955373622047245
11
6.0346534251968507
21
-2.8955105511811023
0
LINE
8
BLACK
6
CONTINUOUS
10
6.0346534251968507
20
-2.8955105511811023
11
6.0345053937007869
21
-2.8955008661417323
0
LINE
8
BLACK
6
CONTINUOUS
10
6.0345053937007869
20
-2.8955008661417323
11
6.0342994094488187
21
-2.8954456692913384
0
LINE
8
BLACK
6
CONTINUOUS
10
6.0342994094488187
20
-2.8954456692913384
11
6.032266889763779
21
-2.8950731102362206
0
LINE
8
BLACK
6
CONTINUOUS
10
6.032266889763779
20
-2.8950731102362206
11
6.0306881496062994
21
-2.8946754724409449
0
LINE
8
BLACK
6
CONTINUOUS
10
6.0306881496062994
20
-2.8946754724409449
11
6.0304917322834646
21
-2.8946120866141731
0
LINE
8
BLACK
6
CONTINUOUS
10
6.0304917322834646
20
-2.8946120866141731
11
6.0303956692913383
21
-2.8945994094488188
0
LINE
8
BLACK
6
CONTINUOUS
10
6.0303956692913383
20
-2.8945994094488188
11
6.029319566929134
21
-2.8942337795275588
0
LINE
8
BLACK
6
CONTINUOUS
10
6.029319566929134
20
-2.8942337795275588
11
6.0282376771653539
21
-2.8938846062992125
0
LINE
8
BLACK
6
CONTINUOUS
10
6.0282376771653539
20
-2.8938846062992125
11
6.0281529921259844
21
-2.8938374015748032
0
LINE
8
BLACK
6
CONTINUOUS
10
6.0281529921259844
20
-2.8938374015748032
11
6.027957637795275
21
-2.8937710236220471
0
LINE
8
BLACK
6
CONTINUOUS
10
6.027957637795275
20
-2.8937710236220471
11
6.0085363779527556
21
-2.8857198425196851
0
LINE
8
BLACK
6
CONTINUOUS
10
6.0085363779527556
20
-2.8857198425196851
11
6.0083367716535427
21
-2.885621338582677
0
LINE
8
BLACK
6
CONTINUOUS
10
6.0083367716535427
20
-2.885621338582677
11
6.0082368503937005
21
-2.8855927559055119
0
LINE
8
BLACK
6
CONTINUOUS
10
6.0082368503937005
20
-2.8855927559055119
11
6.0072349606299209
21
-2.8850775590551181
0
LINE
8
BLACK
6
CONTINUOUS
10
6.0072349606299209
20
-2.8850775590551181
11
6.0062273228346452
21
-2.884580275590551
0
LINE
8
BLACK
6
CONTINUOUS
10
6.0062273228346452
20
-2.884580275590551
11
6.0061450393700788
21
-2.8845170866141729
0
LINE
8
BLACK
6
CONTINUOUS
10
6.0061450393700788
20
-2.8845170866141729
11
6.0059469291338585
21
-2.8844152362204722
0
LINE
8
BLACK
6
CONTINUOUS
10
6.0059469291338585
20
-2.8844152362204722
11
6.0045492913385825
21
-2.8835766141732284
0
LINE
8
BLACK
6
CONTINUOUS
10
6.0045492913385825
20
-2.8835766141732284
11
6.0040134251968507
21
-2.8832053543307086
0
LINE
8
BLACK
6
CONTINUOUS
10
6.0040134251968507
20
-2.8832053543307086
11
6.0034540944881885
21
-2.8828691732283462
0
LINE
8
BLACK
6
CONTINUOUS
10
6.0034540944881885
20
-2.8828691732283462
11
5.8992361417322829
21
-2.8105454330708661
0
LINE
8
BLACK
6
CONTINUOUS
10
5.8992361417322829
20
-2.8105454330708661
11
5.8972883070866144
21
-2.8119606299212596
0
LINE
8
BLACK
6
CONTINUOUS
10
5.8972883070866144
20
-2.8119606299212596
11
5.8904076377952759
21
-2.8154664960629923
0
LINE
8
BLACK
6
CONTINUOUS
10
5.8904076377952759
20
-2.8154664960629923
11
5.8830632677165351
21
-2.8178528346456693
0
LINE
8
BLACK
6
CONTINUOUS
10
5.8830632677165351
20
-2.8178528346456693
11
5.8754359842519683
21
-2.8190609055118108
0
LINE
8
BLACK
6
CONTINUOUS
10
5.8754359842519683
20
-2.8190609055118108
11
5.8677136220472441
21
-2.8190609055118108
0
LINE
8
BLACK
6
CONTINUOUS
10
5.8677136220472441
20
-2.8190609055118108
11
5.8600863385826774
21
-2.8178528346456693
0
LINE
8
BLACK
6
CONTINUOUS
10
5.8600863385826774
20
-2.8178528346456693
11
5.8527419685039366
21
-2.8154664960629923
0
LINE
8
BLACK
6
CONTINUOUS
10
5.8527419685039366
20
-2.8154664960629923
11
5.845861299212598
21
-2.8119606299212596
0
LINE
8
BLACK
6
CONTINUOUS
10
5.845861299212598
20
-2.8119606299212596
11
5.8396137795275589
21
-2.8074215354330709
0
LINE
8
BLACK
6
CONTINUOUS
10
5.8396137795275589
20
-2.8074215354330709
11
5.8341532677165349
21
-2.8019610236220474
0
LINE
8
BLACK
6
CONTINUOUS
10
5.8341532677165349
20
-2.8019610236220474
11
5.8296141732283466
21
-2.7957135039370078
0
LINE
8
BLACK
6
CONTINUOUS
10
5.8296141732283466
20
-2.7957135039370078
11
5.8261083070866144
21
-2.7888328346456692
0
LINE
8
BLACK
6
CONTINUOUS
10
5.8261083070866144
20
-2.7888328346456692
11
5.8255234645669294
21
-2.7870329527559052
0
LINE
8
BLACK
6
CONTINUOUS
10
5.8255234645669294
20
-2.7870329527559052
11
5.5779355511811026
21
-2.7850680708661417
0
LINE
8
BLACK
6
CONTINUOUS
10
5.5779355511811026
20
-2.7850680708661417
11
5.5771351968503939
21
-2.7858684645669292
0
LINE
8
BLACK
6
CONTINUOUS
10
5.5771351968503939
20
-2.7858684645669292
11
5.571680590551181
21
-2.7895131102362205
0
LINE
8
BLACK
6
CONTINUOUS
10
5.571680590551181
20
-2.7895131102362205
11
5.5656197637795275
21
-2.7920235826771651
0
LINE
8
BLACK
6
CONTINUOUS
10
5.5656197637795275
20
-2.7920235826771651
11
5.5591856299212594
21
-2.7933034251968505
0
LINE
8
BLACK
6
CONTINUOUS
10
5.5591856299212594
20
-2.7933034251968505
11
5.5559055118110239
21
-2.7934645669291336
0
LINE
8
BLACK
6
CONTINUOUS
10
5.5559055118110239
20
-2.7934645669291336
11
5.5440944881889767
21
-2.7934645669291336
0
LINE
8
BLACK
6
CONTINUOUS
10
5.5440944881889767
20
-2.7934645669291336
11
5.5408143700787402
21
-2.7933034251968505
0
LINE
8
BLACK
6
CONTINUOUS
10
5.5408143700787402
20
-2.7933034251968505
11
5.5343802362204721
21
-2.7920235826771651
0
LINE
8
BLACK
6
CONTINUOUS
10
5.5343802362204721
20
-2.7920235826771651
11
5.5283194094488186
21
-2.7895131102362205
0
LINE
8
BLACK
6
CONTINUOUS
10
5.5283194094488186
20
-2.7895131102362205
11
5.5269970078740158
21
-2.7886295275590549
0
LINE
8
BLACK
6
CONTINUOUS
10
5.5269970078740158
20
-2.7886295275590549
11
5.5040716929133859
21
-2.7916883464566928
0
LINE
8
BLACK
6
CONTINUOUS
10
5.5040716929133859
20
-2.7916883464566928
11
5.4796634645669293
21
-2.8160965748031495
0
LINE
8
BLACK
6
CONTINUOUS
10
5.4796634645669293
20
-2.8160965748031495
11
5.4370020472440945
21
-3.1885393700787401
0
LINE
8
BLACK
6
CONTINUOUS
10
5.4370020472440945
20
-3.1885393700787401
11
5.4369992125984252
21
-3.1885547637795275
0
LINE
8
BLACK
6
CONTINUOUS
10
5.4369992125984252
20
-3.1885547637795275
11
5.4369993700787402
21
-3.1885623228346458
0
LINE
8
BLACK
6
CONTINUOUS
10
5.4369993700787402
20
-3.1885623228346458
11
5.4367714960629918
21
-3.189809842519685
0
LINE
8
BLACK
6
CONTINUOUS
10
5.4367714960629918
20
-3.189809842519685
11
5.4365423228346454
21
-3.1910729527559054
0
LINE
8
BLACK
6
CONTINUOUS
10
5.4365423228346454
20
-3.1910729527559054
11
5.4365394881889761
21
-3.1910800393700787
0
LINE
8
BLACK
6
CONTINUOUS
10
5.4365394881889761
20
-3.1910800393700787
11
5.4365367322834643
21
-3.1910953149606298
0
LINE
8
BLACK
6
CONTINUOUS
10
5.4365367322834643
20
-3.1910953149606298
11
5.4336824015748029
21
-3.2024575196850393
0
LINE
8
BLACK
6
CONTINUOUS
10
5.4336824015748029
20
-3.2024575196850393
11
5.4334149606299214
21
-3.203287755905512
0
LINE
8
BLACK
6
CONTINUOUS
10
5.4334149606299214
20
-3.203287755905512
11
5.4331829921259844
21
-3.2041284251968505
0
LINE
8
BLACK
6
CONTINUOUS
10
5.4331829921259844
20
-3.2041284251968505
11
5.363088503937008
21
-3.4056481102362204
0
LINE
8
BLACK
6
CONTINUOUS
10
5.363088503937008
20
-3.4056481102362204
11
5.3628661023622044
21
-3.4061737401574801
0
LINE
8
BLACK
6
CONTINUOUS
10
5.3628661023622044
20
-3.4061737401574801
11
5.3626828346456694
21
-3.4067138188976376
0
LINE
8
BLACK
6
CONTINUOUS
10
5.3626828346456694
20
-3.4067138188976376
11
5.35682062992126
21
-3.4208673622047243
0
LINE
8
BLACK
6
CONTINUOUS
10
5.35682062992126
20
-3.4208673622047243
11
5.3568205118110237
21
-3.4208675590551181
0
LINE
8
BLACK
6
CONTINUOUS
10
5.3568205118110237
20
-3.4208675590551181
11
5.3568204724409449
21
-3.4208677559055118
0
LINE
8
BLACK
6
CONTINUOUS
10
5.3568204724409449
20
-3.4208677559055118
11
5.3568201968503937
21
-3.4208681889763777
0
LINE
8
BLACK
6
CONTINUOUS
10
5.3568201968503937
20
-3.4208681889763777
11
5.3556818110236222
21
-3.4231767716535431
0
LINE
8
BLACK
6
CONTINUOUS
10
5.3556818110236222
20
-3.4231767716535431
11
5.3548962598425192
21
-3.4242005511811024
0
LINE
8
BLACK
6
CONTINUOUS
10
5.3548962598425192
20
-3.4242005511811024
11
5.3542510629921258
21
-3.4253181102362205
0
LINE
8
BLACK
6
CONTINUOUS
10
5.3542510629921258
20
-3.4253181102362205
11
5.3525541338582672
21
-3.4272531102362205
0
LINE
8
BLACK
6
CONTINUOUS
10
5.3525541338582672
20
-3.4272531102362205
11
5.3525536220472443
21
-3.4272537795275588
0
LINE
8
BLACK
6
CONTINUOUS
10
5.3525536220472443
20
-3.4272537795275588
11
5.3525533858267718
21
-3.4272539370078738
0
LINE
8
BLACK
6
CONTINUOUS
10
5.3525533858267718
20
-3.4272539370078738
11
5.3525533070866143
21
-3.4272540551181101
0
LINE
8
BLACK
6
CONTINUOUS
10
5.3525533070866143
20
-3.4272540551181101
11
5.3124548425196849
21
-3.4673524803149607
0
LINE
8
BLACK
6
CONTINUOUS
10
5.3124548425196849
20
-3.4673524803149607
11
5.3124546850393699
21
-3.4673525590551182
0
LINE
8
BLACK
6
CONTINUOUS
10
5.3124546850393699
20
-3.4673525590551182
11
5.3124545275590549
21
-3.467352834645669
0
LINE
8
BLACK
6
CONTINUOUS
10
5.3124545275590549
20
-3.467352834645669
11
5.3124537795275586
21
-3.4673533464566928
0
LINE
8
BLACK
6
CONTINUOUS
10
5.3124537795275586
20
-3.4673533464566928
11
5.3105188976377953
21
-3.4690502362204723
0
LINE
8
BLACK
6
CONTINUOUS
10
5.3105188976377953
20
-3.4690502362204723
11
5.3094012992125981
21
-3.4696954724409448
0
LINE
8
BLACK
6
CONTINUOUS
10
5.3094012992125981
20
-3.4696954724409448
11
5.3083775196850391
21
-3.4704810236220474
0
LINE
8
BLACK
6
CONTINUOUS
10
5.3083775196850391
20
-3.4704810236220474
11
5.306069212598425
21
-3.4716192913385826
0
LINE
8
BLACK
6
CONTINUOUS
10
5.306069212598425
20
-3.4716192913385826
11
5.306068582677165
21
-3.4716196850393701
0
LINE
8
BLACK
6
CONTINUOUS
10
5.306068582677165
20
-3.4716196850393701
11
5.3060683070866137
21
-3.4716197244094489
0
LINE
8
BLACK
6
CONTINUOUS
10
5.3060683070866137
20
-3.4716197244094489
11
5.3060681496062987
21
-3.4716198425196851
0
LINE
8
BLACK
6
CONTINUOUS
10
5.3060681496062987
20
-3.4716198425196851
11
5.2919151574803145
21
-3.4774818110236221
0
LINE
8
BLACK
6
CONTINUOUS
10
5.2919151574803145
20
-3.4774818110236221
11
5.2919150393700782
21
-3.4774818897637796
0
LINE
8
BLACK
6
CONTINUOUS
10
5.2919150393700782
20
-3.4774818897637796
11
5.2919148818897632
21
-3.4774819291338583
0
LINE
8
BLACK
6
CONTINUOUS
10
5.2919148818897632
20
-3.4774819291338583
11
5.2919146062992128
21
-3.4774820472440946
0
LINE
8
BLACK
6
CONTINUOUS
10
5.2919146062992128
20
-3.4774820472440946
11
5.2894762992125983
21
-3.4783096456692912
0
LINE
8
BLACK
6
CONTINUOUS
10
5.2894762992125983
20
-3.4783096456692912
11
5.2881974409448818
21
-3.4784779527559055
0
LINE
8
BLACK
6
CONTINUOUS
10
5.2881974409448818
20
-3.4784779527559055
11
5.286951299212598
21
-3.4788118897637794
0
LINE
8
BLACK
6
CONTINUOUS
10
5.286951299212598
20
-3.4788118897637794
11
5.2843818897637798
21
-3.47898031496063
0
LINE
8
BLACK
6
CONTINUOUS
10
5.2843818897637798
20
-3.47898031496063
11
5.2843814173228347
21
-3.47898031496063
0
LINE
8
BLACK
6
CONTINUOUS
10
5.2843814173228347
20
-3.47898031496063
11
5.2274448818897641
21
-3.47898031496063
0
LINE
8
BLACK
6
CONTINUOUS
10
5.2274448818897641
20
-3.47898031496063
11
5.2267925984251971
21
-3.4789375590551179
0
LINE
8
BLACK
6
CONTINUOUS
10
5.2267925984251971
20
-3.4789375590551179
11
5.2261383464566924
21
-3.4789369291338583
0
LINE
8
BLACK
6
CONTINUOUS
10
5.2261383464566924
20
-3.4789369291338583
11
5.1394887401574803
21
-3.4731731102362202
0
LINE
8
BLACK
6
CONTINUOUS
10
5.1394887401574803
20
-3.4731731102362202
11
5.1369361811023619
21
-3.4728345275590549
0
LINE
8
BLACK
6
CONTINUOUS
10
5.1369361811023619
20
-3.4728345275590549
11
5.1363333070866144
21
-3.4726292125984251
0
LINE
8
BLACK
6
CONTINUOUS
10
5.1363333070866144
20
-3.4726292125984251
11
5.1357017716535429
21
-3.4725461417322836
0
LINE
8
BLACK
6
CONTINUOUS
10
5.1357017716535429
20
-3.4725461417322836
11
5.1332634251968505
21
-3.471718622047244
0
LINE
8
BLACK
6
CONTINUOUS
10
5.1332634251968505
20
-3.471718622047244
11
5.1212319685039365
21
-3.4667359842519683
0
LINE
8
BLACK
6
CONTINUOUS
10
5.1212319685039365
20
-3.4667359842519683
11
5.1212316929133861
21
-3.4667359448818895
0
LINE
8
BLACK
6
CONTINUOUS
10
5.1212316929133861
20
-3.4667359448818895
11
5.1212314173228348
21
-3.4667357874015745
0
LINE
8
BLACK
6
CONTINUOUS
10
5.1212314173228348
20
-3.4667357874015745
11
5.1212279921259842
21
-3.4667343700787399
0
LINE
8
BLACK
6
CONTINUOUS
10
5.1212279921259842
20
-3.4667343700787399
11
5.1189185433070863
21
-3.4655956692913383
0
LINE
8
BLACK
6
CONTINUOUS
10
5.1189185433070863
20
-3.4655956692913383
11
5.1178964566929137
21
-3.4648115354330709
0
LINE
8
BLACK
6
CONTINUOUS
10
5.1178964566929137
20
-3.4648115354330709
11
5.1167806692913382
21
-3.464167716535433
0
LINE
8
BLACK
6
CONTINUOUS
10
5.1167806692913382
20
-3.464167716535433
11
5.1148442519685036
21
-3.4624705118110235
0
LINE
8
BLACK
6
CONTINUOUS
10
5.1148442519685036
20
-3.4624705118110235
11
5.0862064566929135
21
-3.4338484645669292
0
LINE
8
BLACK
6
CONTINUOUS
10
5.0862064566929135
20
-3.4338484645669292
11
5.0862044881889759
21
-3.4338462204724407
0
LINE
8
BLACK
6
CONTINUOUS
10
5.0862044881889759
20
-3.4338462204724407
11
5.0862026377952754
21
-3.4338446062992127
0
LINE
8
BLACK
6
CONTINUOUS
10
5.0862026377952754
20
-3.4338446062992127
11
5.0746711417322832
21
-3.4223131102362205
0
LINE
8
BLACK
6
CONTINUOUS
10
5.0746711417322832
20
-3.4223131102362205
11
5.0729739370078741
21
-3.4203777952755905
0
LINE
8
BLACK
6
CONTINUOUS
10
5.0729739370078741
20
-3.4203777952755905
11
5.0729733464566928
21
-3.4203772047244092
0
LINE
8
BLACK
6
CONTINUOUS
10
5.0729733464566928
20
-3.4203772047244092
11
5.0704039370078737
21
-3.4159268503937006
0
LINE
8
BLACK
6
CONTINUOUS
10
5.0704039370078737
20
-3.4159268503937006
11
5.0697094881889759
21
-3.4133351181102363
0
LINE
8
BLACK
6
CONTINUOUS
10
5.0697094881889759
20
-3.4133351181102363
11
5.0690738976377956
21
-3.4109631102362203
0
LINE
8
BLACK
6
CONTINUOUS
10
5.0690738976377956
20
-3.4109631102362203
11
5.0690738976377956
21
-3.4109624803149607
0
LINE
8
BLACK
6
CONTINUOUS
10
5.0690738976377956
20
-3.4109624803149607
11
5.0689055118110238
21
-3.4083937007874017
0
LINE
8
BLACK
6
CONTINUOUS
10
5.0689055118110238
20
-3.4083937007874017
11
5.0689055118110238
21
-3.4002401574803147
0
LINE
8
BLACK
6
CONTINUOUS
10
5.0689055118110238
20
-3.4002401574803147
11
5.0689055118110238
21
-3.3915433070866139
0
LINE
8
BLACK
6
CONTINUOUS
10
5.0689055118110238
20
-3.3915433070866139
11
5.049889763779527
21
-3.3915433070866139
0
LINE
8
BLACK
6
CONTINUOUS
10
5.049889763779527
20
-3.3915433070866139
11
5.049889763779527
21
-3.3128031496062991
0
LINE
8
BLACK
6
CONTINUOUS
10
5.049889763779527
20
-3.3128031496062991
11
5.0601023622047245
21
-3.3128031496062991
0
LINE
8
BLACK
6
CONTINUOUS
10
5.0601023622047245
20
-3.3128031496062991
11
5.0601023622047245
21
-3.1776771653543308
0
LINE
8
BLACK
6
CONTINUOUS
10
5.0601023622047245
20
-3.1776771653543308
11
5.0601023622047245
21
-3.1775433070866139
0
LINE
8
BLACK
6
CONTINUOUS
10
5.0601023622047245
20
-3.1775433070866139
11
5.0518897637795277
21
-3.1775433070866139
0
LINE
8
BLACK
6
CONTINUOUS
10
5.0518897637795277
20
-3.1775433070866139
11
5.0518897637795277
21
-3.0988031496062991
0
LINE
8
BLACK
6
CONTINUOUS
10
5.0518897637795277
20
-3.0988031496062991
11
5.1109448818897638
21
-3.0988031496062991
0
LINE
8
BLACK
6
CONTINUOUS
10
5.1109448818897638
20
-3.0988031496062991
11
5.1109448818897638
21
-3.1775433070866139
0
LINE
8
BLACK
6
CONTINUOUS
10
5.1109448818897638
20
-3.1775433070866139
11
5.0994724409448819
21
-3.1775433070866139
0
LINE
8
BLACK
6
CONTINUOUS
10
5.0994724409448819
20
-3.1775433070866139
11
5.0994724409448819
21
-3.1776771653543308
0
LINE
8
BLACK
6
CONTINUOUS
10
5.0994724409448819
20
-3.1776771653543308
11
5.0994724409448819
21
-3.3128031496062991
0
LINE
8
BLACK
6
CONTINUOUS
10
5.0994724409448819
20
-3.3128031496062991
11
5.108944881889764
21
-3.3128031496062991
0
LINE
8
BLACK
6
CONTINUOUS
10
5.108944881889764
20
-3.3128031496062991
11
5.108944881889764
21
-3.3915433070866139
0
LINE
8
BLACK
6
CONTINUOUS
10
5.108944881889764
20
-3.3915433070866139
11
5.1082755905511812
21
-3.3915433070866139
0
LINE
8
BLACK
6
CONTINUOUS
10
5.1082755905511812
20
-3.3915433070866139
11
5.1082755905511812
21
-3.4002399212598426
0
LINE
8
BLACK
6
CONTINUOUS
10
5.1082755905511812
20
-3.4002399212598426
11
5.1140372834645671
21
-3.4060016141732281
0
LINE
8
BLACK
6
CONTINUOUS
10
5.1140372834645671
20
-3.4060016141732281
11
5.1140376377952759
21
-3.4060019291338581
0
LINE
8
BLACK
6
CONTINUOUS
10
5.1140376377952759
20
-3.4060019291338581
11
5.1399074409448815
21
-3.4318574803149606
0
LINE
8
BLACK
6
CONTINUOUS
10
5.1399074409448815
20
-3.4318574803149606
11
5.1453341732283464
21
-3.4341048818897635
0
LINE
8
BLACK
6
CONTINUOUS
10
5.1453341732283464
20
-3.4341048818897635
11
5.2280985826771653
21
-3.4396102362204726
0
LINE
8
BLACK
6
CONTINUOUS
10
5.2280985826771653
20
-3.4396102362204726
11
5.2804665354330709
21
-3.4396102362204726
0
LINE
8
BLACK
6
CONTINUOUS
10
5.2804665354330709
20
-3.4396102362204726
11
5.2873849212598421
21
-3.4367447244094489
0
LINE
8
BLACK
6
CONTINUOUS
10
5.2873849212598421
20
-3.4367447244094489
11
5.3219455118110233
21
-3.4021840944881889
0
LINE
8
BLACK
6
CONTINUOUS
10
5.3219455118110233
20
-3.4021840944881889
11
5.3260909055118111
21
-3.3921755905511812
0
LINE
8
BLACK
6
CONTINUOUS
10
5.3260909055118111
20
-3.3921755905511812
11
5.3957112992125982
21
-3.1920189763779527
0
LINE
8
BLACK
6
CONTINUOUS
10
5.3957112992125982
20
-3.1920189763779527
11
5.3980358661417318
21
-3.1827655905511811
0
LINE
8
BLACK
6
CONTINUOUS
10
5.3980358661417318
20
-3.1827655905511811
11
5.4410806299212595
21
-2.8069763385826771
0
LINE
8
BLACK
6
CONTINUOUS
10
5.4410806299212595
20
-2.8069763385826771
11
5.4415403543307086
21
-2.8044427952755906
0
LINE
8
BLACK
6
CONTINUOUS
10
5.4415403543307086
20
-2.8044427952755906
11
5.4416012992125982
21
-2.804288307086614
0
LINE
8
BLACK
6
CONTINUOUS
10
5.4416012992125982
20
-2.804288307086614
11
5.441622952755905
21
-2.8041238188976378
0
LINE
8
BLACK
6
CONTINUOUS
10
5.441622952755905
20
-2.8041238188976378
11
5.4424503543307088
21
-2.8016854330708663
0
LINE
8
BLACK
6
CONTINUOUS
10
5.4424503543307088
20
-2.8016854330708663
11
5.4438164960629916
21
-2.7983862598425198
0
LINE
8
BLACK
6
CONTINUOUS
10
5.4438164960629916
20
-2.7983862598425198
11
5.4438170472440941
21
-2.7983850393700789
0
LINE
8
BLACK
6
CONTINUOUS
10
5.4438170472440941
20
-2.7983850393700789
11
5.4438173228346454
21
-2.7983841732283463
0
LINE
8
BLACK
6
CONTINUOUS
10
5.4438173228346454
20
-2.7983841732283463
11
5.4438187007874017
21
-2.7983817716535433
0
LINE
8
BLACK
6
CONTINUOUS
10
5.4438187007874017
20
-2.7983817716535433
11
5.4449550787401577
21
-2.7960767322834643
0
LINE
8
BLACK
6
CONTINUOUS
10
5.4449550787401577
20
-2.7960767322834643
11
5.4457412204724411
21
-2.7950519291338582
0
LINE
8
BLACK
6
CONTINUOUS
10
5.4457412204724411
20
-2.7950519291338582
11
5.4463867716535432
21
-2.7939338582677165
0
LINE
8
BLACK
6
CONTINUOUS
10
5.4463867716535432
20
-2.7939338582677165
11
5.4480810236220467
21
-2.7920018503937007
0
LINE
8
BLACK
6
CONTINUOUS
10
5.4480810236220467
20
-2.7920018503937007
11
5.4480829133858268
21
-2.7919994488188977
0
LINE
8
BLACK
6
CONTINUOUS
10
5.4480829133858268
20
-2.7919994488188977
11
5.448083700787401
21
-2.7919988188976377
0
LINE
8
BLACK
6
CONTINUOUS
10
5.448083700787401
20
-2.7919988188976377
11
5.4480845275590548
21
-2.7919979133858268
0
LINE
8
BLACK
6
CONTINUOUS
10
5.4480845275590548
20
-2.7919979133858268
11
5.4798758267716536
21
-2.7602065748031497
0
LINE
8
BLACK
6
CONTINUOUS
10
5.4798758267716536
20
-2.7602065748031497
11
5.4798769291338578
21
-2.7602055905511809
0
LINE
8
BLACK
6
CONTINUOUS
10
5.4798769291338578
20
-2.7602055905511809
11
5.4798774015748029
21
-2.760205
0
LINE
8
BLACK
6
CONTINUOUS
10
5.4798774015748029
20
-2.760205
11
5.479879133858268
21
-2.7602036220472441
0
LINE
8
BLACK
6
CONTINUOUS
10
5.479879133858268
20
-2.7602036220472441
11
5.4818117716535433
21
-2.7585088188976377
0
LINE
8
BLACK
6
CONTINUOUS
10
5.4818117716535433
20
-2.7585088188976377
11
5.4829300393700784
21
-2.7578631496062993
0
LINE
8
BLACK
6
CONTINUOUS
10
5.4829300393700784
20
-2.7578631496062993
11
5.4839546850393699
21
-2.7570771259842517
0
LINE
8
BLACK
6
CONTINUOUS
10
5.4839546850393699
20
-2.7570771259842517
11
5.4862599606299209
21
-2.7559405905511811
0
LINE
8
BLACK
6
CONTINUOUS
10
5.4862599606299209
20
-2.7559405905511811
11
5.4862621259842514
21
-2.7559393700787402
0
LINE
8
BLACK
6
CONTINUOUS
10
5.4862621259842514
20
-2.7559393700787402
11
5.4862629133858265
21
-2.7559391338582677
0
LINE
8
BLACK
6
CONTINUOUS
10
5.4862629133858265
20
-2.7559391338582677
11
5.4862641732283466
21
-2.7559385433070864
0
LINE
8
BLACK
6
CONTINUOUS
10
5.4862641732283466
20
-2.7559385433070864
11
5.4895633858267718
21
-2.7545724015748032
0
LINE
8
BLACK
6
CONTINUOUS
10
5.4895633858267718
20
-2.7545724015748032
11
5.4919342125984247
21
-2.7537679133858268
0
LINE
8
BLACK
6
CONTINUOUS
10
5.4919342125984247
20
-2.7537679133858268
11
5.4919664960629921
21
-2.7537544881889762
0
LINE
8
BLACK
6
CONTINUOUS
10
5.4919664960629921
20
-2.7537544881889762
11
5.4919843700787396
21
-2.7537508661417323
0
LINE
8
BLACK
6
CONTINUOUS
10
5.4919843700787396
20
-2.7537508661417323
11
5.492001771653543
21
-2.7537449999999999
0
LINE
8
BLACK
6
CONTINUOUS
10
5.492001771653543
20
-2.7537449999999999
11
5.4920365354330709
21
-2.7537403937007872
0
LINE
8
BLACK
6
CONTINUOUS
10
5.4920365354330709
20
-2.7537403937007872
11
5.4944910629921262
21
-2.7532477165354332
0
LINE
8
BLACK
6
CONTINUOUS
10
5.4944910629921262
20
-2.7532477165354332
11
5.5119449606299211
21
-2.7509188582677164
0
LINE
8
BLACK
6
CONTINUOUS
10
5.5119449606299211
20
-2.7509188582677164
11
5.5120709055118109
21
-2.7502857480314962
0
LINE
8
BLACK
6
CONTINUOUS
10
5.5120709055118109
20
-2.7502857480314962
11
5.5145813779527559
21
-2.7442249212598426
0
LINE
8
BLACK
6
CONTINUOUS
10
5.5145813779527559
20
-2.7442249212598426
11
5.5182260236220468
21
-2.7387703149606297
0
LINE
8
BLACK
6
CONTINUOUS
10
5.5182260236220468
20
-2.7387703149606297
11
5.5228648031496066
21
-2.7341315354330709
0
LINE
8
BLACK
6
CONTINUOUS
10
5.5228648031496066
20
-2.7341315354330709
11
5.5283194094488186
21
-2.7304868897637795
0
LINE
8
BLACK
6
CONTINUOUS
10
5.5283194094488186
20
-2.7304868897637795
11
5.5343802362204721
21
-2.7279764173228345
0
LINE
8
BLACK
6
CONTINUOUS
10
5.5343802362204721
20
-2.7279764173228345
11
5.5408143700787402
21
-2.7266965748031495
0
LINE
8
BLACK
6
CONTINUOUS
10
5.5408143700787402
20
-2.7266965748031495
11
5.5440944881889767
21
-2.726535433070866
0
LINE
8
BLACK
6
CONTINUOUS
10
5.5440944881889767
20
-2.726535433070866
11
5.5559055118110239
21
-2.726535433070866
0
LINE
8
BLACK
6
CONTINUOUS
10
5.5559055118110239
20
-2.726535433070866
11
5.5591856299212594
21
-2.7266965748031495
0
LINE
8
BLACK
6
CONTINUOUS
10
5.5591856299212594
20
-2.7266965748031495
11
5.5656197637795275
21
-2.7279764173228345
0
LINE
8
BLACK
6
CONTINUOUS
10
5.5656197637795275
20
-2.7279764173228345
11
5.571680590551181
21
-2.7304868897637795
0
LINE
8
BLACK
6
CONTINUOUS
10
5.571680590551181
20
-2.7304868897637795
11
5.5771351968503939
21
-2.7341315354330709
0
LINE
8
BLACK
6
CONTINUOUS
10
5.5771351968503939
20
-2.7341315354330709
11
5.5817739763779528
21
-2.7387703149606297
0
LINE
8
BLACK
6
CONTINUOUS
10
5.5817739763779528
20
-2.7387703149606297
11
5.5854186220472437
21
-2.7442249212598426
0
LINE
8
BLACK
6
CONTINUOUS
10
5.5854186220472437
20
-2.7442249212598426
11
5.5860549606299212
21
-2.7457612204724411
0
LINE
8
BLACK
6
CONTINUOUS
10
5.5860549606299212
20
-2.7457612204724411
11
5.8278848818897639
21
-2.7476803937007874
0
LINE
8
BLACK
6
CONTINUOUS
10
5.8278848818897639
20
-2.7476803937007874
11
5.8296141732283466
21
-2.7442864960629922
0
LINE
8
BLACK
6
CONTINUOUS
10
5.8296141732283466
20
-2.7442864960629922
11
5.8341532677165349
21
-2.7380389763779527
0
LINE
8
BLACK
6
CONTINUOUS
10
5.8341532677165349
20
-2.7380389763779527
11
5.8396137795275589
21
-2.7325784645669291
0
LINE
8
BLACK
6
CONTINUOUS
10
5.8396137795275589
20
-2.7325784645669291
11
5.845861299212598
21
-2.72803937007874
0
LINE
8
BLACK
6
CONTINUOUS
10
5.845861299212598
20
-2.72803937007874
11
5.8527419685039366
21
-2.7245335039370078
0
LINE
8
BLACK
6
CONTINUOUS
10
5.8527419685039366
20
-2.7245335039370078
11
5.8600863385826774
21
-2.7221471653543308
0
LINE
8
BLACK
6
CONTINUOUS
10
5.8600863385826774
20
-2.7221471653543308
11
5.8677136220472441
21
-2.7209390944881888
0
LINE
8
BLACK
6
CONTINUOUS
10
5.8677136220472441
20
-2.7209390944881888
11
5.8754359842519683
21
-2.7209390944881888
0
LINE
8
BLACK
6
CONTINUOUS
10
5.8754359842519683
20
-2.7209390944881888
11
5.8830632677165351
21
-2.7221471653543308
0
LINE
8
BLACK
6
CONTINUOUS
10
5.2114285433070862
20
-2.8923251968503938
11
5.2185589370078738
21
-2.8952787007874017
0
LINE
8
BLACK
6
CONTINUOUS
10
5.2185589370078738
20
-2.8952787007874017
11
5.2249761023622048
21
-2.8995665354330709
0
LINE
8
BLACK
6
CONTINUOUS
10
5.2249761023622048
20
-2.8995665354330709
11
5.2304334645669286
21
-2.9050238976377951
0
LINE
8
BLACK
6
CONTINUOUS
10
5.2304334645669286
20
-2.9050238976377951
11
5.2347212992125982
21
-2.9114410629921261
0
LINE
8
BLACK
6
CONTINUOUS
10
5.2347212992125982
20
-2.9114410629921261
11
5.2376748031496065
21
-2.9185714566929133
0
LINE
8
BLACK
6
CONTINUOUS
10
5.2376748031496065
20
-2.9185714566929133
11
5.2391805118110231
21
-2.9261410629921261
0
LINE
8
BLACK
6
CONTINUOUS
10
5.2391805118110231
20
-2.9261410629921261
11
5.2391805118110231
21
-2.9338589370078738
0
LINE
8
BLACK
6
CONTINUOUS
10
5.2391805118110231
20
-2.9338589370078738
11
5.2376748031496065
21
-2.9414285433070866
0
LINE
8
BLACK
6
CONTINUOUS
10
5.2376748031496065
20
-2.9414285433070866
11
5.2347212992125982
21
-2.9485589370078737
0
LINE
8
BLACK
6
CONTINUOUS
10
5.2347212992125982
20
-2.9485589370078737
11
5.2304334645669286
21
-2.9549761023622048
0
LINE
8
BLACK
6
CONTINUOUS
10
5.2304334645669286
20
-2.9549761023622048
11
5.2255761811023618
21
-2.9598333464566928
0
LINE
8
BLACK
6
CONTINUOUS
10
5.2255761811023618
20
-2.9598333464566928
11
5.2698226771653545
21
-3.0959098818897637
0
LINE
8
BLACK
6
CONTINUOUS
10
5.2698226771653545
20
-3.0959098818897637
11
5.2700296456692914
21
-3.0967241732283464
0
LINE
8
BLACK
6
CONTINUOUS
10
5.2700296456692914
20
-3.0967241732283464
11
5.2701273622047244
21
-3.0969723228346457
0
LINE
8
BLACK
6
CONTINUOUS
10
5.2701273622047244
20
-3.0969723228346457
11
5.2702123622047239
21
-3.0974429527559053
0
LINE
8
BLACK
6
CONTINUOUS
10
5.2702123622047239
20
-3.0974429527559053
11
5.2703301574803145
21
-3.0979062992125983
0
LINE
8
BLACK
6
CONTINUOUS
10
5.2703301574803145
20
-3.0979062992125983
11
5.2703441338582673
21
-3.0981724803149606
0
LINE
8
BLACK
6
CONTINUOUS
10
5.2703441338582673
20
-3.0981724803149606
11
5.2704935433070865
21
-3.0989994094488189
0
LINE
8
BLACK
6
CONTINUOUS
10
5.2704935433070865
20
-3.0989994094488189
11
5.2707870472440943
21
-3.1015794094488189
0
LINE
8
BLACK
6
CONTINUOUS
10
5.2707870472440943
20
-3.1015794094488189
11
5.2725018897637792
21
-3.1022897244094487
0
LINE
8
BLACK
6
CONTINUOUS
10
5.2725018897637792
20
-3.1022897244094487
11
5.2773147637795272
21
-3.1055055905511812
0
LINE
8
BLACK
6
CONTINUOUS
10
5.2773147637795272
20
-3.1055055905511812
11
5.28140779527559
21
-3.109598622047244
0
LINE
8
BLACK
6
CONTINUOUS
10
5.28140779527559
20
-3.109598622047244
11
5.2846236614173225
21
-3.1144114960629921
0
LINE
8
BLACK
6
CONTINUOUS
10
5.2846236614173225
20
-3.1144114960629921
11
5.2868387795275593
21
-3.1197592913385828
0
LINE
8
BLACK
6
CONTINUOUS
10
5.2868387795275593
20
-3.1197592913385828
11
5.2879680708661416
21
-3.1254364960629921
0
LINE
8
BLACK
6
CONTINUOUS
10
5.2879680708661416
20
-3.1254364960629921
11
5.2881102362204722
21
-3.1283307086614172
0
LINE
8
BLACK
6
CONTINUOUS
10
5.2881102362204722
20
-3.1283307086614172
11
5.2881102362204722
21
-3.1480157480314959
0
LINE
8
BLACK
6
CONTINUOUS
10
5.2881102362204722
20
-3.1480157480314959
11
5.2879680708661416
21
-3.1509099606299213
0
LINE
8
BLACK
6
CONTINUOUS
10
5.2879680708661416
20
-3.1509099606299213
11
5.2868387795275593
21
-3.1565871653543307
0
LINE
8
BLACK
6
CONTINUOUS
10
5.2868387795275593
20
-3.1565871653543307
11
5.2846236614173225
21
-3.1619349606299214
0
LINE
8
BLACK
6
CONTINUOUS
10
5.2846236614173225
20
-3.1619349606299214
11
5.28140779527559
21
-3.166747834645669
0
LINE
8
BLACK
6
CONTINUOUS
10
5.28140779527559
20
-3.166747834645669
11
5.2773147637795272
21
-3.1708408661417322
0
LINE
8
BLACK
6
CONTINUOUS
10
5.2773147637795272
20
-3.1708408661417322
11
5.2725018897637792
21
-3.1740567322834643
0
LINE
8
BLACK
6
CONTINUOUS
10
5.2725018897637792
20
-3.1740567322834643
11
5.2708190157480317
21
-3.1747537795275589
0
LINE
8
BLACK
6
CONTINUOUS
10
5.2708190157480317
20
-3.1747537795275589
11
5.2704935433070865
21
-3.1776147637795273
0
LINE
8
BLACK
6
CONTINUOUS
10
5.2704935433070865
20
-3.1776147637795273
11
5.2701273622047244
21
-3.1796418503937005
0
LINE
8
BLACK
6
CONTINUOUS
10
5.2701273622047244
20
-3.1796418503937005
11
5.2700758267716532
21
-3.1797726377952755
0
LINE
8
BLACK
6
CONTINUOUS
10
5.2700758267716532
20
-3.1797726377952755
11
5.2700575196850394
21
-3.1799118897637793
0
LINE
8
BLACK
6
CONTINUOUS
10
5.2700575196850394
20
-3.1799118897637793
11
5.2693951968503931
21
-3.1818624409448817
0
LINE
8
BLACK
6
CONTINUOUS
10
5.2693951968503931
20
-3.1818624409448817
11
5.2641314173228348
21
-3.1945671653543308
0
LINE
8
BLACK
6
CONTINUOUS
10
5.2641314173228348
20
-3.1945671653543308
11
5.2640577952755905
21
-3.1947164173228346
0
LINE
8
BLACK
6
CONTINUOUS
10
5.2640577952755905
20
-3.1947164173228346
11
5.2640363779527561
21
-3.194791653543307
0
LINE
8
BLACK
6
CONTINUOUS
10
5.2640363779527561
20
-3.194791653543307
11
5.2636219291338584
21
-3.1956000393700785
0
LINE
8
BLACK
6
CONTINUOUS
10
5.2636219291338584
20
-3.1956000393700785
11
5.2632201968503933
21
-3.1964145669291337
0
LINE
8
BLACK
6
CONTINUOUS
10
5.2632201968503933
20
-3.1964145669291337
11
5.2631725590551177
21
-3.1964765748031496
0
LINE
8
BLACK
6
CONTINUOUS
10
5.2631725590551177
20
-3.1964765748031496
11
5.2630966535433066
21
-3.1966247244094488
0
LINE
8
BLACK
6
CONTINUOUS
10
5.2630966535433066
20
-3.1966247244094488
11
5.1906382283464563
21
-3.3177323622047243
0
LINE
8
BLACK
6
CONTINUOUS
10
5.1906382283464563
20
-3.3177323622047243
11
5.1892051574803144
21
-3.3211912598425197
0
LINE
8
BLACK
6
CONTINUOUS
10
5.1892051574803144
20
-3.3211912598425197
11
5.1916125196850391
21
-3.323598622047244
0
LINE
8
BLACK
6
CONTINUOUS
10
5.1916125196850391
20
-3.323598622047244
11
5.1948283858267716
21
-3.328411496062992
0
LINE
8
BLACK
6
CONTINUOUS
10
5.1948283858267716
20
-3.328411496062992
11
5.1970435039370075
21
-3.3337592913385827
0
LINE
8
BLACK
6
CONTINUOUS
10
5.1970435039370075
20
-3.3337592913385827
11
5.1981727952755907
21
-3.3394364960629921
0
LINE
8
BLACK
6
CONTINUOUS
10
5.1981727952755907
20
-3.3394364960629921
11
5.1983149606299213
21
-3.3423307086614171
0
LINE
8
BLACK
6
CONTINUOUS
10
5.1983149606299213
20
-3.3423307086614171
11
5.1983149606299213
21
-3.3620157480314958
0
LINE
8
BLACK
6
CONTINUOUS
10
5.1983149606299213
20
-3.3620157480314958
11
5.1981727952755907
21
-3.3649099606299213
0
LINE
8
BLACK
6
CONTINUOUS
10
5.1981727952755907
20
-3.3649099606299213
11
5.1970435039370075
21
-3.3705871653543307
0
LINE
8
BLACK
6
CONTINUOUS
10
5.1970435039370075
20
-3.3705871653543307
11
5.1948283858267716
21
-3.3759349606299214
0
LINE
8
BLACK
6
CONTINUOUS
10
5.1948283858267716
20
-3.3759349606299214
11
5.1916125196850391
21
-3.3807478346456694
0
LINE
8
BLACK
6
CONTINUOUS
10
5.1916125196850391
20
-3.3807478346456694
11
5.1875194881889763
21
-3.3848408661417322
0
LINE
8
BLACK
6
CONTINUOUS
10
5.1875194881889763
20
-3.3848408661417322
11
5.1827066141732283
21
-3.3880567322834647
0
LINE
8
BLACK
6
CONTINUOUS
10
5.1827066141732283
20
-3.3880567322834647
11
5.1773588188976376
21
-3.3902718503937006
0
LINE
8
BLACK
6
CONTINUOUS
10
5.1773588188976376
20
-3.3902718503937006
11
5.1716816141732282
21
-3.3914011417322834
0
LINE
8
BLACK
6
CONTINUOUS
10
5.1716816141732282
20
-3.3914011417322834
11
5.1658931889763782
21
-3.3914011417322834
0
LINE
8
BLACK
6
CONTINUOUS
10
5.1658931889763782
20
-3.3914011417322834
11
5.1602159842519688
21
-3.3902718503937006
0
LINE
8
BLACK
6
CONTINUOUS
10
5.1602159842519688
20
-3.3902718503937006
11
5.1548681889763781
21
-3.3880567322834647
0
LINE
8
BLACK
6
CONTINUOUS
10
5.1548681889763781
20
-3.3880567322834647
11
5.1500553149606301
21
-3.3848408661417322
0
LINE
8
BLACK
6
CONTINUOUS
10
5.1500553149606301
20
-3.3848408661417322
11
5.1459622834645664
21
-3.3807478346456694
0
LINE
8
BLACK
6
CONTINUOUS
10
5.1459622834645664
20
-3.3807478346456694
11
5.1427464173228348
21
-3.3759349606299214
0
LINE
8
BLACK
6
CONTINUOUS
10
5.1427464173228348
20
-3.3759349606299214
11
5.140531299212598
21
-3.3705871653543307
0
LINE
8
BLACK
6
CONTINUOUS
10
5.140531299212598
20
-3.3705871653543307
11
5.1394020078740157
21
-3.3649099606299213
0
LINE
8
BLACK
6
CONTINUOUS
10
5.1394020078740157
20
-3.3649099606299213
11
5.1392598425196852
21
-3.3620157480314958
0
LINE
8
BLACK
6
CONTINUOUS
10
5.1392598425196852
20
-3.3620157480314958
11
5.1392598425196852
21
-3.3423307086614171
0
LINE
8
BLACK
6
CONTINUOUS
10
5.1392598425196852
20
-3.3423307086614171
11
5.1394020078740157
21
-3.3394364960629921
0
LINE
8
BLACK
6
CONTINUOUS
10
5.1394020078740157
20
-3.3394364960629921
11
5.140531299212598
21
-3.3337592913385827
0
LINE
8
BLACK
6
CONTINUOUS
10
5.140531299212598
20
-3.3337592913385827
11
5.1427464173228348
21
-3.328411496062992
0
LINE
8
BLACK
6
CONTINUOUS
10
5.1427464173228348
20
-3.328411496062992
11
5.1459622834645664
21
-3.323598622047244
0
LINE
8
BLACK
6
CONTINUOUS
10
5.1459622834645664
20
-3.323598622047244
11
5.1500553149606301
21
-3.3195055905511812
0
LINE
8
BLACK
6
CONTINUOUS
10
5.1500553149606301
20
-3.3195055905511812
11
5.1548681889763781
21
-3.3162897244094487
0
LINE
8
BLACK
6
CONTINUOUS
10
5.1548681889763781
20
-3.3162897244094487
11
5.1576150393700786
21
-3.315151929133858
0
LINE
8
BLACK
6
CONTINUOUS
10
5.1576150393700786
20
-3.315151929133858
11
5.1619827559055116
21
-3.3046099999999998
0
LINE
8
BLACK
6
CONTINUOUS
10
5.1619827559055116
20
-3.3046099999999998
11
5.1620563385826772
21
-3.3044607086614173
0
LINE
8
BLACK
6
CONTINUOUS
10
5.1620563385826772
20
-3.3044607086614173
11
5.1620777952755903
21
-3.3043855118110237
0
LINE
8
BLACK
6
CONTINUOUS
10
5.1620777952755903
20
-3.3043855118110237
11
5.1624922047244093
21
-3.3035770866141734
0
LINE
8
BLACK
6
CONTINUOUS
10
5.1624922047244093
20
-3.3035770866141734
11
5.1628939763779522
21
-3.3027625984251969
0
LINE
8
BLACK
6
CONTINUOUS
10
5.1628939763779522
20
-3.3027625984251969
11
5.1629415748031491
21
-3.3027005511811023
0
LINE
8
BLACK
6
CONTINUOUS
10
5.1629415748031491
20
-3.3027005511811023
11
5.163017519685039
21
-3.3025524409448819
0
LINE
8
BLACK
6
CONTINUOUS
10
5.163017519685039
20
-3.3025524409448819
11
5.2354758661417318
21
-3.1814448425196851
0
LINE
8
BLACK
6
CONTINUOUS
10
5.2354758661417318
20
-3.1814448425196851
11
5.2394497637795272
21
-3.1718534251968502
0
LINE
8
BLACK
6
CONTINUOUS
10
5.2394497637795272
20
-3.1718534251968502
11
5.2395941338582679
21
-3.1705844094488187
0
LINE
8
BLACK
6
CONTINUOUS
10
5.2395941338582679
20
-3.1705844094488187
11
5.2357575590551182
21
-3.166747834645669
0
LINE
8
BLACK
6
CONTINUOUS
10
5.2357575590551182
20
-3.166747834645669
11
5.2325416929133857
21
-3.1619349606299214
0
LINE
8
BLACK
6
CONTINUOUS
10
5.2325416929133857
20
-3.1619349606299214
11
5.2303265748031498
21
-3.1565871653543307
0
LINE
8
BLACK
6
CONTINUOUS
10
5.2303265748031498
20
-3.1565871653543307
11
5.2291972834645666
21
-3.1509099606299213
0
LINE
8
BLACK
6
CONTINUOUS
10
5.2291972834645666
20
-3.1509099606299213
11
5.229055118110236
21
-3.1480157480314959
0
LINE
8
BLACK
6
CONTINUOUS
10
5.229055118110236
20
-3.1480157480314959
11
5.229055118110236
21
-3.1283307086614172
0
LINE
8
BLACK
6
CONTINUOUS
10
5.229055118110236
20
-3.1283307086614172
11
5.2291972834645666
21
-3.1254364960629921
0
LINE
8
BLACK
6
CONTINUOUS
10
5.2291972834645666
20
-3.1254364960629921
11
5.2303265748031498
21
-3.1197592913385828
0
LINE
8
BLACK
6
CONTINUOUS
10
5.2303265748031498
20
-3.1197592913385828
11
5.2325416929133857
21
-3.1144114960629921
0
LINE
8
BLACK
6
CONTINUOUS
10
5.2325416929133857
20
-3.1144114960629921
11
5.2357575590551182
21
-3.109598622047244
0
LINE
8
BLACK
6
CONTINUOUS
10
5.2357575590551182
20
-3.109598622047244
11
5.2395667716535428
21
-3.1057893700787402
0
LINE
8
BLACK
6
CONTINUOUS
10
5.2395667716535428
20
-3.1057893700787402
11
5.2393789370078743
21
-3.1041383070866142
0
LINE
8
BLACK
6
CONTINUOUS
10
5.2393789370078743
20
-3.1041383070866142
11
5.1954516535433068
21
-2.9690433464566928
0
LINE
8
BLACK
6
CONTINUOUS
10
5.1954516535433068
20
-2.9690433464566928
11
5.1885714566929133
21
-2.9676748031496061
0
LINE
8
BLACK
6
CONTINUOUS
10
5.1885714566929133
20
-2.9676748031496061
11
5.1814410629921257
21
-2.9647212992125982
0
LINE
8
BLACK
6
CONTINUOUS
10
5.1814410629921257
20
-2.9647212992125982
11
5.1750238976377956
21
-2.960433464566929
0
LINE
8
BLACK
6
CONTINUOUS
10
5.1750238976377956
20
-2.960433464566929
11
5.1695665354330709
21
-2.9549761023622048
0
LINE
8
BLACK
6
CONTINUOUS
10
5.1695665354330709
20
-2.9549761023622048
11
5.1652787007874013
21
-2.9485589370078737
0
LINE
8
BLACK
6
CONTINUOUS
10
5.1652787007874013
20
-2.9485589370078737
11
5.1623251968503938
21
-2.9414285433070866
0
LINE
8
BLACK
6
CONTINUOUS
10
5.1623251968503938
20
-2.9414285433070866
11
5.1608194881889764
21
-2.9338589370078738
0
LINE
8
BLACK
6
CONTINUOUS
10
5.1608194881889764
20
-2.9338589370078738
11
5.1608194881889764
21
-2.9261410629921261
0
LINE
8
BLACK
6
CONTINUOUS
10
5.1608194881889764
20
-2.9261410629921261
11
5.1623251968503938
21
-2.9185714566929133
0
LINE
8
BLACK
6
CONTINUOUS
10
5.1623251968503938
20
-2.9185714566929133
11
5.1652787007874013
21
-2.9114410629921261
0
LINE
8
BLACK
6
CONTINUOUS
10
5.1652787007874013
20
-2.9114410629921261
11
5.1695665354330709
21
-2.9050238976377951
0
LINE
8
BLACK
6
CONTINUOUS
10
5.1695665354330709
20
-2.9050238976377951
11
5.1750238976377956
21
-2.8995665354330709
0
LINE
8
BLACK
6
CONTINUOUS
10
5.1750238976377956
20
-2.8995665354330709
11
5.1814410629921257
21
-2.8952787007874017
0
LINE
8
BLACK
6
CONTINUOUS
10
5.1814410629921257
20
-2.8952787007874017
11
5.1885714566929133
21
-2.8923251968503938
0
LINE
8
BLACK
6
CONTINUOUS
10
5.1885714566929133
20
-2.8923251968503938
11
5.1961410629921261
21
-2.8908194881889764
0
LINE
8
BLACK
6
CONTINUOUS
10
5.1961410629921261
20
-2.8908194881889764
11
5.2038589370078743
21
-2.8908194881889764
0
LINE
8
BLACK
6
CONTINUOUS
10
5.2038589370078743
20
-2.8908194881889764
11
5.2114285433070862
21
-2.8923251968503938
0
LINE
8
BLACK
6
CONTINUOUS
10
5.3614285433070865
20
-2.8923251968503938
11
5.3685589370078741
21
-2.8952787007874017
0
LINE
8
BLACK
6
CONTINUOUS
10
5.3685589370078741
20
-2.8952787007874017
11
5.3749761023622042
21
-2.8995665354330709
0
LINE
8
BLACK
6
CONTINUOUS
10
5.3749761023622042
20
-2.8995665354330709
11
5.3804334645669289
21
-2.9050238976377951
0
LINE
8
BLACK
6
CONTINUOUS
10
5.3804334645669289
20
-2.9050238976377951
11
5.3847212992125986
21
-2.9114410629921261
0
LINE
8
BLACK
6
CONTINUOUS
10
5.3847212992125986
20
-2.9114410629921261
11
5.387674803149606
21
-2.9185714566929133
0
LINE
8
BLACK
6
CONTINUOUS
10
5.387674803149606
20
-2.9185714566929133
11
5.3891805118110234
21
-2.9261410629921261
0
LINE
8
BLACK
6
CONTINUOUS
10
5.3891805118110234
20
-2.9261410629921261
11
5.3891805118110234
21
-2.9338589370078738
0
LINE
8
BLACK
6
CONTINUOUS
10
5.3891805118110234
20
-2.9338589370078738
11
5.387674803149606
21
-2.9414285433070866
0
LINE
8
BLACK
6
CONTINUOUS
10
5.387674803149606
20
-2.9414285433070866
11
5.3847212992125986
21
-2.9485589370078737
0
LINE
8
BLACK
6
CONTINUOUS
10
5.3847212992125986
20
-2.9485589370078737
11
5.3804334645669289
21
-2.9549761023622048
0
LINE
8
BLACK
6
CONTINUOUS
10
5.3804334645669289
20
-2.9549761023622048
11
5.3749761023622042
21
-2.960433464566929
0
LINE
8
BLACK
6
CONTINUOUS
10
5.3749761023622042
20
-2.960433464566929
11
5.3685589370078741
21
-2.9647212992125982
0
LINE
8
BLACK
6
CONTINUOUS
10
5.3685589370078741
20
-2.9647212992125982
11
5.3614285433070865
21
-2.9676748031496061
0
LINE
8
BLACK
6
CONTINUOUS
10
5.3614285433070865
20
-2.9676748031496061
11
5.3593255511811027
21
-2.9680931102362202
0
LINE
8
BLACK
6
CONTINUOUS
10
5.3593255511811027
20
-2.9680931102362202
11
5.3583896062992125
21
-3.175905590551181
0
LINE
8
BLACK
6
CONTINUOUS
10
5.3583896062992125
20
-3.175905590551181
11
5.3582456299212593
21
-3.1779604724409447
0
LINE
8
BLACK
6
CONTINUOUS
10
5.3582456299212593
20
-3.1779604724409447
11
5.3579830708661413
21
-3.1789229527559053
0
LINE
8
BLACK
6
CONTINUOUS
10
5.3579830708661413
20
-3.1789229527559053
11
5.3578527952755906
21
-3.1799118897637793
0
LINE
8
BLACK
6
CONTINUOUS
10
5.3578527952755906
20
-3.1799118897637793
11
5.3571904724409452
21
-3.1818624409448817
0
LINE
8
BLACK
6
CONTINUOUS
10
5.3571904724409452
20
-3.1818624409448817
11
5.351926692913386
21
-3.1945671653543308
0
LINE
8
BLACK
6
CONTINUOUS
10
5.351926692913386
20
-3.1945671653543308
11
5.3516761023622044
21
-3.1950751574803147
0
LINE
8
BLACK
6
CONTINUOUS
10
5.3516761023622044
20
-3.1950751574803147
11
5.3514557874015747
21
-3.1955973622047242
0
LINE
8
BLACK
6
CONTINUOUS
10
5.3514557874015747
20
-3.1955973622047242
11
5.2836392519685038
21
-3.330863346456693
0
LINE
8
BLACK
6
CONTINUOUS
10
5.2836392519685038
20
-3.330863346456693
11
5.2848387795275586
21
-3.3337592913385827
0
LINE
8
BLACK
6
CONTINUOUS
10
5.2848387795275586
20
-3.3337592913385827
11
5.2859680708661418
21
-3.3394364960629921
0
LINE
8
BLACK
6
CONTINUOUS
10
5.2859680708661418
20
-3.3394364960629921
11
5.2861102362204724
21
-3.3423307086614171
0
LINE
8
BLACK
6
CONTINUOUS
10
5.2861102362204724
20
-3.3423307086614171
11
5.2861102362204724
21
-3.3620157480314958
0
LINE
8
BLACK
6
CONTINUOUS
10
5.2861102362204724
20
-3.3620157480314958
11
5.2859680708661418
21
-3.3649099606299213
0
LINE
8
BLACK
6
CONTINUOUS
10
5.2859680708661418
20
-3.3649099606299213
11
5.2848387795275586
21
-3.3705871653543307
0
LINE
8
BLACK
6
CONTINUOUS
10
5.2848387795275586
20
-3.3705871653543307
11
5.2826236614173228
21
-3.3759349606299214
0
LINE
8
BLACK
6
CONTINUOUS
10
5.2826236614173228
20
-3.3759349606299214
11
5.2794077952755902
21
-3.3807478346456694
0
LINE
8
BLACK
6
CONTINUOUS
10
5.2794077952755902
20
-3.3807478346456694
11
5.2753147637795275
21
-3.3848408661417322
0
LINE
8
BLACK
6
CONTINUOUS
10
5.2753147637795275
20
-3.3848408661417322
11
5.2705018897637794
21
-3.3880567322834647
0
LINE
8
BLACK
6
CONTINUOUS
10
5.2705018897637794
20
-3.3880567322834647
11
5.2651540944881887
21
-3.3902718503937006
0
LINE
8
BLACK
6
CONTINUOUS
10
5.2651540944881887
20
-3.3902718503937006
11
5.2594768897637794
21
-3.3914011417322834
0
LINE
8
BLACK
6
CONTINUOUS
10
5.2594768897637794
20
-3.3914011417322834
11
5.2536884645669293
21
-3.3914011417322834
0
LINE
8
BLACK
6
CONTINUOUS
10
5.2536884645669293
20
-3.3914011417322834
11
5.2480112598425199
21
-3.3902718503937006
0
LINE
8
BLACK
6
CONTINUOUS
10
5.2480112598425199
20
-3.3902718503937006
11
5.2426634645669292
21
-3.3880567322834647
0
LINE
8
BLACK
6
CONTINUOUS
10
5.2426634645669292
20
-3.3880567322834647
11
5.2378505905511812
21
-3.3848408661417322
0
LINE
8
BLACK
6
CONTINUOUS
10
5.2378505905511812
20
-3.3848408661417322
11
5.2337575590551184
21
-3.3807478346456694
0
LINE
8
BLACK
6
CONTINUOUS
10
5.2337575590551184
20
-3.3807478346456694
11
5.2305416929133859
21
-3.3759349606299214
0
LINE
8
BLACK
6
CONTINUOUS
10
5.2305416929133859
20
-3.3759349606299214
11
5.2283265748031491
21
-3.3705871653543307
0
LINE
8
BLACK
6
CONTINUOUS
10
5.2283265748031491
20
-3.3705871653543307
11
5.2271972834645668
21
-3.3649099606299213
0
LINE
8
BLACK
6
CONTINUOUS
10
5.2271972834645668
20
-3.3649099606299213
11
5.2270551181102363
21
-3.3620157480314958
0
LINE
8
BLACK
6
CONTINUOUS
10
5.2270551181102363
20
-3.3620157480314958
11
5.2270551181102363
21
-3.3423307086614171
0
LINE
8
BLACK
6
CONTINUOUS
10
5.2270551181102363
20
-3.3423307086614171
11
5.2271972834645668
21
-3.3394364960629921
0
LINE
8
BLACK
6
CONTINUOUS
10
5.2271972834645668
20
-3.3394364960629921
11
5.2283265748031491
21
-3.3337592913385827
0
LINE
8
BLACK
6
CONTINUOUS
10
5.2283265748031491
20
-3.3337592913385827
11
5.2305416929133859
21
-3.328411496062992
0
LINE
8
BLACK
6
CONTINUOUS
10
5.2305416929133859
20
-3.328411496062992
11
5.2337575590551184
21
-3.323598622047244
0
LINE
8
BLACK
6
CONTINUOUS
10
5.2337575590551184
20
-3.323598622047244
11
5.2378505905511812
21
-3.3195055905511812
0
LINE
8
BLACK
6
CONTINUOUS
10
5.2378505905511812
20
-3.3195055905511812
11
5.2426634645669292
21
-3.3162897244094487
0
LINE
8
BLACK
6
CONTINUOUS
10
5.2426634645669292
20
-3.3162897244094487
11
5.2480112598425199
21
-3.3140746062992124
0
LINE
8
BLACK
6
CONTINUOUS
10
5.2480112598425199
20
-3.3140746062992124
11
5.2536884645669293
21
-3.31294531496063
0
LINE
8
BLACK
6
CONTINUOUS
10
5.2536884645669293
20
-3.31294531496063
11
5.2573897637795275
21
-3.31294531496063
0
LINE
8
BLACK
6
CONTINUOUS
10
5.2573897637795275
20
-3.31294531496063
11
5.3230462204724409
21
-3.1819877559055119
0
LINE
8
BLACK
6
CONTINUOUS
10
5.3230462204724409
20
-3.1819877559055119
11
5.3269077952755906
21
-3.1726674015748029
0
LINE
8
BLACK
6
CONTINUOUS
10
5.3269077952755906
20
-3.1726674015748029
11
5.3278551574803146
21
-2.9623252362204724
0
LINE
8
BLACK
6
CONTINUOUS
10
5.3278551574803146
20
-2.9623252362204724
11
5.325023897637795
21
-2.960433464566929
0
LINE
8
BLACK
6
CONTINUOUS
10
5.325023897637795
20
-2.960433464566929
11
5.3195665354330703
21
-2.9549761023622048
0
LINE
8
BLACK
6
CONTINUOUS
10
5.3195665354330703
20
-2.9549761023622048
11
5.3152787007874016
21
-2.9485589370078737
0
LINE
8
BLACK
6
CONTINUOUS
10
5.3152787007874016
20
-2.9485589370078737
11
5.3123251968503933
21
-2.9414285433070866
0
LINE
8
BLACK
6
CONTINUOUS
10
5.3123251968503933
20
-2.9414285433070866
11
5.3108194881889759
21
-2.9338589370078738
0
LINE
8
BLACK
6
CONTINUOUS
10
5.3108194881889759
20
-2.9338589370078738
11
5.3108194881889759
21
-2.9261410629921261
0
LINE
8
BLACK
6
CONTINUOUS
10
5.3108194881889759
20
-2.9261410629921261
11
5.3123251968503933
21
-2.9185714566929133
0
LINE
8
BLACK
6
CONTINUOUS
10
5.3123251968503933
20
-2.9185714566929133
11
5.3152787007874016
21
-2.9114410629921261
0
LINE
8
BLACK
6
CONTINUOUS
10
5.3152787007874016
20
-2.9114410629921261
11
5.3195665354330703
21
-2.9050238976377951
0
LINE
8
BLACK
6
CONTINUOUS
10
5.3195665354330703
20
-2.9050238976377951
11
5.325023897637795
21
-2.8995665354330709
0
LINE
8
BLACK
6
CONTINUOUS
10
5.325023897637795
20
-2.8995665354330709
11
5.3314410629921261
21
-2.8952787007874017
0
LINE
8
BLACK
6
CONTINUOUS
10
5.3314410629921261
20
-2.8952787007874017
11
5.3385714566929137
21
-2.8923251968503938
0
LINE
8
BLACK
6
CONTINUOUS
10
5.3385714566929137
20
-2.8923251968503938
11
5.3461410629921255
21
-2.8908194881889764
0
LINE
8
BLACK
6
CONTINUOUS
10
5.3461410629921255
20
-2.8908194881889764
11
5.3538589370078737
21
-2.8908194881889764
0
LINE
8
BLACK
6
CONTINUOUS
10
5.3538589370078737
20
-2.8908194881889764
11
5.3614285433070865
21
-2.8923251968503938
0
LINE
8
BLACK
6
CONTINUOUS
10
5.5893700787401572
20
-2.8934645669291337
11
5.5665354330708663
21
-2.8934645669291337
0
LINE
8
BLACK
6
CONTINUOUS
10
5.5665354330708663
20
-2.8934645669291337
11
5.5665354330708663
21
-2.898744094488189
0
LINE
8
BLACK
6
CONTINUOUS
10
5.5665354330708663
20
-2.898744094488189
11
5.5665354330708663
21
-3.1844405118110237
0
LINE
8
BLACK
6
CONTINUOUS
10
5.5665354330708663
20
-3.1844405118110237
11
5.5685589370078743
21
-3.1852787007874017
0
LINE
8
BLACK
6
CONTINUOUS
10
5.5685589370078743
20
-3.1852787007874017
11
5.5749761023622044
21
-3.1895665354330709
0
LINE
8
BLACK
6
CONTINUOUS
10
5.5749761023622044
20
-3.1895665354330709
11
5.5804334645669291
21
-3.1950238976377952
0
LINE
8
BLACK
6
CONTINUOUS
10
5.5804334645669291
20
-3.1950238976377952
11
5.5847212992125979
21
-3.2014410629921257
0
LINE
8
BLACK
6
CONTINUOUS
10
5.5847212992125979
20
-3.2014410629921257
11
5.5876748031496062
21
-3.2085714566929133
0
LINE
8
BLACK
6
CONTINUOUS
10
5.5876748031496062
20
-3.2085714566929133
11
5.5891805118110236
21
-3.2161410629921261
0
LINE
8
BLACK
6
CONTINUOUS
10
5.5891805118110236
20
-3.2161410629921261
11
5.5891805118110236
21
-3.2238589370078738
0
LINE
8
BLACK
6
CONTINUOUS
10
5.5891805118110236
20
-3.2238589370078738
11
5.5876748031496062
21
-3.2314285433070866
0
LINE
8
BLACK
6
CONTINUOUS
10
5.5876748031496062
20
-3.2314285433070866
11
5.5847212992125979
21
-3.2385589370078738
0
LINE
8
BLACK
6
CONTINUOUS
10
5.5847212992125979
20
-3.2385589370078738
11
5.5804334645669291
21
-3.2449761023622048
0
LINE
8
BLACK
6
CONTINUOUS
10
5.5804334645669291
20
-3.2449761023622048
11
5.5749761023622044
21
-3.2504334645669291
0
LINE
8
BLACK
6
CONTINUOUS
10
5.5749761023622044
20
-3.2504334645669291
11
5.5685589370078743
21
-3.2547212992125982
0
LINE
8
BLACK
6
CONTINUOUS
10
5.5685589370078743
20
-3.2547212992125982
11
5.5614285433070867
21
-3.2576748031496061
0
LINE
8
BLACK
6
CONTINUOUS
10
5.5614285433070867
20
-3.2576748031496061
11
5.5538589370078739
21
-3.2591805118110235
0
LINE
8
BLACK
6
CONTINUOUS
10
5.5538589370078739
20
-3.2591805118110235
11
5.5461410629921257
21
-3.2591805118110235
0
LINE
8
BLACK
6
CONTINUOUS
10
5.5461410629921257
20
-3.2591805118110235
11
5.538571456692913
21
-3.2576748031496061
0
LINE
8
BLACK
6
CONTINUOUS
10
5.538571456692913
20
-3.2576748031496061
11
5.5314410629921262
21
-3.2547212992125982
0
LINE
8
BLACK
6
CONTINUOUS
10
5.5314410629921262
20
-3.2547212992125982
11
5.5250238976377952
21
-3.2504334645669291
0
LINE
8
BLACK
6
CONTINUOUS
10
5.5250238976377952
20
-3.2504334645669291
11
5.5195665354330705
21
-3.2449761023622048
0
LINE
8
BLACK
6
CONTINUOUS
10
5.5195665354330705
20
-3.2449761023622048
11
5.5152787007874018
21
-3.2385589370078738
0
LINE
8
BLACK
6
CONTINUOUS
10
5.5152787007874018
20
-3.2385589370078738
11
5.5123251968503935
21
-3.2314285433070866
0
LINE
8
BLACK
6
CONTINUOUS
10
5.5123251968503935
20
-3.2314285433070866
11
5.510819488188976
21
-3.2238589370078738
0
LINE
8
BLACK
6
CONTINUOUS
10
5.510819488188976
20
-3.2238589370078738
11
5.510819488188976
21
-3.2161410629921261
0
LINE
8
BLACK
6
CONTINUOUS
10
5.510819488188976
20
-3.2161410629921261
11
5.5123251968503935
21
-3.2085714566929133
0
LINE
8
BLACK
6
CONTINUOUS
10
5.5123251968503935
20
-3.2085714566929133
11
5.5152787007874018
21
-3.2014410629921257
0
LINE
8
BLACK
6
CONTINUOUS
10
5.5152787007874018
20
-3.2014410629921257
11
5.5195665354330705
21
-3.1950238976377952
0
LINE
8
BLACK
6
CONTINUOUS
10
5.5195665354330705
20
-3.1950238976377952
11
5.5250238976377952
21
-3.1895665354330709
0
LINE
8
BLACK
6
CONTINUOUS
10
5.5250238976377952
20
-3.1895665354330709
11
5.5314410629921262
21
-3.1852787007874017
0
LINE
8
BLACK
6
CONTINUOUS
10
5.5314410629921262
20
-3.1852787007874017
11
5.5350393700787404
21
-3.1837882283464567
0
LINE
8
BLACK
6
CONTINUOUS
10
5.5350393700787404
20
-3.1837882283464567
11
5.5350393700787404
21
-2.898744094488189
0
LINE
8
BLACK
6
CONTINUOUS
10
5.5350393700787404
20
-2.898744094488189
11
5.5350393700787404
21
-2.8934645669291337
0
LINE
8
BLACK
6
CONTINUOUS
10
5.5350393700787404
20
-2.8934645669291337
11
5.5106299212598424
21
-2.8934645669291337
0
LINE
8
BLACK
6
CONTINUOUS
10
5.5106299212598424
20
-2.8934645669291337
11
5.5106299212598424
21
-2.8265354330708661
0
LINE
8
BLACK
6
CONTINUOUS
10
5.5106299212598424
20
-2.8265354330708661
11
5.5893700787401572
21
-2.8265354330708661
0
LINE
8
BLACK
6
CONTINUOUS
10
5.5893700787401572
20
-2.8265354330708661
11
5.5893700787401572
21
-2.8934645669291337
0
LINE
8
BLACK
6
CONTINUOUS
10
5.149930236220472
20
-1.999860157480315
11
5.1556345275590552
21
-2.0022229527559054
0
LINE
8
BLACK
6
CONTINUOUS
10
5.1556345275590552
20
-2.0022229527559054
11
5.1607683070866139
21
-2.0056532283464565
0
LINE
8
BLACK
6
CONTINUOUS
10
5.1607683070866139
20
-2.0056532283464565
11
5.1651341732283464
21
-2.0100190944881891
0
LINE
8
BLACK
6
CONTINUOUS
10
5.1651341732283464
20
-2.0100190944881891
11
5.1685644488188975
21
-2.0151528740157478
0
LINE
8
BLACK
6
CONTINUOUS
10
5.1685644488188975
20
-2.0151528740157478
11
5.1709272440944885
21
-2.0208571653543306
0
LINE
8
BLACK
6
CONTINUOUS
10
5.1709272440944885
20
-2.0208571653543306
11
5.1721318110236219
21
-2.0269128346456693
0
LINE
8
BLACK
6
CONTINUOUS
10
5.1721318110236219
20
-2.0269128346456693
11
5.1721318110236219
21
-2.0330871653543308
0
LINE
8
BLACK
6
CONTINUOUS
10
5.1721318110236219
20
-2.0330871653543308
11
5.1709272440944885
21
-2.039142834645669
0
LINE
8
BLACK
6
CONTINUOUS
10
5.1709272440944885
20
-2.039142834645669
11
5.1685644488188975
21
-2.0448471259842518
0
LINE
8
BLACK
6
CONTINUOUS
10
5.1685644488188975
20
-2.0448471259842518
11
5.1651341732283464
21
-2.049980905511811
0
LINE
8
BLACK
6
CONTINUOUS
10
5.1651341732283464
20
-2.049980905511811
11
5.1607683070866139
21
-2.0543467716535431
0
LINE
8
BLACK
6
CONTINUOUS
10
5.1607683070866139
20
-2.0543467716535431
11
5.1556345275590552
21
-2.0577770472440946
0
LINE
8
BLACK
6
CONTINUOUS
10
5.1556345275590552
20
-2.0577770472440946
11
5.1510119685039371
21
-2.0596917716535432
0
LINE
8
BLACK
6
CONTINUOUS
10
5.1510119685039371
20
-2.0596917716535432
11
5.0809474803149604
21
-2.2697135433070867
0
LINE
8
BLACK
6
CONTINUOUS
10
5.0809474803149604
20
-2.2697135433070867
11
5.088353228346457
21
-2.2750941338582678
0
LINE
8
BLACK
6
CONTINUOUS
10
5.088353228346457
20
-2.2750941338582678
11
5.0949058661417324
21
-2.2816467716535431
0
LINE
8
BLACK
6
CONTINUOUS
10
5.0949058661417324
20
-2.2816467716535431
11
5.1003527559055115
21
-2.2891437795275591
0
LINE
8
BLACK
6
CONTINUOUS
10
5.1003527559055115
20
-2.2891437795275591
11
5.1045598031496064
21
-2.297400590551181
0
LINE
8
BLACK
6
CONTINUOUS
10
5.1045598031496064
20
-2.297400590551181
11
5.10742342519685
21
-2.3062138582677165
0
LINE
8
BLACK
6
CONTINUOUS
10
5.10742342519685
20
-2.3062138582677165
11
5.1088730708661414
21
-2.3153665748031496
0
LINE
8
BLACK
6
CONTINUOUS
10
5.1088730708661414
20
-2.3153665748031496
11
5.1088730708661414
21
-2.3246334251968501
0
LINE
8
BLACK
6
CONTINUOUS
10
5.1088730708661414
20
-2.3246334251968501
11
5.10742342519685
21
-2.3337861417322836
0
LINE
8
BLACK
6
CONTINUOUS
10
5.10742342519685
20
-2.3337861417322836
11
5.1045598031496064
21
-2.3425994094488187
0
LINE
8
BLACK
6
CONTINUOUS
10
5.1045598031496064
20
-2.3425994094488187
11
5.1003527559055115
21
-2.350856220472441
0
LINE
8
BLACK
6
CONTINUOUS
10
5.1003527559055115
20
-2.350856220472441
11
5.0949058661417324
21
-2.3583532283464566
0
LINE
8
BLACK
6
CONTINUOUS
10
5.0949058661417324
20
-2.3583532283464566
11
5.088353228346457
21
-2.3649058661417324
0
LINE
8
BLACK
6
CONTINUOUS
10
5.088353228346457
20
-2.3649058661417324
11
5.080856220472441
21
-2.370352755905512
0
LINE
8
BLACK
6
CONTINUOUS
10
5.080856220472441
20
-2.370352755905512
11
5.0725994094488192
21
-2.3745598031496065
0
LINE
8
BLACK
6
CONTINUOUS
10
5.0725994094488192
20
-2.3745598031496065
11
5.0637861417322831
21
-2.3774234251968505
0
LINE
8
BLACK
6
CONTINUOUS
10
5.0637861417322831
20
-2.3774234251968505
11
5.0619371653543306
21
-2.3777162598425194
0
LINE
8
BLACK
6
CONTINUOUS
10
5.0619371653543306
20
-2.3777162598425194
11
5.061242519685039
21
-2.4922881889763779
0
LINE
8
BLACK
6
CONTINUOUS
10
5.061242519685039
20
-2.4922881889763779
11
5.0614285433070867
21
-2.4923251968503934
0
LINE
8
BLACK
6
CONTINUOUS
10
5.0614285433070867
20
-2.4923251968503934
11
5.0685589370078743
21
-2.4952787007874013
0
LINE
8
BLACK
6
CONTINUOUS
10
5.0685589370078743
20
-2.4952787007874013
11
5.0749761023622044
21
-2.4995665354330709
0
LINE
8
BLACK
6
CONTINUOUS
10
5.0749761023622044
20
-2.4995665354330709
11
5.0804334645669291
21
-2.5050238976377952
0
LINE
8
BLACK
6
CONTINUOUS
10
5.0804334645669291
20
-2.5050238976377952
11
5.0847212992125987
21
-2.5114410629921258
0
LINE
8
BLACK
6
CONTINUOUS
10
5.0847212992125987
20
-2.5114410629921258
11
5.0876748031496062
21
-2.5185714566929134
0
LINE
8
BLACK
6
CONTINUOUS
10
5.0876748031496062
20
-2.5185714566929134
11
5.0891805118110236
21
-2.5261410629921257
0
LINE
8
BLACK
6
CONTINUOUS
10
5.0891805118110236
20
-2.5261410629921257
11
5.0891805118110236
21
-2.5338589370078739
0
LINE
8
BLACK
6
CONTINUOUS
10
5.0891805118110236
20
-2.5338589370078739
11
5.0876748031496062
21
-2.5414285433070867
0
LINE
8
BLACK
6
CONTINUOUS
10
5.0876748031496062
20
-2.5414285433070867
11
5.0874729527559053
21
-2.5419157874015745
0
LINE
8
BLACK
6
CONTINUOUS
10
5.0874729527559053
20
-2.5419157874015745
11
5.1601200393700788
21
-2.5999857874015748
0
LINE
8
BLACK
6
CONTINUOUS
10
5.1601200393700788
20
-2.5999857874015748
11
5.1724605118110238
21
-2.6050963779527558
0
LINE
8
BLACK
6
CONTINUOUS
10
5.1724605118110238
20
-2.6050963779527558
11
5.6475394094488189
21
-2.6673622047244092
0
LINE
8
BLACK
6
CONTINUOUS
10
5.6475394094488189
20
-2.6673622047244092
11
5.6701338582677163
21
-2.6673622047244092
0
LINE
8
BLACK
6
CONTINUOUS
10
5.6701338582677163
20
-2.6673622047244092
11
5.7385731889763782
21
-2.6673622047244092
0
LINE
8
BLACK
6
CONTINUOUS
10
5.7385731889763782
20
-2.6673622047244092
11
5.8376829133858266
21
-2.6479319685039369
0
LINE
8
BLACK
6
CONTINUOUS
10
5.8376829133858266
20
-2.6479319685039369
11
5.8381915354330705
21
-2.6478664173228346
0
LINE
8
BLACK
6
CONTINUOUS
10
5.8381915354330705
20
-2.6478664173228346
11
5.8383866535433073
21
-2.6478105118110236
0
LINE
8
BLACK
6
CONTINUOUS
10
5.8383866535433073
20
-2.6478105118110236
11
5.8390579527559057
21
-2.6477548031496063
0
LINE
8
BLACK
6
CONTINUOUS
10
5.8390579527559057
20
-2.6477548031496063
11
5.8397259448818897
21
-2.6476687401574801
0
LINE
8
BLACK
6
CONTINUOUS
10
5.8397259448818897
20
-2.6476687401574801
11
5.8399283858267719
21
-2.6476825590551178
0
LINE
8
BLACK
6
CONTINUOUS
10
5.8399283858267719
20
-2.6476825590551178
11
5.840439527559055
21
-2.647640157480315
0
LINE
8
BLACK
6
CONTINUOUS
10
5.840439527559055
20
-2.647640157480315
11
6.0020733464566929
21
-2.644836929133858
0
LINE
8
BLACK
6
CONTINUOUS
10
6.0020733464566929
20
-2.644836929133858
11
6.079610275590551
21
-2.5187920866141731
0
LINE
8
BLACK
6
CONTINUOUS
10
6.079610275590551
20
-2.5187920866141731
11
6.0804085039370079
21
-2.5176666535433072
0
LINE
8
BLACK
6
CONTINUOUS
10
6.0804085039370079
20
-2.5176666535433072
11
6.0805298818897633
21
-2.5174564960629922
0
LINE
8
BLACK
6
CONTINUOUS
10
6.0805298818897633
20
-2.5174564960629922
11
6.0806749212598428
21
-2.5172910629921259
0
LINE
8
BLACK
6
CONTINUOUS
10
6.0806749212598428
20
-2.5172910629921259
11
6.0808020472440942
21
-2.5171118897637794
0
LINE
8
BLACK
6
CONTINUOUS
10
6.0808020472440942
20
-2.5171118897637794
11
6.0809781102362201
21
-2.5169453543307085
0
LINE
8
BLACK
6
CONTINUOUS
10
6.0809781102362201
20
-2.5169453543307085
11
6.0818880708661416
21
-2.5159077559055119
0
LINE
8
BLACK
6
CONTINUOUS
10
6.0818880708661416
20
-2.5159077559055119
11
6.0821754724409445
21
-2.5156203543307085
0
LINE
8
BLACK
6
CONTINUOUS
10
6.0821754724409445
20
-2.5156203543307085
11
6.0828444881889761
21
-2.5150336220472442
0
LINE
8
BLACK
6
CONTINUOUS
10
6.0828444881889761
20
-2.5150336220472442
11
6.0835022834645667
21
-2.5144356299212598
0
LINE
8
BLACK
6
CONTINUOUS
10
6.0835022834645667
20
-2.5144356299212598
11
6.0924409448818899
21
-2.5073190944881891
0
LINE
8
BLACK
6
CONTINUOUS
10
6.0924409448818899
20
-2.5073190944881891
11
6.0924409448818899
21
-2.4955905511811025
0
LINE
8
BLACK
6
CONTINUOUS
10
6.0924409448818899
20
-2.4955905511811025
11
6.0931901574803149
21
-2.4918239763779528
0
LINE
8
BLACK
6
CONTINUOUS
10
6.0931901574803149
20
-2.4918239763779528
11
6.0953237401574798
21
-2.4886308267716535
0
LINE
8
BLACK
6
CONTINUOUS
10
6.0953237401574798
20
-2.4886308267716535
11
6.0985168897637791
21
-2.4864972440944881
0
LINE
8
BLACK
6
CONTINUOUS
10
6.0985168897637791
20
-2.4864972440944881
11
6.1022834645669288
21
-2.4857480314960627
0
LINE
8
BLACK
6
CONTINUOUS
10
6.1022834645669288
20
-2.4857480314960627
11
6.1377165354330705
21
-2.4857480314960627
0
LINE
8
BLACK
6
CONTINUOUS
10
6.1377165354330705
20
-2.4857480314960627
11
6.1414831102362202
21
-2.4864972440944881
0
LINE
8
BLACK
6
CONTINUOUS
10
6.1414831102362202
20
-2.4864972440944881
11
6.1446762598425195
21
-2.4886308267716535
0
LINE
8
BLACK
6
CONTINUOUS
10
6.1446762598425195
20
-2.4886308267716535
11
6.1468098425196853
21
-2.4918239763779528
0
LINE
8
BLACK
6
CONTINUOUS
10
6.1468098425196853
20
-2.4918239763779528
11
6.1475590551181103
21
-2.4955905511811025
0
LINE
8
BLACK
6
CONTINUOUS
10
6.1475590551181103
20
-2.4955905511811025
11
6.1475590551181103
21
-2.5162598425196849
0
LINE
8
BLACK
6
CONTINUOUS
10
6.1475590551181103
20
-2.5162598425196849
11
6.1468098425196853
21
-2.5200264173228346
0
LINE
8
BLACK
6
CONTINUOUS
10
6.1468098425196853
20
-2.5200264173228346
11
6.1446762598425195
21
-2.523219566929134
0
LINE
8
BLACK
6
CONTINUOUS
10
6.1446762598425195
20
-2.523219566929134
11
6.1414831102362202
21
-2.5253531496062993
0
LINE
8
BLACK
6
CONTINUOUS
10
6.1414831102362202
20
-2.5253531496062993
11
6.1377165354330705
21
-2.5261023622047243
0
LINE
8
BLACK
6
CONTINUOUS
10
6.1377165354330705
20
-2.5261023622047243
11
6.1194155118110238
21
-2.5261023622047243
0
LINE
8
BLACK
6
CONTINUOUS
10
6.1194155118110238
20
-2.5261023622047243
11
6.1050617322834642
21
-2.5375300393700786
0
LINE
8
BLACK
6
CONTINUOUS
10
6.1050617322834642
20
-2.5375300393700786
11
6.0291423622047242
21
-2.6609455118110237
0
LINE
8
BLACK
6
CONTINUOUS
10
6.0291423622047242
20
-2.6609455118110237
11
6.0617751574803149
21
-2.721380787401575
0
LINE
8
BLACK
6
CONTINUOUS
10
6.0617751574803149
20
-2.721380787401575
11
6.0645640157480312
21
-2.7209390944881888
0
LINE
8
BLACK
6
CONTINUOUS
10
6.0645640157480312
20
-2.7209390944881888
11
6.0722863779527554
21
-2.7209390944881888
0
LINE
8
BLACK
6
CONTINUOUS
10
6.0722863779527554
20
-2.7209390944881888
11
6.079913661417323
21
-2.7221471653543308
0
LINE
8
BLACK
6
CONTINUOUS
10
6.079913661417323
20
-2.7221471653543308
11
6.0872580314960629
21
-2.7245335039370078
0
LINE
8
BLACK
6
CONTINUOUS
10
6.0872580314960629
20
-2.7245335039370078
11
6.0941387007874015
21
-2.72803937007874
0
LINE
8
BLACK
6
CONTINUOUS
10
6.0941387007874015
20
-2.72803937007874
11
6.1003862204724406
21
-2.7325784645669291
0
LINE
8
BLACK
6
CONTINUOUS
10
6.1003862204724406
20
-2.7325784645669291
11
6.1026194881889761
21
-2.7348117322834646
0
LINE
8
BLACK
6
CONTINUOUS
10
6.1026194881889761
20
-2.7348117322834646
11
6.2211269291338578
21
-2.6801265354330708
0
LINE
8
BLACK
6
CONTINUOUS
10
6.2211269291338578
20
-2.6801265354330708
11
6.2211269291338578
21
-2.6753665748031494
0
LINE
8
BLACK
6
CONTINUOUS
10
6.2211269291338578
20
-2.6753665748031494
11
6.2225765748031492
21
-2.6662138582677164
0
LINE
8
BLACK
6
CONTINUOUS
10
6.2225765748031492
20
-2.6662138582677164
11
6.2254401968503936
21
-2.6574005905511808
0
LINE
8
BLACK
6
CONTINUOUS
10
6.2254401968503936
20
-2.6574005905511808
11
6.2296472440944877
21
-2.649143779527559
0
LINE
8
BLACK
6
CONTINUOUS
10
6.2296472440944877
20
-2.649143779527559
11
6.2350941338582677
21
-2.6416467716535434
0
LINE
8
BLACK
6
CONTINUOUS
10
6.2350941338582677
20
-2.6416467716535434
11
6.2416467716535431
21
-2.6350941338582676
0
LINE
8
BLACK
6
CONTINUOUS
10
6.2416467716535431
20
-2.6350941338582676
11
6.2491437795275591
21
-2.629647244094488
0
LINE
8
BLACK
6
CONTINUOUS
10
6.2491437795275591
20
-2.629647244094488
11
6.2574005905511809
21
-2.6254401968503935
0
LINE
8
BLACK
6
CONTINUOUS
10
6.2574005905511809
20
-2.6254401968503935
11
6.266213858267716
21
-2.6225765748031495
0
LINE
8
BLACK
6
CONTINUOUS
10
6.266213858267716
20
-2.6225765748031495
11
6.2753665748031491
21
-2.6211269291338581
0
LINE
8
BLACK
6
CONTINUOUS
10
6.2753665748031491
20
-2.6211269291338581
11
6.2846334251968505
21
-2.6211269291338581
0
LINE
8
BLACK
6
CONTINUOUS
10
6.2846334251968505
20
-2.6211269291338581
11
6.2937861417322836
21
-2.6225765748031495
0
LINE
8
BLACK
6
CONTINUOUS
10
6.2937861417322836
20
-2.6225765748031495
11
6.3025994094488187
21
-2.6254401968503935
0
LINE
8
BLACK
6
CONTINUOUS
10
6.3025994094488187
20
-2.6254401968503935
11
6.3108562204724405
21
-2.629647244094488
0
LINE
8
BLACK
6
CONTINUOUS
10
6.3108562204724405
20
-2.629647244094488
11
6.3183532283464565
21
-2.6350941338582676
0
LINE
8
BLACK
6
CONTINUOUS
10
6.3183532283464565
20
-2.6350941338582676
11
6.3249058661417319
21
-2.6416467716535434
0
LINE
8
BLACK
6
CONTINUOUS
10
6.3249058661417319
20
-2.6416467716535434
11
6.3303527559055119
21
-2.649143779527559
0
LINE
8
BLACK
6
CONTINUOUS
10
6.3303527559055119
20
-2.649143779527559
11
6.334559803149606
21
-2.6574005905511808
0
LINE
8
BLACK
6
CONTINUOUS
10
6.334559803149606
20
-2.6574005905511808
11
6.3374234251968504
21
-2.6662138582677164
0
LINE
8
BLACK
6
CONTINUOUS
10
6.3374234251968504
20
-2.6662138582677164
11
6.3388730708661418
21
-2.6753665748031494
0
LINE
8
BLACK
6
CONTINUOUS
10
6.3388730708661418
20
-2.6753665748031494
11
6.3388730708661418
21
-2.6846334251968504
0
LINE
8
BLACK
6
CONTINUOUS
10
6.3388730708661418
20
-2.6846334251968504
11
6.3374234251968504
21
-2.6937861417322835
0
LINE
8
BLACK
6
CONTINUOUS
10
6.3374234251968504
20
-2.6937861417322835
11
6.334559803149606
21
-2.702599409448819
0
LINE
8
BLACK
6
CONTINUOUS
10
6.334559803149606
20
-2.702599409448819
11
6.3303527559055119
21
-2.7108562204724409
0
LINE
8
BLACK
6
CONTINUOUS
10
6.3303527559055119
20
-2.7108562204724409
11
6.3280717322834645
21
-2.7139957086614173
0
LINE
8
BLACK
6
CONTINUOUS
10
6.3280717322834645
20
-2.7139957086614173
11
6.3956196456692913
21
-2.8046412992125984
0
LINE
8
BLACK
6
CONTINUOUS
10
6.3956196456692913
20
-2.8046412992125984
11
6.3960466535433067
21
-2.8053002755905512
0
LINE
8
BLACK
6
CONTINUOUS
10
6.3960466535433067
20
-2.8053002755905512
11
6.3964939763779523
21
-2.80594562992126
0
LINE
8
BLACK
6
CONTINUOUS
10
6.3964939763779523
20
-2.80594562992126
11
6.3979310236220472
21
-2.8083393307086615
0
LINE
8
BLACK
6
CONTINUOUS
10
6.3979310236220472
20
-2.8083393307086615
11
6.3980137007874012
21
-2.8085
0
LINE
8
BLACK
6
CONTINUOUS
10
6.3980137007874012
20
-2.8085
11
6.3980650393700786
21
-2.8085668897637794
0
LINE
8
BLACK
6
CONTINUOUS
10
6.3980650393700786
20
-2.8085668897637794
11
6.3984627559055118
21
-2.8093728346456692
0
LINE
8
BLACK
6
CONTINUOUS
10
6.3984627559055118
20
-2.8093728346456692
11
6.398873464566929
21
-2.810171023622047
0
LINE
8
BLACK
6
CONTINUOUS
10
6.398873464566929
20
-2.810171023622047
11
6.3988966141732284
21
-2.8102519291338584
0
LINE
8
BLACK
6
CONTINUOUS
10
6.3988966141732284
20
-2.8102519291338584
11
6.3989766535433068
21
-2.810414094488189
0
LINE
8
BLACK
6
CONTINUOUS
10
6.3989766535433068
20
-2.810414094488189
11
6.4073624803149603
21
-2.830642440944882
0
LINE
8
BLACK
6
CONTINUOUS
10
6.4073624803149603
20
-2.830642440944882
11
6.4074170078740158
21
-2.8308029527559055
0
LINE
8
BLACK
6
CONTINUOUS
10
6.4074170078740158
20
-2.8308029527559055
11
6.4074556299212597
21
-2.8308722834645668
0
LINE
8
BLACK
6
CONTINUOUS
10
6.4074556299212597
20
-2.8308722834645668
11
6.4077333070866143
21
-2.8317338582677163
0
LINE
8
BLACK
6
CONTINUOUS
10
6.4077333070866143
20
-2.8317338582677163
11
6.4080251968503932
21
-2.832592834645669
0
LINE
8
BLACK
6
CONTINUOUS
10
6.4080251968503932
20
-2.832592834645669
11
6.4080355905511812
21
-2.832671653543307
0
LINE
8
BLACK
6
CONTINUOUS
10
6.4080355905511812
20
-2.832671653543307
11
6.4080875590551178
21
-2.832832874015748
0
LINE
8
BLACK
6
CONTINUOUS
10
6.4080875590551178
20
-2.832832874015748
11
6.4087686614173229
21
-2.8355415354330709
0
LINE
8
BLACK
6
CONTINUOUS
10
6.4087686614173229
20
-2.8355415354330709
11
6.40906437007874
21
-2.8371584251968502
0
LINE
8
BLACK
6
CONTINUOUS
10
6.40906437007874
20
-2.8371584251968502
11
6.40910937007874
21
-2.8373263779527558
0
LINE
8
BLACK
6
CONTINUOUS
10
6.40910937007874
20
-2.8373263779527558
11
6.4091173228346454
21
-2.8374481102362203
0
LINE
8
BLACK
6
CONTINUOUS
10
6.4091173228346454
20
-2.8374481102362203
11
6.4091392519685035
21
-2.8375678740157482
0
LINE
8
BLACK
6
CONTINUOUS
10
6.4091392519685035
20
-2.8375678740157482
11
6.4091365354330705
21
-2.8377413779527561
0
LINE
8
BLACK
6
CONTINUOUS
10
6.4091365354330705
20
-2.8377413779527561
11
6.409244094488189
21
-2.8393818897637795
0
LINE
8
BLACK
6
CONTINUOUS
10
6.409244094488189
20
-2.8393818897637795
11
6.409244094488189
21
-2.9044842519685039
0
LINE
8
BLACK
6
CONTINUOUS
10
6.409244094488189
20
-2.9044842519685039
11
6.4091788582677163
21
-2.9054795275590553
0
LINE
8
BLACK
6
CONTINUOUS
10
6.4091788582677163
20
-2.9054795275590553
11
6.4091181496062992
21
-2.9064718897637793
0
LINE
8
BLACK
6
CONTINUOUS
10
6.4091181496062992
20
-2.9064718897637793
11
6.3732462598425199
21
-3.1884106692913385
0
LINE
8
BLACK
6
CONTINUOUS
10
6.3732462598425199
20
-3.1884106692913385
11
6.3749761023622042
21
-3.1895665354330709
0
LINE
8
BLACK
6
CONTINUOUS
10
6.3749761023622042
20
-3.1895665354330709
11
6.3804334645669289
21
-3.1950238976377952
0
LINE
8
BLACK
6
CONTINUOUS
10
6.3804334645669289
20
-3.1950238976377952
11
6.3847212992125986
21
-3.2014410629921257
0
LINE
8
BLACK
6
CONTINUOUS
10
6.3847212992125986
20
-3.2014410629921257
11
6.387674803149606
21
-3.2085714566929133
0
LINE
8
BLACK
6
CONTINUOUS
10
6.387674803149606
20
-3.2085714566929133
11
6.3891805118110234
21
-3.2161410629921261
0
LINE
8
BLACK
6
CONTINUOUS
10
6.3891805118110234
20
-3.2161410629921261
11
6.3891805118110234
21
-3.2238589370078738
0
LINE
8
BLACK
6
CONTINUOUS
10
6.3891805118110234
20
-3.2238589370078738
11
6.387674803149606
21
-3.2314285433070866
0
LINE
8
BLACK
6
CONTINUOUS
10
6.387674803149606
20
-3.2314285433070866
11
6.3847212992125986
21
-3.2385589370078738
0
LINE
8
BLACK
6
CONTINUOUS
10
6.3847212992125986
20
-3.2385589370078738
11
6.3804334645669289
21
-3.2449761023622048
0
LINE
8
BLACK
6
CONTINUOUS
10
6.3804334645669289
20
-3.2449761023622048
11
6.3749761023622042
21
-3.2504334645669291
0
LINE
8
BLACK
6
CONTINUOUS
10
6.3749761023622042
20
-3.2504334645669291
11
6.3685589370078741
21
-3.2547212992125982
0
LINE
8
BLACK
6
CONTINUOUS
10
6.3685589370078741
20
-3.2547212992125982
11
6.3614285433070865
21
-3.2576748031496061
0
LINE
8
BLACK
6
CONTINUOUS
10
6.3614285433070865
20
-3.2576748031496061
11
6.3538589370078737
21
-3.2591805118110235
0
LINE
8
BLACK
6
CONTINUOUS
10
6.3538589370078737
20
-3.2591805118110235
11
6.3461410629921255
21
-3.2591805118110235
0
LINE
8
BLACK
6
CONTINUOUS
10
6.3461410629921255
20
-3.2591805118110235
11
6.3385714566929137
21
-3.2576748031496061
0
LINE
8
BLACK
6
CONTINUOUS
10
6.3385714566929137
20
-3.2576748031496061
11
6.3314410629921261
21
-3.2547212992125982
0
LINE
8
BLACK
6
CONTINUOUS
10
6.3314410629921261
20
-3.2547212992125982
11
6.325023897637795
21
-3.2504334645669291
0
LINE
8
BLACK
6
CONTINUOUS
10
6.325023897637795
20
-3.2504334645669291
11
6.3195665354330703
21
-3.2449761023622048
0
LINE
8
BLACK
6
CONTINUOUS
10
6.3195665354330703
20
-3.2449761023622048
11
6.3152787007874016
21
-3.2385589370078738
0
LINE
8
BLACK
6
CONTINUOUS
10
6.3152787007874016
20
-3.2385589370078738
11
6.3123251968503933
21
-3.2314285433070866
0
LINE
8
BLACK
6
CONTINUOUS
10
6.3123251968503933
20
-3.2314285433070866
11
6.3108194881889759
21
-3.2238589370078738
0
LINE
8
BLACK
6
CONTINUOUS
10
6.3108194881889759
20
-3.2238589370078738
11
6.3108194881889759
21
-3.2161410629921261
0
LINE
8
BLACK
6
CONTINUOUS
10
6.3108194881889759
20
-3.2161410629921261
11
6.3123251968503933
21
-3.2085714566929133
0
LINE
8
BLACK
6
CONTINUOUS
10
6.3123251968503933
20
-3.2085714566929133
11
6.3152787007874016
21
-3.2014410629921257
0
LINE
8
BLACK
6
CONTINUOUS
10
6.3152787007874016
20
-3.2014410629921257
11
6.3195665354330703
21
-3.1950238976377952
0
LINE
8
BLACK
6
CONTINUOUS
10
6.3195665354330703
20
-3.1950238976377952
11
6.325023897637795
21
-3.1895665354330709
0
LINE
8
BLACK
6
CONTINUOUS
10
6.325023897637795
20
-3.1895665354330709
11
6.3314410629921261
21
-3.1852787007874017
0
LINE
8
BLACK
6
CONTINUOUS
10
6.3314410629921261
20
-3.1852787007874017
11
6.3385714566929137
21
-3.1823251968503938
0
LINE
8
BLACK
6
CONTINUOUS
10
6.3385714566929137
20
-3.1823251968503938
11
6.342366614173228
21
-3.1815702755905511
0
LINE
8
BLACK
6
CONTINUOUS
10
6.342366614173228
20
-3.1815702755905511
11
6.3777480314960631
21
-2.9034864566929133
0
LINE
8
BLACK
6
CONTINUOUS
10
6.3777480314960631
20
-2.9034864566929133
11
6.3777480314960631
21
-2.8414510629921259
0
LINE
8
BLACK
6
CONTINUOUS
10
6.3777480314960631
20
-2.8414510629921259
11
6.3703276377952758
21
-2.8235516141732284
0
LINE
8
BLACK
6
CONTINUOUS
10
6.3703276377952758
20
-2.8235516141732284
11
6.3698949212598421
21
-2.8228307874015748
0
LINE
8
BLACK
6
CONTINUOUS
10
6.3698949212598421
20
-2.8228307874015748
11
6.3036990157480313
21
-2.7339994881889762
0
LINE
8
BLACK
6
CONTINUOUS
10
6.3036990157480313
20
-2.7339994881889762
11
6.3025994094488187
21
-2.7345598031496063
0
LINE
8
BLACK
6
CONTINUOUS
10
6.3025994094488187
20
-2.7345598031496063
11
6.2937861417322836
21
-2.7374234251968503
0
LINE
8
BLACK
6
CONTINUOUS
10
6.2937861417322836
20
-2.7374234251968503
11
6.2846334251968505
21
-2.7388730708661417
0
LINE
8
BLACK
6
CONTINUOUS
10
6.2846334251968505
20
-2.7388730708661417
11
6.2753665748031491
21
-2.7388730708661417
0
LINE
8
BLACK
6
CONTINUOUS
10
6.2753665748031491
20
-2.7388730708661417
11
6.266213858267716
21
-2.7374234251968503
0
LINE
8
BLACK
6
CONTINUOUS
10
6.266213858267716
20
-2.7374234251968503
11
6.2574005905511809
21
-2.7345598031496063
0
LINE
8
BLACK
6
CONTINUOUS
10
6.2574005905511809
20
-2.7345598031496063
11
6.2491437795275591
21
-2.7303527559055119
0
LINE
8
BLACK
6
CONTINUOUS
10
6.2491437795275591
20
-2.7303527559055119
11
6.2416467716535431
21
-2.7249058661417322
0
LINE
8
BLACK
6
CONTINUOUS
10
6.2416467716535431
20
-2.7249058661417322
11
6.2350941338582677
21
-2.7183532283464564
0
LINE
8
BLACK
6
CONTINUOUS
10
6.2350941338582677
20
-2.7183532283464564
11
6.2296615354330704
21
-2.710875905511811
0
LINE
8
BLACK
6
CONTINUOUS
10
6.2296615354330704
20
-2.710875905511811
11
6.1169695275590552
21
-2.762877598425197
0
LINE
8
BLACK
6
CONTINUOUS
10
6.1169695275590552
20
-2.762877598425197
11
6.1174861023622045
21
-2.7661388188976379
0
LINE
8
BLACK
6
CONTINUOUS
10
6.1174861023622045
20
-2.7661388188976379
11
6.1174861023622045
21
-2.7738611811023621
0
LINE
8
BLACK
6
CONTINUOUS
10
6.1174861023622045
20
-2.7738611811023621
11
6.116278031496063
21
-2.7814884645669289
0
LINE
8
BLACK
6
CONTINUOUS
10
6.116278031496063
20
-2.7814884645669289
11
6.113891692913386
21
-2.7888328346456692
0
LINE
8
BLACK
6
CONTINUOUS
10
6.113891692913386
20
-2.7888328346456692
11
6.1103858267716538
21
-2.7957135039370078
0
LINE
8
BLACK
6
CONTINUOUS
10
6.1103858267716538
20
-2.7957135039370078
11
6.1058467322834646
21
-2.8019610236220474
0
LINE
8
BLACK
6
CONTINUOUS
10
6.1058467322834646
20
-2.8019610236220474
11
6.1003862204724406
21
-2.8074215354330709
0
LINE
8
BLACK
6
CONTINUOUS
10
6.1003862204724406
20
-2.8074215354330709
11
6.0941387007874015
21
-2.8119606299212596
0
LINE
8
BLACK
6
CONTINUOUS
10
6.0941387007874015
20
-2.8119606299212596
11
6.0872580314960629
21
-2.8154664960629923
0
LINE
8
BLACK
6
CONTINUOUS
10
6.0872580314960629
20
-2.8154664960629923
11
6.079913661417323
21
-2.8178528346456693
0
LINE
8
BLACK
6
CONTINUOUS
10
6.079913661417323
20
-2.8178528346456693
11
6.0722863779527554
21
-2.8190609055118108
0
LINE
8
BLACK
6
CONTINUOUS
10
6.0722863779527554
20
-2.8190609055118108
11
6.0645640157480312
21
-2.8190609055118108
0
LINE
8
BLACK
6
CONTINUOUS
10
6.0645640157480312
20
-2.8190609055118108
11
6.0569367322834644
21
-2.8178528346456693
0
LINE
8
BLACK
6
CONTINUOUS
10
6.0569367322834644
20
-2.8178528346456693
11
6.0495923622047245
21
-2.8154664960629923
0
LINE
8
BLACK
6
CONTINUOUS
10
6.0495923622047245
20
-2.8154664960629923
11
6.0427116929133859
21
-2.8119606299212596
0
LINE
8
BLACK
6
CONTINUOUS
10
6.0427116929133859
20
-2.8119606299212596
11
6.0364641732283459
21
-2.8074215354330709
0
LINE
8
BLACK
6
CONTINUOUS
10
6.0364641732283459
20
-2.8074215354330709
11
6.0310036614173228
21
-2.8019610236220474
0
LINE
8
BLACK
6
CONTINUOUS
10
6.0310036614173228
20
-2.8019610236220474
11
6.0264645669291337
21
-2.7957135039370078
0
LINE
8
BLACK
6
CONTINUOUS
10
6.0264645669291337
20
-2.7957135039370078
11
6.0229587007874015
21
-2.7888328346456692
0
LINE
8
BLACK
6
CONTINUOUS
10
6.0229587007874015
20
-2.7888328346456692
11
6.0205723622047245
21
-2.7814884645669289
0
LINE
8
BLACK
6
CONTINUOUS
10
6.0205723622047245
20
-2.7814884645669289
11
6.019364291338583
21
-2.7738611811023621
0
LINE
8
BLACK
6
CONTINUOUS
10
6.019364291338583
20
-2.7738611811023621
11
6.019364291338583
21
-2.7661388188976379
0
LINE
8
BLACK
6
CONTINUOUS
10
6.019364291338583
20
-2.7661388188976379
11
6.0205723622047245
21
-2.7585115354330707
0
LINE
8
BLACK
6
CONTINUOUS
10
6.0205723622047245
20
-2.7585115354330707
11
6.0229587007874015
21
-2.7511671653543308
0
LINE
8
BLACK
6
CONTINUOUS
10
6.0229587007874015
20
-2.7511671653543308
11
6.0264645669291337
21
-2.7442864960629922
0
LINE
8
BLACK
6
CONTINUOUS
10
6.0264645669291337
20
-2.7442864960629922
11
6.0310036614173228
21
-2.7380389763779527
0
LINE
8
BLACK
6
CONTINUOUS
10
6.0310036614173228
20
-2.7380389763779527
11
6.0335829527559053
21
-2.7354596456692915
0
LINE
8
BLACK
6
CONTINUOUS
10
6.0335829527559053
20
-2.7354596456692915
11
6.0016631102362199
21
-2.676344842519685
0
LINE
8
BLACK
6
CONTINUOUS
10
6.0016631102362199
20
-2.676344842519685
11
5.842376850393701
21
-2.6791073622047246
0
LINE
8
BLACK
6
CONTINUOUS
10
5.842376850393701
20
-2.6791073622047246
11
5.7431320472440941
21
-2.698564094488189
0
LINE
8
BLACK
6
CONTINUOUS
10
5.7431320472440941
20
-2.698564094488189
11
5.7424018110236217
21
-2.6986581496062994
0
LINE
8
BLACK
6
CONTINUOUS
10
5.7424018110236217
20
-2.6986581496062994
11
5.7421578740157475
21
-2.6987235433070866
0
LINE
8
BLACK
6
CONTINUOUS
10
5.7421578740157475
20
-2.6987235433070866
11
5.7416217716535431
21
-2.6987586614173229
0
LINE
8
BLACK
6
CONTINUOUS
10
5.7416217716535431
20
-2.6987586614173229
11
5.741089015748031
21
-2.6988273228346458
0
LINE
8
BLACK
6
CONTINUOUS
10
5.741089015748031
20
-2.6988273228346458
11
5.7408370472440939
21
-2.6988100787401574
0
LINE
8
BLACK
6
CONTINUOUS
10
5.7408370472440939
20
-2.6988100787401574
11
5.7401023622047243
21
-2.6988582677165356
0
LINE
8
BLACK
6
CONTINUOUS
10
5.7401023622047243
20
-2.6988582677165356
11
5.6701338582677163
21
-2.6988582677165356
0
LINE
8
BLACK
6
CONTINUOUS
10
5.6701338582677163
20
-2.6988582677165356
11
5.6465209055118111
21
-2.6988582677165356
0
LINE
8
BLACK
6
CONTINUOUS
10
5.6465209055118111
20
-2.6988582677165356
11
5.6465118110236219
21
-2.6988582677165356
0
LINE
8
BLACK
6
CONTINUOUS
10
5.6465118110236219
20
-2.6988582677165356
11
5.6454879921259842
21
-2.6987911417322832
0
LINE
8
BLACK
6
CONTINUOUS
10
5.6454879921259842
20
-2.6987911417322832
11
5.6444653149606294
21
-2.6987247244094488
0
LINE
8
BLACK
6
CONTINUOUS
10
5.6444653149606294
20
-2.6987247244094488
11
5.1663078346456688
21
-2.6360554330708661
0
LINE
8
BLACK
6
CONTINUOUS
10
5.1663078346456688
20
-2.6360554330708661
11
5.1642872440944885
21
-2.6356547244094486
0
LINE
8
BLACK
6
CONTINUOUS
10
5.1642872440944885
20
-2.6356547244094486
11
5.1642834645669291
21
-2.6356531496062994
0
LINE
8
BLACK
6
CONTINUOUS
10
5.1642834645669291
20
-2.6356531496062994
11
5.1642794488188972
21
-2.6356526377952756
0
LINE
8
BLACK
6
CONTINUOUS
10
5.1642794488188972
20
-2.6356526377952756
11
5.1623288188976373
21
-2.6349906299212598
0
LINE
8
BLACK
6
CONTINUOUS
10
5.1623288188976373
20
-2.6349906299212598
11
5.1460059842519685
21
-2.6282307874015749
0
LINE
8
BLACK
6
CONTINUOUS
10
5.1460059842519685
20
-2.6282307874015749
11
5.1441584251968502
21
-2.6273198425196851
0
LINE
8
BLACK
6
CONTINUOUS
10
5.1441584251968502
20
-2.6273198425196851
11
5.1440331496062992
21
-2.6272237007874013
0
LINE
8
BLACK
6
CONTINUOUS
10
5.1440331496062992
20
-2.6272237007874013
11
5.1438884251968506
21
-2.6271603937007875
0
LINE
8
BLACK
6
CONTINUOUS
10
5.1438884251968506
20
-2.6271603937007875
11
5.142198700787401
21
-2.6259822047244095
0
LINE
8
BLACK
6
CONTINUOUS
10
5.142198700787401
20
-2.6259822047244095
11
5.0665833858267719
21
-2.5655395669291337
0
LINE
8
BLACK
6
CONTINUOUS
10
5.0665833858267719
20
-2.5655395669291337
11
5.0614285433070867
21
-2.5676748031496062
0
LINE
8
BLACK
6
CONTINUOUS
10
5.0614285433070867
20
-2.5676748031496062
11
5.0538589370078739
21
-2.5691805118110236
0
LINE
8
BLACK
6
CONTINUOUS
10
5.0538589370078739
20
-2.5691805118110236
11
5.0461410629921257
21
-2.5691805118110236
0
LINE
8
BLACK
6
CONTINUOUS
10
5.0461410629921257
20
-2.5691805118110236
11
5.038571456692913
21
-2.5676748031496062
0
LINE
8
BLACK
6
CONTINUOUS
10
5.038571456692913
20
-2.5676748031496062
11
5.0314410629921262
21
-2.5647212992125983
0
LINE
8
BLACK
6
CONTINUOUS
10
5.0314410629921262
20
-2.5647212992125983
11
5.0250238976377952
21
-2.5604334645669291
0
LINE
8
BLACK
6
CONTINUOUS
10
5.0250238976377952
20
-2.5604334645669291
11
5.0195665354330705
21
-2.5549761023622048
0
LINE
8
BLACK
6
CONTINUOUS
10
5.0195665354330705
20
-2.5549761023622048
11
5.0152787007874018
21
-2.5485589370078738
0
LINE
8
BLACK
6
CONTINUOUS
10
5.0152787007874018
20
-2.5485589370078738
11
5.0123251968503935
21
-2.5414285433070867
0
LINE
8
BLACK
6
CONTINUOUS
10
5.0123251968503935
20
-2.5414285433070867
11
5.010819488188976
21
-2.5338589370078739
0
LINE
8
BLACK
6
CONTINUOUS
10
5.010819488188976
20
-2.5338589370078739
11
5.010819488188976
21
-2.5261410629921257
0
LINE
8
BLACK
6
CONTINUOUS
10
5.010819488188976
20
-2.5261410629921257
11
5.0123251968503935
21
-2.5185714566929134
0
LINE
8
BLACK
6
CONTINUOUS
10
5.0123251968503935
20
-2.5185714566929134
11
5.0152787007874018
21
-2.5114410629921258
0
LINE
8
BLACK
6
CONTINUOUS
10
5.0152787007874018
20
-2.5114410629921258
11
5.0195665354330705
21
-2.5050238976377952
0
LINE
8
BLACK
6
CONTINUOUS
10
5.0195665354330705
20
-2.5050238976377952
11
5.0250238976377952
21
-2.4995665354330709
0
LINE
8
BLACK
6
CONTINUOUS
10
5.0250238976377952
20
-2.4995665354330709
11
5.0297207480314956
21
-2.4964281496062992
0
LINE
8
BLACK
6
CONTINUOUS
10
5.0297207480314956
20
-2.4964281496062992
11
5.0304536220472436
21
-2.375551771653543
0
LINE
8
BLACK
6
CONTINUOUS
10
5.0304536220472436
20
-2.375551771653543
11
5.0274005905511814
21
-2.3745598031496065
0
LINE
8
BLACK
6
CONTINUOUS
10
5.0274005905511814
20
-2.3745598031496065
11
5.0191437795275586
21
-2.370352755905512
0
LINE
8
BLACK
6
CONTINUOUS
10
5.0191437795275586
20
-2.370352755905512
11
5.0116467716535436
21
-2.3649058661417324
0
LINE
8
BLACK
6
CONTINUOUS
10
5.0116467716535436
20
-2.3649058661417324
11
5.0050941338582673
21
-2.3583532283464566
0
LINE
8
BLACK
6
CONTINUOUS
10
5.0050941338582673
20
-2.3583532283464566
11
4.9996472440944881
21
-2.350856220472441
0
LINE
8
BLACK
6
CONTINUOUS
10
4.9996472440944881
20
-2.350856220472441
11
4.9954401968503932
21
-2.3425994094488187
0
LINE
8
BLACK
6
CONTINUOUS
10
4.9954401968503932
20
-2.3425994094488187
11
4.9925765748031496
21
-2.3337861417322836
0
LINE
8
BLACK
6
CONTINUOUS
10
4.9925765748031496
20
-2.3337861417322836
11
4.9911269291338582
21
-2.3246334251968501
0
LINE
8
BLACK
6
CONTINUOUS
10
4.9911269291338582
20
-2.3246334251968501
11
4.9911269291338582
21
-2.3153665748031496
0
LINE
8
BLACK
6
CONTINUOUS
10
4.9911269291338582
20
-2.3153665748031496
11
4.9925765748031496
21
-2.3062138582677165
0
LINE
8
BLACK
6
CONTINUOUS
10
4.9925765748031496
20
-2.3062138582677165
11
4.9954401968503932
21
-2.297400590551181
0
LINE
8
BLACK
6
CONTINUOUS
10
4.9954401968503932
20
-2.297400590551181
11
4.9996472440944881
21
-2.2891437795275591
0
LINE
8
BLACK
6
CONTINUOUS
10
4.9996472440944881
20
-2.2891437795275591
11
5.0050941338582673
21
-2.2816467716535431
0
LINE
8
BLACK
6
CONTINUOUS
10
5.0050941338582673
20
-2.2816467716535431
11
5.0116467716535436
21
-2.2750941338582678
0
LINE
8
BLACK
6
CONTINUOUS
10
5.0116467716535436
20
-2.2750941338582678
11
5.0191437795275586
21
-2.2696472440944881
0
LINE
8
BLACK
6
CONTINUOUS
10
5.0191437795275586
20
-2.2696472440944881
11
5.0274005905511814
21
-2.2654401968503937
0
LINE
8
BLACK
6
CONTINUOUS
10
5.0274005905511814
20
-2.2654401968503937
11
5.0362138582677165
21
-2.2625765748031497
0
LINE
8
BLACK
6
CONTINUOUS
10
5.0362138582677165
20
-2.2625765748031497
11
5.0453665748031495
21
-2.2611269291338583
0
LINE
8
BLACK
6
CONTINUOUS
10
5.0453665748031495
20
-2.2611269291338583
11
5.0506095669291335
21
-2.2611269291338583
0
LINE
8
BLACK
6
CONTINUOUS
10
5.0506095669291335
20
-2.2611269291338583
11
5.1198962598425197
21
-2.0534365354330708
0
LINE
8
BLACK
6
CONTINUOUS
10
5.1198962598425197
20
-2.0534365354330708
11
5.1164406299212599
21
-2.049980905511811
0
LINE
8
BLACK
6
CONTINUOUS
10
5.1164406299212599
20
-2.049980905511811
11
5.1130103543307088
21
-2.0448471259842518
0
LINE
8
BLACK
6
CONTINUOUS
10
5.1130103543307088
20
-2.0448471259842518
11
5.1106475590551179
21
-2.039142834645669
0
LINE
8
BLACK
6
CONTINUOUS
10
5.1106475590551179
20
-2.039142834645669
11
5.1094429921259845
21
-2.0330871653543308
0
LINE
8
BLACK
6
CONTINUOUS
10
5.1094429921259845
20
-2.0330871653543308
11
5.1094429921259845
21
-2.0269128346456693
0
LINE
8
BLACK
6
CONTINUOUS
10
5.1094429921259845
20
-2.0269128346456693
11
5.1106475590551179
21
-2.0208571653543306
0
LINE
8
BLACK
6
CONTINUOUS
10
5.1106475590551179
20
-2.0208571653543306
11
5.1130103543307088
21
-2.0151528740157478
0
LINE
8
BLACK
6
CONTINUOUS
10
5.1130103543307088
20
-2.0151528740157478
11
5.1164406299212599
21
-2.0100190944881891
0
LINE
8
BLACK
6
CONTINUOUS
10
5.1164406299212599
20
-2.0100190944881891
11
5.1208064960629924
21
-2.0056532283464565
0
LINE
8
BLACK
6
CONTINUOUS
10
5.1208064960629924
20
-2.0056532283464565
11
5.1259402755905512
21
-2.0022229527559054
0
LINE
8
BLACK
6
CONTINUOUS
10
5.1259402755905512
20
-2.0022229527559054
11
5.1316445669291335
21
-1.999860157480315
0
LINE
8
BLACK
6
CONTINUOUS
10
5.1316445669291335
20
-1.999860157480315
11
5.1377002362204722
21
-1.9986555905511811
0
LINE
8
BLACK
6
CONTINUOUS
10
5.1377002362204722
20
-1.9986555905511811
11
5.1438745669291341
21
-1.9986555905511811
0
LINE
8
BLACK
6
CONTINUOUS
10
5.1438745669291341
20
-1.9986555905511811
11
5.149930236220472
21
-1.999860157480315
0
LINE
8
BLACK
6
CONTINUOUS
10
5.0614285433070867
20
-2.8923251968503938
11
5.0685589370078743
21
-2.8952787007874017
0
LINE
8
BLACK
6
CONTINUOUS
10
5.0685589370078743
20
-2.8952787007874017
11
5.0749761023622044
21
-2.8995665354330709
0
LINE
8
BLACK
6
CONTINUOUS
10
5.0749761023622044
20
-2.8995665354330709
11
5.0804334645669291
21
-2.9050238976377951
0
LINE
8
BLACK
6
CONTINUOUS
10
5.0804334645669291
20
-2.9050238976377951
11
5.0847212992125987
21
-2.9114410629921261
0
LINE
8
BLACK
6
CONTINUOUS
10
5.0847212992125987
20
-2.9114410629921261
11
5.0876748031496062
21
-2.9185714566929133
0
LINE
8
BLACK
6
CONTINUOUS
10
5.0876748031496062
20
-2.9185714566929133
11
5.0891805118110236
21
-2.9261410629921261
0
LINE
8
BLACK
6
CONTINUOUS
10
5.0891805118110236
20
-2.9261410629921261
11
5.0891805118110236
21
-2.9338589370078738
0
LINE
8
BLACK
6
CONTINUOUS
10
5.0891805118110236
20
-2.9338589370078738
11
5.0876748031496062
21
-2.9414285433070866
0
LINE
8
BLACK
6
CONTINUOUS
10
5.0876748031496062
20
-2.9414285433070866
11
5.0847212992125987
21
-2.9485589370078737
0
LINE
8
BLACK
6
CONTINUOUS
10
5.0847212992125987
20
-2.9485589370078737
11
5.0834938582677163
21
-2.9503958661417324
0
LINE
8
BLACK
6
CONTINUOUS
10
5.0834938582677163
20
-2.9503958661417324
11
5.1769286220472441
21
-3.0653382283464565
0
LINE
8
BLACK
6
CONTINUOUS
10
5.1769286220472441
20
-3.0653382283464565
11
5.1781206692913386
21
-3.0670182283464564
0
LINE
8
BLACK
6
CONTINUOUS
10
5.1781206692913386
20
-3.0670182283464564
11
5.1782096456692912
21
-3.0672170472440943
0
LINE
8
BLACK
6
CONTINUOUS
10
5.1782096456692912
20
-3.0672170472440943
11
5.1783422834645672
21
-3.0673897244094488
0
LINE
8
BLACK
6
CONTINUOUS
10
5.1783422834645672
20
-3.0673897244094488
11
5.1792544488188978
21
-3.0692366929133859
0
LINE
8
BLACK
6
CONTINUOUS
10
5.1792544488188978
20
-3.0692366929133859
11
5.1800221653543304
21
-3.0710870866141731
0
LINE
8
BLACK
6
CONTINUOUS
10
5.1800221653543304
20
-3.0710870866141731
11
5.1806854330708658
21
-3.0730373228346455
0
LINE
8
BLACK
6
CONTINUOUS
10
5.1806854330708658
20
-3.0730373228346455
11
5.1807266535433065
21
-3.073349212598425
0
LINE
8
BLACK
6
CONTINUOUS
10
5.1807266535433065
20
-3.073349212598425
11
5.1808356692913389
21
-3.0736445275590549
0
LINE
8
BLACK
6
CONTINUOUS
10
5.1808356692913389
20
-3.0736445275590549
11
5.1811581496062988
21
-3.0756790551181101
0
LINE
8
BLACK
6
CONTINUOUS
10
5.1811581496062988
20
-3.0756790551181101
11
5.183563188976378
21
-3.1018161023622048
0
LINE
8
BLACK
6
CONTINUOUS
10
5.183563188976378
20
-3.1018161023622048
11
5.1847066141732281
21
-3.1022897244094487
0
LINE
8
BLACK
6
CONTINUOUS
10
5.1847066141732281
20
-3.1022897244094487
11
5.1895194881889761
21
-3.1055055905511812
0
LINE
8
BLACK
6
CONTINUOUS
10
5.1895194881889761
20
-3.1055055905511812
11
5.1936125196850389
21
-3.109598622047244
0
LINE
8
BLACK
6
CONTINUOUS
10
5.1936125196850389
20
-3.109598622047244
11
5.1968283858267714
21
-3.1144114960629921
0
LINE
8
BLACK
6
CONTINUOUS
10
5.1968283858267714
20
-3.1144114960629921
11
5.1990435039370073
21
-3.1197592913385828
0
LINE
8
BLACK
6
CONTINUOUS
10
5.1990435039370073
20
-3.1197592913385828
11
5.2001727952755905
21
-3.1254364960629921
0
LINE
8
BLACK
6
CONTINUOUS
10
5.2001727952755905
20
-3.1254364960629921
11
5.200314960629921
21
-3.1283307086614172
0
LINE
8
BLACK
6
CONTINUOUS
10
5.200314960629921
20
-3.1283307086614172
11
5.200314960629921
21
-3.1480157480314959
0
LINE
8
BLACK
6
CONTINUOUS
10
5.200314960629921
20
-3.1480157480314959
11
5.2001727952755905
21
-3.1509099606299213
0
LINE
8
BLACK
6
CONTINUOUS
10
5.2001727952755905
20
-3.1509099606299213
11
5.1990435039370073
21
-3.1565871653543307
0
LINE
8
BLACK
6
CONTINUOUS
10
5.1990435039370073
20
-3.1565871653543307
11
5.1968283858267714
21
-3.1619349606299214
0
LINE
8
BLACK
6
CONTINUOUS
10
5.1968283858267714
20
-3.1619349606299214
11
5.1936125196850389
21
-3.166747834645669
0
LINE
8
BLACK
6
CONTINUOUS
10
5.1936125196850389
20
-3.166747834645669
11
5.1895194881889761
21
-3.1708408661417322
0
LINE
8
BLACK
6
CONTINUOUS
10
5.1895194881889761
20
-3.1708408661417322
11
5.1847066141732281
21
-3.1740567322834643
0
LINE
8
BLACK
6
CONTINUOUS
10
5.1847066141732281
20
-3.1740567322834643
11
5.1793588188976374
21
-3.1762718503937006
0
LINE
8
BLACK
6
CONTINUOUS
10
5.1793588188976374
20
-3.1762718503937006
11
5.173681614173228
21
-3.1774011417322834
0
LINE
8
BLACK
6
CONTINUOUS
10
5.173681614173228
20
-3.1774011417322834
11
5.1678931889763779
21
-3.1774011417322834
0
LINE
8
BLACK
6
CONTINUOUS
10
5.1678931889763779
20
-3.1774011417322834
11
5.1622159842519686
21
-3.1762718503937006
0
LINE
8
BLACK
6
CONTINUOUS
10
5.1622159842519686
20
-3.1762718503937006
11
5.1568681889763779
21
-3.1740567322834643
0
LINE
8
BLACK
6
CONTINUOUS
10
5.1568681889763779
20
-3.1740567322834643
11
5.1520553149606299
21
-3.1708408661417322
0
LINE
8
BLACK
6
CONTINUOUS
10
5.1520553149606299
20
-3.1708408661417322
11
5.1479622834645671
21
-3.166747834645669
0
LINE
8
BLACK
6
CONTINUOUS
10
5.1479622834645671
20
-3.166747834645669
11
5.1447464173228346
21
-3.1619349606299214
0
LINE
8
BLACK
6
CONTINUOUS
10
5.1447464173228346
20
-3.1619349606299214
11
5.1425312992125987
21
-3.1565871653543307
0
LINE
8
BLACK
6
CONTINUOUS
10
5.1425312992125987
20
-3.1565871653543307
11
5.1414020078740155
21
-3.1509099606299213
0
LINE
8
BLACK
6
CONTINUOUS
10
5.1414020078740155
20
-3.1509099606299213
11
5.1412598425196849
21
-3.1480157480314959
0
LINE
8
BLACK
6
CONTINUOUS
10
5.1412598425196849
20
-3.1480157480314959
11
5.1412598425196849
21
-3.1283307086614172
0
LINE
8
BLACK
6
CONTINUOUS
10
5.1412598425196849
20
-3.1283307086614172
11
5.1414020078740155
21
-3.1254364960629921
0
LINE
8
BLACK
6
CONTINUOUS
10
5.1414020078740155
20
-3.1254364960629921
11
5.1425312992125987
21
-3.1197592913385828
0
LINE
8
BLACK
6
CONTINUOUS
10
5.1425312992125987
20
-3.1197592913385828
11
5.1447464173228346
21
-3.1144114960629921
0
LINE
8
BLACK
6
CONTINUOUS
10
5.1447464173228346
20
-3.1144114960629921
11
5.1479622834645671
21
-3.109598622047244
0
LINE
8
BLACK
6
CONTINUOUS
10
5.1479622834645671
20
-3.109598622047244
11
5.1520553149606299
21
-3.1055055905511812
0
LINE
8
BLACK
6
CONTINUOUS
10
5.1520553149606299
20
-3.1055055905511812
11
5.1522609448818892
21
-3.1053681496062993
0
LINE
8
BLACK
6
CONTINUOUS
10
5.1522609448818892
20
-3.1053681496062993
11
5.1501396850393704
21
-3.0823153543307087
0
LINE
8
BLACK
6
CONTINUOUS
10
5.1501396850393704
20
-3.0823153543307087
11
5.0575735826771648
21
-2.9684415748031494
0
LINE
8
BLACK
6
CONTINUOUS
10
5.0575735826771648
20
-2.9684415748031494
11
5.0538589370078739
21
-2.9691805118110235
0
LINE
8
BLACK
6
CONTINUOUS
10
5.0538589370078739
20
-2.9691805118110235
11
5.0461410629921257
21
-2.9691805118110235
0
LINE
8
BLACK
6
CONTINUOUS
10
5.0461410629921257
20
-2.9691805118110235
11
5.038571456692913
21
-2.9676748031496061
0
LINE
8
BLACK
6
CONTINUOUS
10
5.038571456692913
20
-2.9676748031496061
11
5.0314410629921262
21
-2.9647212992125982
0
LINE
8
BLACK
6
CONTINUOUS
10
5.0314410629921262
20
-2.9647212992125982
11
5.0250238976377952
21
-2.960433464566929
0
LINE
8
BLACK
6
CONTINUOUS
10
5.0250238976377952
20
-2.960433464566929
11
5.0195665354330705
21
-2.9549761023622048
0
LINE
8
BLACK
6
CONTINUOUS
10
5.0195665354330705
20
-2.9549761023622048
11
5.0152787007874018
21
-2.9485589370078737
0
LINE
8
BLACK
6
CONTINUOUS
10
5.0152787007874018
20
-2.9485589370078737
11
5.0123251968503935
21
-2.9414285433070866
0
LINE
8
BLACK
6
CONTINUOUS
10
5.0123251968503935
20
-2.9414285433070866
11
5.010819488188976
21
-2.9338589370078738
0
LINE
8
BLACK
6
CONTINUOUS
10
5.010819488188976
20
-2.9338589370078738
11
5.010819488188976
21
-2.9261410629921261
0
LINE
8
BLACK
6
CONTINUOUS
10
5.010819488188976
20
-2.9261410629921261
11
5.0123251968503935
21
-2.9185714566929133
0
LINE
8
BLACK
6
CONTINUOUS
10
5.0123251968503935
20
-2.9185714566929133
11
5.0152787007874018
21
-2.9114410629921261
0
LINE
8
BLACK
6
CONTINUOUS
10
5.0152787007874018
20
-2.9114410629921261
11
5.0195665354330705
21
-2.9050238976377951
0
LINE
8
BLACK
6
CONTINUOUS
10
5.0195665354330705
20
-2.9050238976377951
11
5.0250238976377952
21
-2.8995665354330709
0
LINE
8
BLACK
6
CONTINUOUS
10
5.0250238976377952
20
-2.8995665354330709
11
5.0314410629921262
21
-2.8952787007874017
0
LINE
8
BLACK
6
CONTINUOUS
10
5.0314410629921262
20
-2.8952787007874017
11
5.038571456692913
21
-2.8923251968503938
0
LINE
8
BLACK
6
CONTINUOUS
10
5.038571456692913
20
-2.8923251968503938
11
5.0461410629921257
21
-2.8908194881889764
0
LINE
8
BLACK
6
CONTINUOUS
10
5.0461410629921257
20
-2.8908194881889764
11
5.0538589370078739
21
-2.8908194881889764
0
LINE
8
BLACK
6
CONTINUOUS
10
5.0538589370078739
20
-2.8908194881889764
11
5.0614285433070867
21
-2.8923251968503938
0
LINE
8
BLACK
6
CONTINUOUS
10
5.7742519685039371
20
-1.8859055118110235
11
5.9927558267716536
21
-1.8859055118110235
0
LINE
8
BLACK
6
CONTINUOUS
10
5.9927558267716536
20
-1.8859055118110235
11
5.9927559055118111
21
-1.8859055118110235
0
LINE
8
BLACK
6
CONTINUOUS
10
5.9927559055118111
20
-1.8859055118110235
11
5.9965224803149608
21
-1.8866547244094487
0
LINE
8
BLACK
6
CONTINUOUS
10
5.9965224803149608
20
-1.8866547244094487
11
5.9997156299212593
21
-1.888788307086614
0
LINE
8
BLACK
6
CONTINUOUS
10
5.9997156299212593
20
-1.888788307086614
11
6.0018492125984251
21
-1.8919814566929134
0
LINE
8
BLACK
6
CONTINUOUS
10
6.0018492125984251
20
-1.8919814566929134
11
6.0018492125984251
21
-1.8919814960629922
0
LINE
8
BLACK
6
CONTINUOUS
10
6.0018492125984251
20
-1.8919814960629922
11
6.0025984251968501
21
-1.8957481102362204
0
LINE
8
BLACK
6
CONTINUOUS
10
6.0025984251968501
20
-1.8957481102362204
11
6.0025984251968501
21
-2.0866929133858267
0
LINE
8
BLACK
6
CONTINUOUS
10
6.0025984251968501
20
-2.0866929133858267
11
6.0025984251968501
21
-2.234251968503937
0
LINE
8
BLACK
6
CONTINUOUS
10
6.0025984251968501
20
-2.234251968503937
11
6.0059448818897634
21
-2.234251968503937
0
LINE
8
BLACK
6
CONTINUOUS
10
6.0059448818897634
20
-2.234251968503937
11
6.0140984251968499
21
-2.234251968503937
0
LINE
8
BLACK
6
CONTINUOUS
10
6.0140984251968499
20
-2.234251968503937
11
6.014860905511811
21
-2.2343019291338582
0
LINE
8
BLACK
6
CONTINUOUS
10
6.014860905511811
20
-2.2343019291338582
11
6.0156244094488187
21
-2.2343112204724407
0
LINE
8
BLACK
6
CONTINUOUS
10
6.0156244094488187
20
-2.2343112204724407
11
6.0844844094488186
21
-2.2396653543307088
0
LINE
8
BLACK
6
CONTINUOUS
10
6.0844844094488186
20
-2.2396653543307088
11
6.0888110236220472
21
-2.2396653543307088
0
LINE
8
BLACK
6
CONTINUOUS
10
6.0888110236220472
20
-2.2396653543307088
11
6.1164094488188976
21
-2.2396653543307088
0
LINE
8
BLACK
6
CONTINUOUS
10
6.1164094488188976
20
-2.2396653543307088
11
6.1189788582677167
21
-2.2398337795275589
0
LINE
8
BLACK
6
CONTINUOUS
10
6.1189788582677167
20
-2.2398337795275589
11
6.1239425984251969
21
-2.2411637795275592
0
LINE
8
BLACK
6
CONTINUOUS
10
6.1239425984251969
20
-2.2411637795275592
11
6.1283929527559051
21
-2.2437331889763779
0
LINE
8
BLACK
6
CONTINUOUS
10
6.1283929527559051
20
-2.2437331889763779
11
6.1285574015748034
21
-2.2438976377952757
0
LINE
8
BLACK
6
CONTINUOUS
10
6.1285574015748034
20
-2.2438976377952757
11
6.1377165354330705
21
-2.2438976377952757
0
LINE
8
BLACK
6
CONTINUOUS
10
6.1377165354330705
20
-2.2438976377952757
11
6.1414831102362202
21
-2.2446468503937007
0
LINE
8
BLACK
6
CONTINUOUS
10
6.1414831102362202
20
-2.2446468503937007
11
6.1446762598425195
21
-2.2467804330708661
0
LINE
8
BLACK
6
CONTINUOUS
10
6.1446762598425195
20
-2.2467804330708661
11
6.1468098425196853
21
-2.2499735826771654
0
LINE
8
BLACK
6
CONTINUOUS
10
6.1468098425196853
20
-2.2499735826771654
11
6.1475590551181103
21
-2.2537401574803151
0
LINE
8
BLACK
6
CONTINUOUS
10
6.1475590551181103
20
-2.2537401574803151
11
6.1475590551181103
21
-2.2744094488188975
0
LINE
8
BLACK
6
CONTINUOUS
10
6.1475590551181103
20
-2.2744094488188975
11
6.1468098425196853
21
-2.2781760236220472
0
LINE
8
BLACK
6
CONTINUOUS
10
6.1468098425196853
20
-2.2781760236220472
11
6.1446762598425195
21
-2.2813691732283465
0
LINE
8
BLACK
6
CONTINUOUS
10
6.1446762598425195
20
-2.2813691732283465
11
6.1414831102362202
21
-2.2835027559055119
0
LINE
8
BLACK
6
CONTINUOUS
10
6.1414831102362202
20
-2.2835027559055119
11
6.1377165354330705
21
-2.2842519685039369
0
LINE
8
BLACK
6
CONTINUOUS
10
6.1377165354330705
20
-2.2842519685039369
11
6.1022834645669288
21
-2.2842519685039369
0
LINE
8
BLACK
6
CONTINUOUS
10
6.1022834645669288
20
-2.2842519685039369
11
6.0985168897637791
21
-2.2835027559055119
0
LINE
8
BLACK
6
CONTINUOUS
10
6.0985168897637791
20
-2.2835027559055119
11
6.0953237401574798
21
-2.2813691732283465
0
LINE
8
BLACK
6
CONTINUOUS
10
6.0953237401574798
20
-2.2813691732283465
11
6.093764409448819
21
-2.2790354330708662
0
LINE
8
BLACK
6
CONTINUOUS
10
6.093764409448819
20
-2.2790354330708662
11
6.0888110236220472
21
-2.2790354330708662
0
LINE
8
BLACK
6
CONTINUOUS
10
6.0888110236220472
20
-2.2790354330708662
11
6.0837204724409446
21
-2.2790354330708662
0
LINE
8
BLACK
6
CONTINUOUS
10
6.0837204724409446
20
-2.2790354330708662
11
6.0829579527559057
21
-2.2789854330708659
0
LINE
8
BLACK
6
CONTINUOUS
10
6.0829579527559057
20
-2.2789854330708659
11
6.0821945275590545
21
-2.2789761811023621
0
LINE
8
BLACK
6
CONTINUOUS
10
6.0821945275590545
20
-2.2789761811023621
11
6.0133344881889759
21
-2.2736220472440944
0
LINE
8
BLACK
6
CONTINUOUS
10
6.0133344881889759
20
-2.2736220472440944
11
6.0059448818897634
21
-2.2736220472440944
0
LINE
8
BLACK
6
CONTINUOUS
10
6.0059448818897634
20
-2.2736220472440944
11
5.9862598425196847
21
-2.2736220472440944
0
LINE
8
BLACK
6
CONTINUOUS
10
5.9862598425196847
20
-2.2736220472440944
11
5.9836904330708656
21
-2.2734536220472439
0
LINE
8
BLACK
6
CONTINUOUS
10
5.9836904330708656
20
-2.2734536220472439
11
5.9827500000000002
21
-2.2732016141732281
0
LINE
8
BLACK
6
CONTINUOUS
10
5.9827500000000002
20
-2.2732016141732281
11
5.981780748031496
21
-2.2731057086614173
0
LINE
8
BLACK
6
CONTINUOUS
10
5.981780748031496
20
-2.2731057086614173
11
5.9802779527559053
21
-2.2725392519685039
0
LINE
8
BLACK
6
CONTINUOUS
10
5.9802779527559053
20
-2.2725392519685039
11
5.9787266929133853
21
-2.2721236220472441
0
LINE
8
BLACK
6
CONTINUOUS
10
5.9787266929133853
20
-2.2721236220472441
11
5.9778831889763779
21
-2.2716366141732283
0
LINE
8
BLACK
6
CONTINUOUS
10
5.9778831889763779
20
-2.2716366141732283
11
5.9769721259842514
21
-2.2712932283464569
0
LINE
8
BLACK
6
CONTINUOUS
10
5.9769721259842514
20
-2.2712932283464569
11
5.9747861417322836
21
-2.2699324803149605
0
LINE
8
BLACK
6
CONTINUOUS
10
5.9747861417322836
20
-2.2699324803149605
11
5.9553409448818897
21
-2.2559842519685041
0
LINE
8
BLACK
6
CONTINUOUS
10
5.9553409448818897
20
-2.2559842519685041
11
5.805748031496063
21
-2.2559842519685041
0
LINE
8
BLACK
6
CONTINUOUS
10
5.805748031496063
20
-2.2559842519685041
11
5.7983163385826773
21
-2.2559842519685041
0
LINE
8
BLACK
6
CONTINUOUS
10
5.7983163385826773
20
-2.2559842519685041
11
5.7974960629921259
21
-2.2647391338582676
0
LINE
8
BLACK
6
CONTINUOUS
10
5.7974960629921259
20
-2.2647391338582676
11
5.7974960629921259
21
-2.283503937007874
0
LINE
8
BLACK
6
CONTINUOUS
10
5.7974960629921259
20
-2.283503937007874
11
5.7974960629921259
21
-2.2836102362204724
0
LINE
8
BLACK
6
CONTINUOUS
10
5.7974960629921259
20
-2.2836102362204724
11
5.7974873228346455
21
-2.2837431102362205
0
LINE
8
BLACK
6
CONTINUOUS
10
5.7974873228346455
20
-2.2837431102362205
11
5.7974942519685042
21
-2.2838758267716535
0
LINE
8
BLACK
6
CONTINUOUS
10
5.7974942519685042
20
-2.2838758267716535
11
5.7937383464566929
21
-2.562234094488189
0
LINE
8
BLACK
6
CONTINUOUS
10
5.7937383464566929
20
-2.562234094488189
11
5.7936783070866138
21
-2.5629925590551181
0
LINE
8
BLACK
6
CONTINUOUS
10
5.7936783070866138
20
-2.5629925590551181
11
5.7936966535433072
21
-2.5632765354330709
0
LINE
8
BLACK
6
CONTINUOUS
10
5.7936966535433072
20
-2.5632765354330709
11
5.7935956692913386
21
-2.5640370866141731
0
LINE
8
BLACK
6
CONTINUOUS
10
5.7935956692913386
20
-2.5640370866141731
11
5.7935352755905507
21
-2.5648009842519683
0
LINE
8
BLACK
6
CONTINUOUS
10
5.7935352755905507
20
-2.5648009842519683
11
5.7934579921259841
21
-2.5650744488188977
0
LINE
8
BLACK
6
CONTINUOUS
10
5.7934579921259841
20
-2.5650744488188977
11
5.7933578740157481
21
-2.56582905511811
0
LINE
8
BLACK
6
CONTINUOUS
10
5.7933578740157481
20
-2.56582905511811
11
5.7926019685039369
21
-2.5696085826771653
0
LINE
8
BLACK
6
CONTINUOUS
10
5.7926019685039369
20
-2.5696085826771653
11
5.792355748031496
21
-2.570523464566929
0
LINE
8
BLACK
6
CONTINUOUS
10
5.792355748031496
20
-2.570523464566929
11
5.7923140551181103
21
-2.5708407480314959
0
LINE
8
BLACK
6
CONTINUOUS
10
5.7923140551181103
20
-2.5708407480314959
11
5.7921032677165352
21
-2.5714618503937006
0
LINE
8
BLACK
6
CONTINUOUS
10
5.7921032677165352
20
-2.5714618503937006
11
5.7919329133858266
21
-2.5720950787401575
0
LINE
8
BLACK
6
CONTINUOUS
10
5.7919329133858266
20
-2.5720950787401575
11
5.7917911023622048
21
-2.5723818110236221
0
LINE
8
BLACK
6
CONTINUOUS
10
5.7917911023622048
20
-2.5723818110236221
11
5.7914866535433074
21
-2.5732791338582675
0
LINE
8
BLACK
6
CONTINUOUS
10
5.7914866535433074
20
-2.5732791338582675
11
5.7901205118110237
21
-2.5765783464566927
0
LINE
8
BLACK
6
CONTINUOUS
10
5.7901205118110237
20
-2.5765783464566927
11
5.7896955118110238
21
-2.5774403543307085
0
LINE
8
BLACK
6
CONTINUOUS
10
5.7896955118110238
20
-2.5774403543307085
11
5.7895922047244097
21
-2.5777452362204722
0
LINE
8
BLACK
6
CONTINUOUS
10
5.7895922047244097
20
-2.5777452362204722
11
5.789268582677165
21
-2.5783063779527557
0
LINE
8
BLACK
6
CONTINUOUS
10
5.789268582677165
20
-2.5783063779527557
11
5.7889819291338585
21
-2.5788878346456694
0
LINE
8
BLACK
6
CONTINUOUS
10
5.7889819291338585
20
-2.5788878346456694
11
5.7887858661417324
21
-2.5791433858267716
0
LINE
8
BLACK
6
CONTINUOUS
10
5.7887858661417324
20
-2.5791433858267716
11
5.7883058267716532
21
-2.5799757874015747
0
LINE
8
BLACK
6
CONTINUOUS
10
5.7883058267716532
20
-2.5799757874015747
11
5.7861640944881891
21
-2.5831844881889765
0
LINE
8
BLACK
6
CONTINUOUS
10
5.7861640944881891
20
-2.5831844881889765
11
5.7855704724409449
21
-2.5839588188976377
0
LINE
8
BLACK
6
CONTINUOUS
10
5.7855704724409449
20
-2.5839588188976377
11
5.785408503937008
21
-2.584239409448819
0
LINE
8
BLACK
6
CONTINUOUS
10
5.785408503937008
20
-2.584239409448819
11
5.7849867322834641
21
-2.5847203149606299
0
LINE
8
BLACK
6
CONTINUOUS
10
5.7849867322834641
20
-2.5847203149606299
11
5.7845975590551184
21
-2.585228031496063
0
LINE
8
BLACK
6
CONTINUOUS
10
5.7845975590551184
20
-2.585228031496063
11
5.7843540551181105
21
-2.5854417716535432
0
LINE
8
BLACK
6
CONTINUOUS
10
5.7843540551181105
20
-2.5854417716535432
11
5.7837107480314955
21
-2.5861753543307087
0
LINE
8
BLACK
6
CONTINUOUS
10
5.7837107480314955
20
-2.5861753543307087
11
5.7519194094488189
21
-2.617966653543307
0
LINE
8
BLACK
6
CONTINUOUS
10
5.7519194094488189
20
-2.617966653543307
11
5.75119342519685
21
-2.6186032677165354
0
LINE
8
BLACK
6
CONTINUOUS
10
5.75119342519685
20
-2.6186032677165354
11
5.7509805511811019
21
-2.6188461023622045
0
LINE
8
BLACK
6
CONTINUOUS
10
5.7509805511811019
20
-2.6188461023622045
11
5.7504681889763782
21
-2.6192392913385825
0
LINE
8
BLACK
6
CONTINUOUS
10
5.7504681889763782
20
-2.6192392913385825
11
5.7499834645669292
21
-2.6196644094488186
0
LINE
8
BLACK
6
CONTINUOUS
10
5.7499834645669292
20
-2.6196644094488186
11
5.7497042125984255
21
-2.6198255905511809
0
LINE
8
BLACK
6
CONTINUOUS
10
5.7497042125984255
20
-2.6198255905511809
11
5.7489378740157475
21
-2.6204137795275591
0
LINE
8
BLACK
6
CONTINUOUS
10
5.7489378740157475
20
-2.6204137795275591
11
5.7457331102362206
21
-2.6225555511811023
0
LINE
8
BLACK
6
CONTINUOUS
10
5.7457331102362206
20
-2.6225555511811023
11
5.7448924409448816
21
-2.6230409842519684
0
LINE
8
BLACK
6
CONTINUOUS
10
5.7448924409448816
20
-2.6230409842519684
11
5.7446358661417323
21
-2.6232378346456691
0
LINE
8
BLACK
6
CONTINUOUS
10
5.7446358661417323
20
-2.6232378346456691
11
5.7440596062992126
21
-2.6235218897637793
0
LINE
8
BLACK
6
CONTINUOUS
10
5.7440596062992126
20
-2.6235218897637793
11
5.7435032677165356
21
-2.623843188976378
0
LINE
8
BLACK
6
CONTINUOUS
10
5.7435032677165356
20
-2.623843188976378
11
5.7431970078740155
21
-2.6239471653543305
0
LINE
8
BLACK
6
CONTINUOUS
10
5.7431970078740155
20
-2.6239471653543305
11
5.7423263385826768
21
-2.6243764173228348
0
LINE
8
BLACK
6
CONTINUOUS
10
5.7423263385826768
20
-2.6243764173228348
11
5.7390271653543303
21
-2.625742559055118
0
LINE
8
BLACK
6
CONTINUOUS
10
5.7390271653543303
20
-2.625742559055118
11
5.7381135826771654
21
-2.6260525196850395
0
LINE
8
BLACK
6
CONTINUOUS
10
5.7381135826771654
20
-2.6260525196850395
11
5.7378244488188974
21
-2.6261951574803151
0
LINE
8
BLACK
6
CONTINUOUS
10
5.7378244488188974
20
-2.6261951574803151
11
5.7372006299212597
21
-2.6263623228346455
0
LINE
8
BLACK
6
CONTINUOUS
10
5.7372006299212597
20
-2.6263623228346455
11
5.7365887795275592
21
-2.6265699606299213
0
LINE
8
BLACK
6
CONTINUOUS
10
5.7365887795275592
20
-2.6265699606299213
11
5.7362689763779526
21
-2.6266120078740158
0
LINE
8
BLACK
6
CONTINUOUS
10
5.7362689763779526
20
-2.6266120078740158
11
5.7353372834645668
21
-2.6268617322834644
0
LINE
8
BLACK
6
CONTINUOUS
10
5.7353372834645668
20
-2.6268617322834644
11
5.731557755905512
21
-2.6276137007874016
0
LINE
8
BLACK
6
CONTINUOUS
10
5.731557755905512
20
-2.6276137007874016
11
5.7305978740157482
21
-2.627740118110236
0
LINE
8
BLACK
6
CONTINUOUS
10
5.7305978740157482
20
-2.627740118110236
11
5.7302859448818895
21
-2.6278237007874017
0
LINE
8
BLACK
6
CONTINUOUS
10
5.7302859448818895
20
-2.6278237007874017
11
5.7296435039370079
21
-2.6278657874015749
0
LINE
8
BLACK
6
CONTINUOUS
10
5.7296435039370079
20
-2.6278657874015749
11
5.7290048818897636
21
-2.6279499212598423
0
LINE
8
BLACK
6
CONTINUOUS
10
5.7290048818897636
20
-2.6279499212598423
11
5.7286824803149603
21
-2.6279287795275592
0
LINE
8
BLACK
6
CONTINUOUS
10
5.7286824803149603
20
-2.6279287795275592
11
5.7277165354330704
21
-2.6279921259842518
0
LINE
8
BLACK
6
CONTINUOUS
10
5.7277165354330704
20
-2.6279921259842518
11
5.6825196850393702
21
-2.6279921259842518
0
LINE
8
BLACK
6
CONTINUOUS
10
5.6825196850393702
20
-2.6279921259842518
11
5.6588976377952758
21
-2.6279921259842518
0
LINE
8
BLACK
6
CONTINUOUS
10
5.6588976377952758
20
-2.6279921259842518
11
5.6579316535433071
21
-2.6279287795275592
0
LINE
8
BLACK
6
CONTINUOUS
10
5.6579316535433071
20
-2.6279287795275592
11
5.6576093307086612
21
-2.6279499212598423
0
LINE
8
BLACK
6
CONTINUOUS
10
5.6576093307086612
20
-2.6279499212598423
11
5.6569707086614169
21
-2.6278657874015749
0
LINE
8
BLACK
6
CONTINUOUS
10
5.6569707086614169
20
-2.6278657874015749
11
5.6563282283464567
21
-2.6278237007874017
0
LINE
8
BLACK
6
CONTINUOUS
10
5.6563282283464567
20
-2.6278237007874017
11
5.6560162204724405
21
-2.6277400787401572
0
LINE
8
BLACK
6
CONTINUOUS
10
5.6560162204724405
20
-2.6277400787401572
11
5.6550564566929129
21
-2.6276137007874016
0
LINE
8
BLACK
6
CONTINUOUS
10
5.6550564566929129
20
-2.6276137007874016
11
5.6512768897637793
21
-2.6268617322834644
0
LINE
8
BLACK
6
CONTINUOUS
10
5.6512768897637793
20
-2.6268617322834644
11
5.6507284645669289
21
-2.6267147244094486
0
LINE
8
BLACK
6
CONTINUOUS
10
5.6507284645669289
20
-2.6267147244094486
11
5.6501707480314955
21
-2.626608307086614
0
LINE
8
BLACK
6
CONTINUOUS
10
5.6501707480314955
20
-2.626608307086614
11
5.3791695669291339
21
-2.5562399606299211
0
LINE
8
BLACK
6
CONTINUOUS
10
5.3791695669291339
20
-2.5562399606299211
11
5.3749761023622042
21
-2.5604334645669291
0
LINE
8
BLACK
6
CONTINUOUS
10
5.3749761023622042
20
-2.5604334645669291
11
5.3685589370078741
21
-2.5647212992125983
0
LINE
8
BLACK
6
CONTINUOUS
10
5.3685589370078741
20
-2.5647212992125983
11
5.3614285433070865
21
-2.5676748031496062
0
LINE
8
BLACK
6
CONTINUOUS
10
5.3614285433070865
20
-2.5676748031496062
11
5.3538589370078737
21
-2.5691805118110236
0
LINE
8
BLACK
6
CONTINUOUS
10
5.3538589370078737
20
-2.5691805118110236
11
5.3461410629921255
21
-2.5691805118110236
0
LINE
8
BLACK
6
CONTINUOUS
10
5.3461410629921255
20
-2.5691805118110236
11
5.3385714566929137
21
-2.5676748031496062
0
LINE
8
BLACK
6
CONTINUOUS
10
5.3385714566929137
20
-2.5676748031496062
11
5.3314410629921261
21
-2.5647212992125983
0
LINE
8
BLACK
6
CONTINUOUS
10
5.3314410629921261
20
-2.5647212992125983
11
5.325023897637795
21
-2.5604334645669291
0
LINE
8
BLACK
6
CONTINUOUS
10
5.325023897637795
20
-2.5604334645669291
11
5.3195665354330703
21
-2.5549761023622048
0
LINE
8
BLACK
6
CONTINUOUS
10
5.3195665354330703
20
-2.5549761023622048
11
5.3152787007874016
21
-2.5485589370078738
0
LINE
8
BLACK
6
CONTINUOUS
10
5.3152787007874016
20
-2.5485589370078738
11
5.3143186614173228
21
-2.5462412204724409
0
LINE
8
BLACK
6
CONTINUOUS
10
5.3143186614173228
20
-2.5462412204724409
11
5.2358498425196851
21
-2.5458343307086615
0
LINE
8
BLACK
6
CONTINUOUS
10
5.2358498425196851
20
-2.5458343307086615
11
5.2347212992125982
21
-2.5485589370078738
0
LINE
8
BLACK
6
CONTINUOUS
10
5.2347212992125982
20
-2.5485589370078738
11
5.2304334645669286
21
-2.5549761023622048
0
LINE
8
BLACK
6
CONTINUOUS
10
5.2304334645669286
20
-2.5549761023622048
11
5.2249761023622048
21
-2.5604334645669291
0
LINE
8
BLACK
6
CONTINUOUS
10
5.2249761023622048
20
-2.5604334645669291
11
5.2185589370078738
21
-2.5647212992125983
0
LINE
8
BLACK
6
CONTINUOUS
10
5.2185589370078738
20
-2.5647212992125983
11
5.2114285433070862
21
-2.5676748031496062
0
LINE
8
BLACK
6
CONTINUOUS
10
5.2114285433070862
20
-2.5676748031496062
11
5.2038589370078743
21
-2.5691805118110236
0
LINE
8
BLACK
6
CONTINUOUS
10
5.2038589370078743
20
-2.5691805118110236
11
5.1961410629921261
21
-2.5691805118110236
0
LINE
8
BLACK
6
CONTINUOUS
10
5.1961410629921261
20
-2.5691805118110236
11
5.1885714566929133
21
-2.5676748031496062
0
LINE
8
BLACK
6
CONTINUOUS
10
5.1885714566929133
20
-2.5676748031496062
11
5.1814410629921257
21
-2.5647212992125983
0
LINE
8
BLACK
6
CONTINUOUS
10
5.1814410629921257
20
-2.5647212992125983
11
5.1750238976377956
21
-2.5604334645669291
0
LINE
8
BLACK
6
CONTINUOUS
10
5.1750238976377956
20
-2.5604334645669291
11
5.1695665354330709
21
-2.5549761023622048
0
LINE
8
BLACK
6
CONTINUOUS
10
5.1695665354330709
20
-2.5549761023622048
11
5.1652787007874013
21
-2.5485589370078738
0
LINE
8
BLACK
6
CONTINUOUS
10
5.1652787007874013
20
-2.5485589370078738
11
5.1623251968503938
21
-2.5414285433070867
0
LINE
8
BLACK
6
CONTINUOUS
10
5.1623251968503938
20
-2.5414285433070867
11
5.1608194881889764
21
-2.5338589370078739
0
LINE
8
BLACK
6
CONTINUOUS
10
5.1608194881889764
20
-2.5338589370078739
11
5.1608194881889764
21
-2.5261410629921257
0
LINE
8
BLACK
6
CONTINUOUS
10
5.1608194881889764
20
-2.5261410629921257
11
5.1623251968503938
21
-2.5185714566929134
0
LINE
8
BLACK
6
CONTINUOUS
10
5.1623251968503938
20
-2.5185714566929134
11
5.1652787007874013
21
-2.5114410629921258
0
LINE
8
BLACK
6
CONTINUOUS
10
5.1652787007874013
20
-2.5114410629921258
11
5.1695665354330709
21
-2.5050238976377952
0
LINE
8
BLACK
6
CONTINUOUS
10
5.1695665354330709
20
-2.5050238976377952
11
5.1750238976377956
21
-2.4995665354330709
0
LINE
8
BLACK
6
CONTINUOUS
10
5.1750238976377956
20
-2.4995665354330709
11
5.1814410629921257
21
-2.4952787007874013
0
LINE
8
BLACK
6
CONTINUOUS
10
5.1814410629921257
20
-2.4952787007874013
11
5.1885714566929133
21
-2.4923251968503934
0
LINE
8
BLACK
6
CONTINUOUS
10
5.1885714566929133
20
-2.4923251968503934
11
5.1961410629921261
21
-2.4908194881889765
0
LINE
8
BLACK
6
CONTINUOUS
10
5.1961410629921261
20
-2.4908194881889765
11
5.2038589370078743
21
-2.4908194881889765
0
LINE
8
BLACK
6
CONTINUOUS
10
5.2038589370078743
20
-2.4908194881889765
11
5.2114285433070862
21
-2.4923251968503934
0
LINE
8
BLACK
6
CONTINUOUS
10
5.2114285433070862
20
-2.4923251968503934
11
5.2185589370078738
21
-2.4952787007874013
0
LINE
8
BLACK
6
CONTINUOUS
10
5.2185589370078738
20
-2.4952787007874013
11
5.2249761023622048
21
-2.4995665354330709
0
LINE
8
BLACK
6
CONTINUOUS
10
5.2249761023622048
20
-2.4995665354330709
11
5.2304334645669286
21
-2.5050238976377952
0
LINE
8
BLACK
6
CONTINUOUS
10
5.2304334645669286
20
-2.5050238976377952
11
5.2313800393700784
21
-2.5064405511811021
0
LINE
8
BLACK
6
CONTINUOUS
10
5.2313800393700784
20
-2.5064405511811021
11
5.3183186614173223
21
-2.5068913779527557
0
LINE
8
BLACK
6
CONTINUOUS
10
5.3183186614173223
20
-2.5068913779527557
11
5.3195665354330703
21
-2.5050238976377952
0
LINE
8
BLACK
6
CONTINUOUS
10
5.3195665354330703
20
-2.5050238976377952
11
5.325023897637795
21
-2.4995665354330709
0
LINE
8
BLACK
6
CONTINUOUS
10
5.325023897637795
20
-2.4995665354330709
11
5.3314410629921261
21
-2.4952787007874013
0
LINE
8
BLACK
6
CONTINUOUS
10
5.3314410629921261
20
-2.4952787007874013
11
5.3385714566929137
21
-2.4923251968503934
0
LINE
8
BLACK
6
CONTINUOUS
10
5.3385714566929137
20
-2.4923251968503934
11
5.3461410629921255
21
-2.4908194881889765
0
LINE
8
BLACK
6
CONTINUOUS
10
5.3461410629921255
20
-2.4908194881889765
11
5.3538589370078737
21
-2.4908194881889765
0
LINE
8
BLACK
6
CONTINUOUS
10
5.3538589370078737
20
-2.4908194881889765
11
5.3614285433070865
21
-2.4923251968503934
0
LINE
8
BLACK
6
CONTINUOUS
10
5.3614285433070865
20
-2.4923251968503934
11
5.3685589370078741
21
-2.4952787007874013
0
LINE
8
BLACK
6
CONTINUOUS
10
5.3685589370078741
20
-2.4952787007874013
11
5.3749761023622042
21
-2.4995665354330709
0
LINE
8
BLACK
6
CONTINUOUS
10
5.3749761023622042
20
-2.4995665354330709
11
5.3804334645669289
21
-2.5050238976377952
0
LINE
8
BLACK
6
CONTINUOUS
10
5.3804334645669289
20
-2.5050238976377952
11
5.3847212992125986
21
-2.5114410629921258
0
LINE
8
BLACK
6
CONTINUOUS
10
5.3847212992125986
20
-2.5114410629921258
11
5.3873040944881891
21
-2.517676535433071
0
LINE
8
BLACK
6
CONTINUOUS
10
5.3873040944881891
20
-2.517676535433071
11
5.6595160629921262
21
-2.5883592519685039
0
LINE
8
BLACK
6
CONTINUOUS
10
5.6595160629921262
20
-2.5883592519685039
11
5.6608368110236222
21
-2.5886220472440944
0
LINE
8
BLACK
6
CONTINUOUS
10
5.6608368110236222
20
-2.5886220472440944
11
5.6825196850393702
21
-2.5886220472440944
0
LINE
8
BLACK
6
CONTINUOUS
10
5.6825196850393702
20
-2.5886220472440944
11
5.725586377952756
21
-2.5886220472440944
0
LINE
8
BLACK
6
CONTINUOUS
10
5.725586377952756
20
-2.5886220472440944
11
5.7543974015748027
21
-2.5598109448818898
0
LINE
8
BLACK
6
CONTINUOUS
10
5.7543974015748027
20
-2.5598109448818898
11
5.7581259842519685
21
-2.2834788582677166
0
LINE
8
BLACK
6
CONTINUOUS
10
5.7581259842519685
20
-2.2834788582677166
11
5.7581259842519685
21
-2.2638188976377953
0
LINE
8
BLACK
6
CONTINUOUS
10
5.7581259842519685
20
-2.2638188976377953
11
5.7581861023622043
21
-2.2629015354330706
0
LINE
8
BLACK
6
CONTINUOUS
10
5.7581861023622043
20
-2.2629015354330706
11
5.7582118110236218
21
-2.2619825984251967
0
LINE
8
BLACK
6
CONTINUOUS
10
5.7582118110236218
20
-2.2619825984251967
11
5.7587738188976374
21
-2.2559842519685041
0
LINE
8
BLACK
6
CONTINUOUS
10
5.7587738188976374
20
-2.2559842519685041
11
5.5872441732283464
21
-2.2559842519685041
0
LINE
8
BLACK
6
CONTINUOUS
10
5.5872441732283464
20
-2.2559842519685041
11
5.5872440944881889
21
-2.2559842519685041
0
LINE
8
BLACK
6
CONTINUOUS
10
5.5872440944881889
20
-2.2559842519685041
11
5.5834775196850392
21
-2.2552350393700786
0
LINE
8
BLACK
6
CONTINUOUS
10
5.5834775196850392
20
-2.2552350393700786
11
5.5802843700787399
21
-2.2531014566929133
0
LINE
8
BLACK
6
CONTINUOUS
10
5.5802843700787399
20
-2.2531014566929133
11
5.578150787401575
21
-2.2499083070866139
0
LINE
8
BLACK
6
CONTINUOUS
10
5.578150787401575
20
-2.2499083070866139
11
5.5774015748031491
21
-2.2461417322834647
0
LINE
8
BLACK
6
CONTINUOUS
10
5.5774015748031491
20
-2.2461417322834647
11
5.5774015748031491
21
-2.0866929133858267
0
LINE
8
BLACK
6
CONTINUOUS
10
5.5774015748031491
20
-2.0866929133858267
11
5.5774015748031491
21
-2.0538425196850394
0
LINE
8
BLACK
6
CONTINUOUS
10
5.5774015748031491
20
-2.0538425196850394
11
5.2596977559055116
21
-2.0538425196850394
0
LINE
8
BLACK
6
CONTINUOUS
10
5.2596977559055116
20
-2.0538425196850394
11
5.2591935039370075
21
-2.0543467716535431
0
LINE
8
BLACK
6
CONTINUOUS
10
5.2591935039370075
20
-2.0543467716535431
11
5.2540597244094487
21
-2.0577770472440946
0
LINE
8
BLACK
6
CONTINUOUS
10
5.2540597244094487
20
-2.0577770472440946
11
5.2483554330708664
21
-2.0601398425196851
0
LINE
8
BLACK
6
CONTINUOUS
10
5.2483554330708664
20
-2.0601398425196851
11
5.2422997637795277
21
-2.0613444094488189
0
LINE
8
BLACK
6
CONTINUOUS
10
5.2422997637795277
20
-2.0613444094488189
11
5.2361254330708658
21
-2.0613444094488189
0
LINE
8
BLACK
6
CONTINUOUS
10
5.2361254330708658
20
-2.0613444094488189
11
5.230069763779527
21
-2.0601398425196851
0
LINE
8
BLACK
6
CONTINUOUS
10
5.230069763779527
20
-2.0601398425196851
11
5.2243654724409447
21
-2.0577770472440946
0
LINE
8
BLACK
6
CONTINUOUS
10
5.2243654724409447
20
-2.0577770472440946
11
5.219231692913386
21
-2.0543467716535431
0
LINE
8
BLACK
6
CONTINUOUS
10
5.219231692913386
20
-2.0543467716535431
11
5.2148658267716534
21
-2.049980905511811
0
LINE
8
BLACK
6
CONTINUOUS
10
5.2148658267716534
20
-2.049980905511811
11
5.2114355511811024
21
-2.0448471259842518
0
LINE
8
BLACK
6
CONTINUOUS
10
5.2114355511811024
20
-2.0448471259842518
11
5.2090727559055114
21
-2.039142834645669
0
LINE
8
BLACK
6
CONTINUOUS
10
5.2090727559055114
20
-2.039142834645669
11
5.207868188976378
21
-2.0330871653543308
0
LINE
8
BLACK
6
CONTINUOUS
10
5.207868188976378
20
-2.0330871653543308
11
5.207868188976378
21
-2.0269128346456693
0
LINE
8
BLACK
6
CONTINUOUS
10
5.207868188976378
20
-2.0269128346456693
11
5.2090727559055114
21
-2.0208571653543306
0
LINE
8
BLACK
6
CONTINUOUS
10
5.2090727559055114
20
-2.0208571653543306
11
5.2114355511811024
21
-2.0151528740157478
0
LINE
8
BLACK
6
CONTINUOUS
10
5.2114355511811024
20
-2.0151528740157478
11
5.2148658267716534
21
-2.0100190944881891
0
LINE
8
BLACK
6
CONTINUOUS
10
5.2148658267716534
20
-2.0100190944881891
11
5.219231692913386
21
-2.0056532283464565
0
LINE
8
BLACK
6
CONTINUOUS
10
5.219231692913386
20
-2.0056532283464565
11
5.2243654724409447
21
-2.0022229527559054
0
LINE
8
BLACK
6
CONTINUOUS
10
5.2243654724409447
20
-2.0022229527559054
11
5.230069763779527
21
-1.999860157480315
0
LINE
8
BLACK
6
CONTINUOUS
10
5.230069763779527
20
-1.999860157480315
11
5.2361254330708658
21
-1.9986555905511811
0
LINE
8
BLACK
6
CONTINUOUS
10
5.2361254330708658
20
-1.9986555905511811
11
5.2422997637795277
21
-1.9986555905511811
0
LINE
8
BLACK
6
CONTINUOUS
10
5.2422997637795277
20
-1.9986555905511811
11
5.2483554330708664
21
-1.999860157480315
0
LINE
8
BLACK
6
CONTINUOUS
10
5.2483554330708664
20
-1.999860157480315
11
5.2540597244094487
21
-2.0022229527559054
0
LINE
8
BLACK
6
CONTINUOUS
10
5.2540597244094487
20
-2.0022229527559054
11
5.2591935039370075
21
-2.0056532283464565
0
LINE
8
BLACK
6
CONTINUOUS
10
5.2591935039370075
20
-2.0056532283464565
11
5.26355937007874
21
-2.0100190944881891
0
LINE
8
BLACK
6
CONTINUOUS
10
5.26355937007874
20
-2.0100190944881891
11
5.2665350000000002
21
-2.014472440944882
0
LINE
8
BLACK
6
CONTINUOUS
10
5.2665350000000002
20
-2.014472440944882
11
5.5774015748031491
21
-2.014472440944882
0
LINE
8
BLACK
6
CONTINUOUS
10
5.5774015748031491
20
-2.014472440944882
11
5.5774015748031491
21
-1.8957481102362204
0
LINE
8
BLACK
6
CONTINUOUS
10
5.5774015748031491
20
-1.8957481102362204
11
5.578150787401575
21
-1.8919814960629922
0
LINE
8
BLACK
6
CONTINUOUS
10
5.578150787401575
20
-1.8919814960629922
11
5.578150787401575
21
-1.8919814566929134
0
LINE
8
BLACK
6
CONTINUOUS
10
5.578150787401575
20
-1.8919814566929134
11
5.5802843700787399
21
-1.888788307086614
0
LINE
8
BLACK
6
CONTINUOUS
10
5.5802843700787399
20
-1.888788307086614
11
5.5834775196850392
21
-1.8866547244094487
0
LINE
8
BLACK
6
CONTINUOUS
10
5.5834775196850392
20
-1.8866547244094487
11
5.5872440944881889
21
-1.8859055118110235
0
LINE
8
BLACK
6
CONTINUOUS
10
5.5872440944881889
20
-1.8859055118110235
11
5.7742519685039371
21
-1.8859055118110235
0
LINE
8
BLACK
6
CONTINUOUS
10
5.3037861417322834
20
-2.2625765748031497
11
5.3125994094488185
21
-2.2654401968503937
0
LINE
8
BLACK
6
CONTINUOUS
10
5.3125994094488185
20
-2.2654401968503937
11
5.3208562204724412
21
-2.2696472440944881
0
LINE
8
BLACK
6
CONTINUOUS
10
5.3208562204724412
20
-2.2696472440944881
11
5.3283532283464563
21
-2.2750941338582678
0
LINE
8
BLACK
6
CONTINUOUS
10
5.3283532283464563
20
-2.2750941338582678
11
5.3349058661417326
21
-2.2816467716535431
0
LINE
8
BLACK
6
CONTINUOUS
10
5.3349058661417326
20
-2.2816467716535431
11
5.3403527559055117
21
-2.2891437795275591
0
LINE
8
BLACK
6
CONTINUOUS
10
5.3403527559055117
20
-2.2891437795275591
11
5.3445598031496058
21
-2.297400590551181
0
LINE
8
BLACK
6
CONTINUOUS
10
5.3445598031496058
20
-2.297400590551181
11
5.3474234251968502
21
-2.3062138582677165
0
LINE
8
BLACK
6
CONTINUOUS
10
5.3474234251968502
20
-2.3062138582677165
11
5.3488730708661416
21
-2.3153665748031496
0
LINE
8
BLACK
6
CONTINUOUS
10
5.3488730708661416
20
-2.3153665748031496
11
5.3488730708661416
21
-2.3161938582677166
0
LINE
8
BLACK
6
CONTINUOUS
10
5.3488730708661416
20
-2.3161938582677166
11
5.6666067716535435
21
-2.3779527559055116
0
LINE
8
BLACK
6
CONTINUOUS
10
5.6666067716535435
20
-2.3779527559055116
11
5.6683464566929134
21
-2.3779527559055116
0
LINE
8
BLACK
6
CONTINUOUS
10
5.6683464566929134
20
-2.3779527559055116
11
5.6683464566929134
21
-2.3504724409448818
0
LINE
8
BLACK
6
CONTINUOUS
10
5.6683464566929134
20
-2.3504724409448818
11
5.6690956692913383
21
-2.3467058661417322
0
LINE
8
BLACK
6
CONTINUOUS
10
5.6690956692913383
20
-2.3467058661417322
11
5.6712292519685041
21
-2.3435127165354328
0
LINE
8
BLACK
6
CONTINUOUS
10
5.6712292519685041
20
-2.3435127165354328
11
5.6744224015748026
21
-2.3413791338582675
0
LINE
8
BLACK
6
CONTINUOUS
10
5.6744224015748026
20
-2.3413791338582675
11
5.6781889763779523
21
-2.3406299212598425
0
LINE
8
BLACK
6
CONTINUOUS
10
5.6781889763779523
20
-2.3406299212598425
11
5.7018110236220467
21
-2.3406299212598425
0
LINE
8
BLACK
6
CONTINUOUS
10
5.7018110236220467
20
-2.3406299212598425
11
5.7055775984251964
21
-2.3413791338582675
0
LINE
8
BLACK
6
CONTINUOUS
10
5.7055775984251964
20
-2.3413791338582675
11
5.7087707480314958
21
-2.3435127165354328
0
LINE
8
BLACK
6
CONTINUOUS
10
5.7087707480314958
20
-2.3435127165354328
11
5.7109043307086615
21
-2.3467058661417322
0
LINE
8
BLACK
6
CONTINUOUS
10
5.7109043307086615
20
-2.3467058661417322
11
5.7116535433070865
21
-2.3504724409448818
0
LINE
8
BLACK
6
CONTINUOUS
10
5.7116535433070865
20
-2.3504724409448818
11
5.7116535433070865
21
-2.5118897637795277
0
LINE
8
BLACK
6
CONTINUOUS
10
5.7116535433070865
20
-2.5118897637795277
11
5.7109043307086615
21
-2.5156563385826769
0
LINE
8
BLACK
6
CONTINUOUS
10
5.7109043307086615
20
-2.5156563385826769
11
5.7087707480314958
21
-2.5188494881889762
0
LINE
8
BLACK
6
CONTINUOUS
10
5.7087707480314958
20
-2.5188494881889762
11
5.7055775984251964
21
-2.5209830708661416
0
LINE
8
BLACK
6
CONTINUOUS
10
5.7055775984251964
20
-2.5209830708661416
11
5.7018110236220467
21
-2.521732283464567
0
LINE
8
BLACK
6
CONTINUOUS
10
5.7018110236220467
20
-2.521732283464567
11
5.6781889763779523
21
-2.521732283464567
0
LINE
8
BLACK
6
CONTINUOUS
10
5.6781889763779523
20
-2.521732283464567
11
5.6744224015748026
21
-2.5209830708661416
0
LINE
8
BLACK
6
CONTINUOUS
10
5.6744224015748026
20
-2.5209830708661416
11
5.6712292519685041
21
-2.5188494881889762
0
LINE
8
BLACK
6
CONTINUOUS
10
5.6712292519685041
20
-2.5188494881889762
11
5.6690956692913383
21
-2.5156563385826769
0
LINE
8
BLACK
6
CONTINUOUS
10
5.6690956692913383
20
-2.5156563385826769
11
5.6683464566929134
21
-2.5118897637795277
0
LINE
8
BLACK
6
CONTINUOUS
10
5.6683464566929134
20
-2.5118897637795277
11
5.6683464566929134
21
-2.409448818897638
0
LINE
8
BLACK
6
CONTINUOUS
10
5.6683464566929134
20
-2.409448818897638
11
5.6650905511811018
21
-2.409448818897638
0
LINE
8
BLACK
6
CONTINUOUS
10
5.6650905511811018
20
-2.409448818897638
11
5.664377519685039
21
-2.4094020472440945
0
LINE
8
BLACK
6
CONTINUOUS
10
5.664377519685039
20
-2.4094020472440945
11
5.6641292519685038
21
-2.4094194488188978
0
LINE
8
BLACK
6
CONTINUOUS
10
5.6641292519685038
20
-2.4094194488188978
11
5.6635838188976377
21
-2.4093500393700786
0
LINE
8
BLACK
6
CONTINUOUS
10
5.6635838188976377
20
-2.4093500393700786
11
5.6630350393700786
21
-2.409314094488189
0
LINE
8
BLACK
6
CONTINUOUS
10
5.6630350393700786
20
-2.409314094488189
11
5.662794527559055
21
-2.4092496456692913
0
LINE
8
BLACK
6
CONTINUOUS
10
5.662794527559055
20
-2.4092496456692913
11
5.6620857874015744
21
-2.4091594881889762
0
LINE
8
BLACK
6
CONTINUOUS
10
5.6620857874015744
20
-2.4091594881889762
11
5.3423151968503939
21
-2.3470046850393702
0
LINE
8
BLACK
6
CONTINUOUS
10
5.3423151968503939
20
-2.3470046850393702
11
5.3403527559055117
21
-2.350856220472441
0
LINE
8
BLACK
6
CONTINUOUS
10
5.3403527559055117
20
-2.350856220472441
11
5.3349058661417326
21
-2.3583532283464566
0
LINE
8
BLACK
6
CONTINUOUS
10
5.3349058661417326
20
-2.3583532283464566
11
5.3283532283464563
21
-2.3649058661417324
0
LINE
8
BLACK
6
CONTINUOUS
10
5.3283532283464563
20
-2.3649058661417324
11
5.3208562204724412
21
-2.370352755905512
0
LINE
8
BLACK
6
CONTINUOUS
10
5.3208562204724412
20
-2.370352755905512
11
5.3125994094488185
21
-2.3745598031496065
0
LINE
8
BLACK
6
CONTINUOUS
10
5.3125994094488185
20
-2.3745598031496065
11
5.3037861417322834
21
-2.3774234251968505
0
LINE
8
BLACK
6
CONTINUOUS
10
5.3037861417322834
20
-2.3774234251968505
11
5.2946334251968503
21
-2.3788730708661419
0
LINE
8
BLACK
6
CONTINUOUS
10
5.2946334251968503
20
-2.3788730708661419
11
5.2853665748031498
21
-2.3788730708661419
0
LINE
8
BLACK
6
CONTINUOUS
10
5.2853665748031498
20
-2.3788730708661419
11
5.2762138582677167
21
-2.3774234251968505
0
LINE
8
BLACK
6
CONTINUOUS
10
5.2762138582677167
20
-2.3774234251968505
11
5.2674005905511807
21
-2.3745598031496065
0
LINE
8
BLACK
6
CONTINUOUS
10
5.2674005905511807
20
-2.3745598031496065
11
5.2591437795275588
21
-2.370352755905512
0
LINE
8
BLACK
6
CONTINUOUS
10
5.2591437795275588
20
-2.370352755905512
11
5.2516467716535429
21
-2.3649058661417324
0
LINE
8
BLACK
6
CONTINUOUS
10
5.2516467716535429
20
-2.3649058661417324
11
5.2450941338582675
21
-2.3583532283464566
0
LINE
8
BLACK
6
CONTINUOUS
10
5.2450941338582675
20
-2.3583532283464566
11
5.2396472440944883
21
-2.350856220472441
0
LINE
8
BLACK
6
CONTINUOUS
10
5.2396472440944883
20
-2.350856220472441
11
5.2354401968503934
21
-2.3425994094488187
0
LINE
8
BLACK
6
CONTINUOUS
10
5.2354401968503934
20
-2.3425994094488187
11
5.2325765748031499
21
-2.3337861417322836
0
LINE
8
BLACK
6
CONTINUOUS
10
5.2325765748031499
20
-2.3337861417322836
11
5.2311269291338585
21
-2.3246334251968501
0
LINE
8
BLACK
6
CONTINUOUS
10
5.2311269291338585
20
-2.3246334251968501
11
5.2311269291338585
21
-2.3153665748031496
0
LINE
8
BLACK
6
CONTINUOUS
10
5.2311269291338585
20
-2.3153665748031496
11
5.2325765748031499
21
-2.3062138582677165
0
LINE
8
BLACK
6
CONTINUOUS
10
5.2325765748031499
20
-2.3062138582677165
11
5.2354401968503934
21
-2.297400590551181
0
LINE
8
BLACK
6
CONTINUOUS
10
5.2354401968503934
20
-2.297400590551181
11
5.2396472440944883
21
-2.2891437795275591
0
LINE
8
BLACK
6
CONTINUOUS
10
5.2396472440944883
20
-2.2891437795275591
11
5.2450941338582675
21
-2.2816467716535431
0
LINE
8
BLACK
6
CONTINUOUS
10
5.2450941338582675
20
-2.2816467716535431
11
5.2516467716535429
21
-2.2750941338582678
0
LINE
8
BLACK
6
CONTINUOUS
10
5.2516467716535429
20
-2.2750941338582678
11
5.2591437795275588
21
-2.2696472440944881
0
LINE
8
BLACK
6
CONTINUOUS
10
5.2591437795275588
20
-2.2696472440944881
11
5.2674005905511807
21
-2.2654401968503937
0
LINE
8
BLACK
6
CONTINUOUS
10
5.2674005905511807
20
-2.2654401968503937
11
5.2762138582677167
21
-2.2625765748031497
0
LINE
8
BLACK
6
CONTINUOUS
10
5.2762138582677167
20
-2.2625765748031497
11
5.2853665748031498
21
-2.2611269291338583
0
LINE
8
BLACK
6
CONTINUOUS
10
5.2853665748031498
20
-2.2611269291338583
11
5.2946334251968503
21
-2.2611269291338583
0
LINE
8
BLACK
6
CONTINUOUS
10
5.2946334251968503
20
-2.2611269291338583
11
5.3037861417322834
21
-2.2625765748031497
0
LINE
8
BLACK
6
CONTINUOUS
10
6.1190641338582674
20
-2.3157480314960628
11
6.1377165354330705
21
-2.3157480314960628
0
LINE
8
BLACK
6
CONTINUOUS
10
6.1377165354330705
20
-2.3157480314960628
11
6.1414831102362202
21
-2.3164972440944882
0
LINE
8
BLACK
6
CONTINUOUS
10
6.1414831102362202
20
-2.3164972440944882
11
6.1446762598425195
21
-2.3186308267716536
0
LINE
8
BLACK
6
CONTINUOUS
10
6.1446762598425195
20
-2.3186308267716536
11
6.1468098425196853
21
-2.3218239763779529
0
LINE
8
BLACK
6
CONTINUOUS
10
6.1468098425196853
20
-2.3218239763779529
11
6.1475590551181103
21
-2.3255905511811021
0
LINE
8
BLACK
6
CONTINUOUS
10
6.1475590551181103
20
-2.3255905511811021
11
6.1475590551181103
21
-2.346259842519685
0
LINE
8
BLACK
6
CONTINUOUS
10
6.1475590551181103
20
-2.346259842519685
11
6.1468098425196853
21
-2.3500264173228347
0
LINE
8
BLACK
6
CONTINUOUS
10
6.1468098425196853
20
-2.3500264173228347
11
6.1446762598425195
21
-2.3532195669291336
0
LINE
8
BLACK
6
CONTINUOUS
10
6.1446762598425195
20
-2.3532195669291336
11
6.1414831102362202
21
-2.3553531496062994
0
LINE
8
BLACK
6
CONTINUOUS
10
6.1414831102362202
20
-2.3553531496062994
11
6.1377165354330705
21
-2.3561023622047244
0
LINE
8
BLACK
6
CONTINUOUS
10
6.1377165354330705
20
-2.3561023622047244
11
6.1321574803149606
21
-2.3561023622047244
0
LINE
8
BLACK
6
CONTINUOUS
10
6.1321574803149606
20
-2.3561023622047244
11
6.1321574803149606
21
-2.4138976377952757
0
LINE
8
BLACK
6
CONTINUOUS
10
6.1321574803149606
20
-2.4138976377952757
11
6.1377165354330705
21
-2.4138976377952757
0
LINE
8
BLACK
6
CONTINUOUS
10
6.1377165354330705
20
-2.4138976377952757
11
6.1414831102362202
21
-2.4146468503937006
0
LINE
8
BLACK
6
CONTINUOUS
10
6.1414831102362202
20
-2.4146468503937006
11
6.1446762598425195
21
-2.416780433070866
0
LINE
8
BLACK
6
CONTINUOUS
10
6.1446762598425195
20
-2.416780433070866
11
6.1468098425196853
21
-2.4199735826771653
0
LINE
8
BLACK
6
CONTINUOUS
10
6.1468098425196853
20
-2.4199735826771653
11
6.1475590551181103
21
-2.423740157480315
0
LINE
8
BLACK
6
CONTINUOUS
10
6.1475590551181103
20
-2.423740157480315
11
6.1475590551181103
21
-2.4444094488188974
0
LINE
8
BLACK
6
CONTINUOUS
10
6.1475590551181103
20
-2.4444094488188974
11
6.1468098425196853
21
-2.4481760236220471
0
LINE
8
BLACK
6
CONTINUOUS
10
6.1468098425196853
20
-2.4481760236220471
11
6.1446762598425195
21
-2.4513691732283465
0
LINE
8
BLACK
6
CONTINUOUS
10
6.1446762598425195
20
-2.4513691732283465
11
6.1414831102362202
21
-2.4535027559055118
0
LINE
8
BLACK
6
CONTINUOUS
10
6.1414831102362202
20
-2.4535027559055118
11
6.1377165354330705
21
-2.4542519685039368
0
LINE
8
BLACK
6
CONTINUOUS
10
6.1377165354330705
20
-2.4542519685039368
11
6.1022834645669288
21
-2.4542519685039368
0
LINE
8
BLACK
6
CONTINUOUS
10
6.1022834645669288
20
-2.4542519685039368
11
6.0985168897637791
21
-2.4535027559055118
0
LINE
8
BLACK
6
CONTINUOUS
10
6.0985168897637791
20
-2.4535027559055118
11
6.0966626377952755
21
-2.4522637795275588
0
LINE
8
BLACK
6
CONTINUOUS
10
6.0966626377952755
20
-2.4522637795275588
11
6.0888110236220472
21
-2.4522637795275588
0
LINE
8
BLACK
6
CONTINUOUS
10
6.0888110236220472
20
-2.4522637795275588
11
5.915
21
-2.4522637795275588
0
LINE
8
BLACK
6
CONTINUOUS
10
5.915
20
-2.4522637795275588
11
5.9116535433070867
21
-2.4522637795275588
0
LINE
8
BLACK
6
CONTINUOUS
10
5.9116535433070867
20
-2.4522637795275588
11
5.9116535433070867
21
-2.5118897637795277
0
LINE
8
BLACK
6
CONTINUOUS
10
5.9116535433070867
20
-2.5118897637795277
11
5.9109043307086617
21
-2.5156563385826769
0
LINE
8
BLACK
6
CONTINUOUS
10
5.9109043307086617
20
-2.5156563385826769
11
5.9087707480314959
21
-2.5188494881889762
0
LINE
8
BLACK
6
CONTINUOUS
10
5.9087707480314959
20
-2.5188494881889762
11
5.9055775984251966
21
-2.5209830708661416
0
LINE
8
BLACK
6
CONTINUOUS
10
5.9055775984251966
20
-2.5209830708661416
11
5.9018110236220469
21
-2.521732283464567
0
LINE
8
BLACK
6
CONTINUOUS
10
5.9018110236220469
20
-2.521732283464567
11
5.8781889763779525
21
-2.521732283464567
0
LINE
8
BLACK
6
CONTINUOUS
10
5.8781889763779525
20
-2.521732283464567
11
5.8744224015748028
21
-2.5209830708661416
0
LINE
8
BLACK
6
CONTINUOUS
10
5.8744224015748028
20
-2.5209830708661416
11
5.8712292519685034
21
-2.5188494881889762
0
LINE
8
BLACK
6
CONTINUOUS
10
5.8712292519685034
20
-2.5188494881889762
11
5.8690956692913385
21
-2.5156563385826769
0
LINE
8
BLACK
6
CONTINUOUS
10
5.8690956692913385
20
-2.5156563385826769
11
5.8683464566929135
21
-2.5118897637795277
0
LINE
8
BLACK
6
CONTINUOUS
10
5.8683464566929135
20
-2.5118897637795277
11
5.8683464566929135
21
-2.3504724409448818
0
LINE
8
BLACK
6
CONTINUOUS
10
5.8683464566929135
20
-2.3504724409448818
11
5.8690956692913385
21
-2.3467058661417322
0
LINE
8
BLACK
6
CONTINUOUS
10
5.8690956692913385
20
-2.3467058661417322
11
5.8712292519685034
21
-2.3435127165354328
0
LINE
8
BLACK
6
CONTINUOUS
10
5.8712292519685034
20
-2.3435127165354328
11
5.8744224015748028
21
-2.3413791338582675
0
LINE
8
BLACK
6
CONTINUOUS
10
5.8744224015748028
20
-2.3413791338582675
11
5.8781889763779525
21
-2.3406299212598425
0
LINE
8
BLACK
6
CONTINUOUS
10
5.8781889763779525
20
-2.3406299212598425
11
5.9018110236220469
21
-2.3406299212598425
0
LINE
8
BLACK
6
CONTINUOUS
10
5.9018110236220469
20
-2.3406299212598425
11
5.9055775984251966
21
-2.3413791338582675
0
LINE
8
BLACK
6
CONTINUOUS
10
5.9055775984251966
20
-2.3413791338582675
11
5.9087707480314959
21
-2.3435127165354328
0
LINE
8
BLACK
6
CONTINUOUS
10
5.9087707480314959
20
-2.3435127165354328
11
5.9109043307086617
21
-2.3467058661417322
0
LINE
8
BLACK
6
CONTINUOUS
10
5.9109043307086617
20
-2.3467058661417322
11
5.9116535433070867
21
-2.3504724409448818
0
LINE
8
BLACK
6
CONTINUOUS
10
5.9116535433070867
20
-2.3504724409448818
11
5.9116535433070867
21
-2.4207677165354329
0
LINE
8
BLACK
6
CONTINUOUS
10
5.9116535433070867
20
-2.4207677165354329
11
5.915
21
-2.4207677165354329
0
LINE
8
BLACK
6
CONTINUOUS
10
5.915
20
-2.4207677165354329
11
6.0888110236220472
21
-2.4207677165354329
0
LINE
8
BLACK
6
CONTINUOUS
10
6.0888110236220472
20
-2.4207677165354329
11
6.093032204724409
21
-2.4207677165354329
0
LINE
8
BLACK
6
CONTINUOUS
10
6.093032204724409
20
-2.4207677165354329
11
6.0931901574803149
21
-2.4199735826771653
0
LINE
8
BLACK
6
CONTINUOUS
10
6.0931901574803149
20
-2.4199735826771653
11
6.0953237401574798
21
-2.416780433070866
0
LINE
8
BLACK
6
CONTINUOUS
10
6.0953237401574798
20
-2.416780433070866
11
6.0985168897637791
21
-2.4146468503937006
0
LINE
8
BLACK
6
CONTINUOUS
10
6.0985168897637791
20
-2.4146468503937006
11
6.1006614173228346
21
-2.4142202755905511
0
LINE
8
BLACK
6
CONTINUOUS
10
6.1006614173228346
20
-2.4142202755905511
11
6.1006614173228346
21
-2.3557796850393702
0
LINE
8
BLACK
6
CONTINUOUS
10
6.1006614173228346
20
-2.3557796850393702
11
6.0985168897637791
21
-2.3553531496062994
0
LINE
8
BLACK
6
CONTINUOUS
10
6.0985168897637791
20
-2.3553531496062994
11
6.0953237401574798
21
-2.3532195669291336
0
LINE
8
BLACK
6
CONTINUOUS
10
6.0953237401574798
20
-2.3532195669291336
11
6.0931901574803149
21
-2.3500264173228347
0
LINE
8
BLACK
6
CONTINUOUS
10
6.0931901574803149
20
-2.3500264173228347
11
6.0924409448818899
21
-2.346259842519685
0
LINE
8
BLACK
6
CONTINUOUS
10
6.0924409448818899
20
-2.346259842519685
11
6.0924409448818899
21
-2.3255905511811021
0
LINE
8
BLACK
6
CONTINUOUS
10
6.0924409448818899
20
-2.3255905511811021
11
6.0931901574803149
21
-2.3218239763779529
0
LINE
8
BLACK
6
CONTINUOUS
10
6.0931901574803149
20
-2.3218239763779529
11
6.0953237401574798
21
-2.3186308267716536
0
LINE
8
BLACK
6
CONTINUOUS
10
6.0953237401574798
20
-2.3186308267716536
11
6.0985168897637791
21
-2.3164972440944882
0
LINE
8
BLACK
6
CONTINUOUS
10
6.0985168897637791
20
-2.3164972440944882
11
6.1022834645669288
21
-2.3157480314960628
0
LINE
8
BLACK
6
CONTINUOUS
10
6.1022834645669288
20
-2.3157480314960628
11
6.1137547637795278
21
-2.3157480314960628
0
LINE
8
BLACK
6
CONTINUOUS
10
6.1137547637795278
20
-2.3157480314960628
11
6.1143539370078734
21
-2.3155874803149605
0
LINE
8
BLACK
6
CONTINUOUS
10
6.1143539370078734
20
-2.3155874803149605
11
6.1184649606299208
21
-2.3155874803149605
0
LINE
8
BLACK
6
CONTINUOUS
10
6.1184649606299208
20
-2.3155874803149605
11
6.1190641338582674
21
-2.3157480314960628
0
CIRCLE
8
BLACK
10
6.2800000000000002
20
-2.6800000000000002
40
0.0068897637795276
0
CIRCLE
8
BLACK
10
5.5499999999999998
20
-3.2199999999999998
40
0.0068897637795276
0
CIRCLE
8
BLACK
10
6.3499999999999996
20
-3.2199999999999998
40
0.0068897637795276
0
CIRCLE
8
BLACK
10
6.2800000000000002
20
-2.8700000000000001
40
0.0068897637795276
0
CIRCLE
8
BLACK
10
5.3499999999999996
20
-2.5299999999999998
40
0.0068897637795276
0
CIRCLE
8
BLACK
10
5.3499999999999996
20
-2.9299999999999997
40
0.0068897637795276
0
CIRCLE
8
BLACK
10
5.8715748031496062
20
-2.77
40
0.0068897637795276
0
CIRCLE
8
BLACK
10
6.0684251968503933
20
-2.77
40
0.0068897637795276
0
CIRCLE
8
BLACK
10
5.0794173228346455
20
-3.3521732283464565
40
0.0068897637795276
0
CIRCLE
8
BLACK
10
5.1687874015748028
20
-3.3521732283464565
40
0.0068897637795276
0
CIRCLE
8
BLACK
10
5.2565826771653539
20
-3.3521732283464565
40
0.0068897637795276
0
CIRCLE
8
BLACK
10
5.0499999999999998
20
-2.3199999999999998
40
0.0068897637795276
0
CIRCLE
8
BLACK
10
5.2392125984251967
20
-2.0299999999999998
40
0.0068897637795276
0
CIRCLE
8
BLACK
10
5.1407874015748032
20
-2.0299999999999998
40
0.0068897637795276
0
CIRCLE
8
BLACK
10
5.5499999999999998
20
-2.8599999999999999
40
0.0068897637795276
0
CIRCLE
8
BLACK
10
5.5499999999999998
20
-2.7599999999999998
40
0.0068897637795276
0
CIRCLE
8
BLACK
10
5.29
20
-2.3199999999999998
40
0.0068897637795276
0
CIRCLE
8
BLACK
10
5.0499999999999998
20
-2.9299999999999997
40
0.0068897637795276
0
CIRCLE
8
BLACK
10
5.0499999999999998
20
-2.5299999999999998
40
0.0068897637795276
0
CIRCLE
8
BLACK
10
5.2000000000000002
20
-2.5299999999999998
40
0.0068897637795276
0
CIRCLE
8
BLACK
10
5.2000000000000002
20
-2.9299999999999997
40
0.0068897637795276
0
CIRCLE
8
BLACK
10
5.0814173228346453
20
-3.1381732283464565
40
0.0068897637795276
0
CIRCLE
8
BLACK
10
5.1707874015748034
20
-3.1381732283464565
40
0.0068897637795276
0
CIRCLE
8
BLACK
10
5.2585826771653545
20
-3.1381732283464565
40
0.0068897637795276
0
LINE
8
BLACK
6
CONTINUOUS
10
4.8228346456692917
20
-1.8503937007874016
11
6.4960629921259843
21
-1.8503937007874016
0
LINE
8
BLACK
6
CONTINUOUS
10
6.4960629921259843
20
-1.8503937007874016
11
6.4960629921259843
21
-3.5433070866141732
0
LINE
8
BLACK
6
CONTINUOUS
10
6.4960629921259843
20
-3.5433070866141732
11
4.8228346456692917
21
-3.5433070866141732
0
LINE
8
BLACK
6
CONTINUOUS
10
4.8228346456692917
20
-3.5433070866141732
11
4.8228346456692917
21
-1.8503937007874016
0
CIRCLE
8
BLACK
10
6.2800000000000002
20
-2.6800000000000002
40
0.0068897637795276
0
CIRCLE
8
BLACK
10
5.5499999999999998
20
-3.2199999999999998
40
0.0068897637795276
0
CIRCLE
8
BLACK
10
6.3499999999999996
20
-3.2199999999999998
40
0.0068897637795276
0
CIRCLE
8
BLACK
10
6.2800000000000002
20
-2.8700000000000001
40
0.0068897637795276
0
CIRCLE
8
BLACK
10
5.3499999999999996
20
-2.5299999999999998
40
0.0068897637795276
0
CIRCLE
8
BLACK
10
5.3499999999999996
20
-2.9299999999999997
40
0.0068897637795276
0
CIRCLE
8
BLACK
10
5.8715748031496062
20
-2.77
40
0.0068897637795276
0
CIRCLE
8
BLACK
10
6.0684251968503933
20
-2.77
40
0.0068897637795276
0
CIRCLE
8
BLACK
10
5.0794173228346455
20
-3.3521732283464565
40
0.0068897637795276
0
CIRCLE
8
BLACK
10
5.1687874015748028
20
-3.3521732283464565
40
0.0068897637795276
0
CIRCLE
8
BLACK
10
5.2565826771653539
20
-3.3521732283464565
40
0.0068897637795276
0
CIRCLE
8
BLACK
10
5.0499999999999998
20
-2.3199999999999998
40
0.0068897637795276
0
CIRCLE
8
BLACK
10
5.2392125984251967
20
-2.0299999999999998
40
0.0068897637795276
0
CIRCLE
8
BLACK
10
5.1407874015748032
20
-2.0299999999999998
40
0.0068897637795276
0
CIRCLE
8
BLACK
10
5.5499999999999998
20
-2.8599999999999999
40
0.0068897637795276
0
CIRCLE
8
BLACK
10
5.5499999999999998
20
-2.7599999999999998
40
0.0068897637795276
0
CIRCLE
8
BLACK
10
5.29
20
-2.3199999999999998
40
0.0068897637795276
0
CIRCLE
8
BLACK
10
5.0499999999999998
20
-2.9299999999999997
40
0.0068897637795276
0
CIRCLE
8
BLACK
10
5.0499999999999998
20
-2.5299999999999998
40
0.0068897637795276
0
CIRCLE
8
BLACK
10
5.2000000000000002
20
-2.5299999999999998
40
0.0068897637795276
0
CIRCLE
8
BLACK
10
5.2000000000000002
20
-2.9299999999999997
40
0.0068897637795276
0
CIRCLE
8
BLACK
10
5.0814173228346453
20
-3.1381732283464565
40
0.0068897637795276
0
CIRCLE
8
BLACK
10
5.1707874015748034
20
-3.1381732283464565
40
0.0068897637795276
0
CIRCLE
8
BLACK
10
5.2585826771653545
20
-3.1381732283464565
40
0.0068897637795276
0
CIRCLE
8
WHITE
10
6.2800000000000002
20
-2.6800000000000002
40
0.0068897637795276
0
CIRCLE
8
WHITE
10
5.5499999999999998
20
-3.2199999999999998
40
0.0068897637795276
0
CIRCLE
8
WHITE
10
6.3499999999999996
20
-3.2199999999999998
40
0.0068897637795276
0
CIRCLE
8
WHITE
10
6.2800000000000002
20
-2.8700000000000001
40
0.0068897637795276
0
CIRCLE
8
WHITE
10
5.3499999999999996
20
-2.5299999999999998
40
0.0068897637795276
0
CIRCLE
8
WHITE
10
5.3499999999999996
20
-2.9299999999999997
40
0.0068897637795276
0
CIRCLE
8
WHITE
10
5.8715748031496062
20
-2.77
40
0.0068897637795276
0
CIRCLE
8
WHITE
10
6.0684251968503933
20
-2.77
40
0.0068897637795276
0
CIRCLE
8
WHITE
10
5.0794173228346455
20
-3.3521732283464565
40
0.0068897637795276
0
CIRCLE
8
WHITE
10
5.1687874015748028
20
-3.3521732283464565
40
0.0068897637795276
0
CIRCLE
8
WHITE
10
5.2565826771653539
20
-3.3521732283464565
40
0.0068897637795276
0
CIRCLE
8
WHITE
10
5.0499999999999998
20
-2.3199999999999998
40
0.0068897637795276
0
CIRCLE
8
WHITE
10
5.2392125984251967
20
-2.0299999999999998
40
0.0068897637795276
0
CIRCLE
8
WHITE
10
5.1407874015748032
20
-2.0299999999999998
40
0.0068897637795276
0
CIRCLE
8
WHITE
10
5.5499999999999998
20
-2.8599999999999999
40
0.0068897637795276
0
CIRCLE
8
WHITE
10
5.5499999999999998
20
-2.7599999999999998
40
0.0068897637795276
0
CIRCLE
8
WHITE
10
5.29
20
-2.3199999999999998
40
0.0068897637795276
0
CIRCLE
8
WHITE
10
5.0499999999999998
20
-2.9299999999999997
40
0.0068897637795276
0
CIRCLE
8
WHITE
10
5.0499999999999998
20
-2.5299999999999998
40
0.0068897637795276
0
CIRCLE
8
WHITE
10
5.2000000000000002
20
-2.5299999999999998
40
0.0068897637795276
0
CIRCLE
8
WHITE
10
5.2000000000000002
20
-2.9299999999999997
40
0.0068897637795276
0
CIRCLE
8
WHITE
10
5.0814173228346453
20
-3.1381732283464565
40
0.0068897637795276
0
CIRCLE
8
WHITE
10
5.1707874015748034
20
-3.1381732283464565
40
0.0068897637795276
0
CIRCLE
8
WHITE
10
5.2585826771653545
20
-3.1381732283464565
40
0.0068897637795276
  0
ENDSEC
  0
EOF
